G04 MADE WITH FRITZING*
G04 WWW.FRITZING.ORG*
G04 DOUBLE SIDED*
G04 HOLES PLATED*
G04 CONTOUR ON CENTER OF CONTOUR VECTOR*
%ASAXBY*%
%FSLAX23Y23*%
%MOIN*%
%OFA0B0*%
%SFA1.0B1.0*%
%ADD10C,0.010000*%
%ADD11C,0.005000*%
%ADD12C,0.016000*%
%ADD13R,0.001000X0.001000*%
%LNSILK1*%
G90*
G70*
G54D10*
X2919Y729D02*
X2637Y447D01*
D02*
X2637Y447D02*
X2778Y305D01*
D02*
X2778Y305D02*
X3061Y588D01*
D02*
X3061Y588D02*
X2919Y729D01*
G54D11*
D02*
X2895Y705D02*
X2944Y705D01*
G54D10*
D02*
X2174Y849D02*
X1799Y849D01*
D02*
X1799Y469D02*
X2174Y469D01*
D02*
X2174Y469D02*
X2174Y849D01*
D02*
X419Y469D02*
X44Y469D01*
D02*
X44Y469D02*
X44Y849D01*
D02*
X44Y849D02*
X419Y849D01*
G54D12*
D02*
X1659Y759D02*
X609Y759D01*
D02*
X609Y759D02*
X609Y682D01*
D02*
X609Y682D02*
X609Y632D01*
D02*
X609Y632D02*
X609Y559D01*
D02*
X609Y559D02*
X1659Y559D01*
D02*
X1659Y559D02*
X1659Y759D01*
D02*
X609Y682D02*
X559Y682D01*
D02*
X559Y682D02*
X559Y632D01*
D02*
X559Y632D02*
X609Y632D01*
D02*
X1584Y659D02*
X1534Y659D01*
D02*
X734Y659D02*
X684Y659D01*
D02*
X709Y684D02*
X709Y634D01*
G54D10*
D02*
X2174Y449D02*
X1799Y449D01*
D02*
X1799Y69D02*
X2174Y69D01*
D02*
X2174Y69D02*
X2174Y449D01*
D02*
X419Y69D02*
X44Y69D01*
D02*
X44Y69D02*
X44Y449D01*
D02*
X44Y449D02*
X419Y449D01*
G54D12*
D02*
X1659Y359D02*
X609Y359D01*
D02*
X609Y359D02*
X609Y282D01*
D02*
X609Y282D02*
X609Y232D01*
D02*
X609Y232D02*
X609Y159D01*
D02*
X609Y159D02*
X1659Y159D01*
D02*
X1659Y159D02*
X1659Y359D01*
D02*
X609Y282D02*
X559Y282D01*
D02*
X559Y282D02*
X559Y232D01*
D02*
X559Y232D02*
X609Y232D01*
D02*
X1584Y259D02*
X1534Y259D01*
D02*
X734Y259D02*
X684Y259D01*
D02*
X709Y284D02*
X709Y234D01*
G54D10*
D02*
X2269Y509D02*
X2269Y109D01*
D02*
X2269Y109D02*
X2369Y109D01*
D02*
X2369Y509D02*
X2269Y509D01*
G54D11*
D02*
X2269Y474D02*
X2304Y509D01*
G54D13*
X0Y917D02*
X3070Y917D01*
X0Y916D02*
X3070Y916D01*
X0Y915D02*
X3070Y915D01*
X0Y914D02*
X3070Y914D01*
X0Y913D02*
X3070Y913D01*
X0Y912D02*
X3070Y912D01*
X0Y911D02*
X3070Y911D01*
X0Y910D02*
X3070Y910D01*
X0Y909D02*
X7Y909D01*
X3063Y909D02*
X3070Y909D01*
X0Y908D02*
X7Y908D01*
X3063Y908D02*
X3070Y908D01*
X0Y907D02*
X7Y907D01*
X3063Y907D02*
X3070Y907D01*
X0Y906D02*
X7Y906D01*
X3063Y906D02*
X3070Y906D01*
X0Y905D02*
X7Y905D01*
X3063Y905D02*
X3070Y905D01*
X0Y904D02*
X7Y904D01*
X3063Y904D02*
X3070Y904D01*
X0Y903D02*
X7Y903D01*
X3063Y903D02*
X3070Y903D01*
X0Y902D02*
X7Y902D01*
X3063Y902D02*
X3070Y902D01*
X0Y901D02*
X7Y901D01*
X3063Y901D02*
X3070Y901D01*
X0Y900D02*
X7Y900D01*
X3063Y900D02*
X3070Y900D01*
X0Y899D02*
X7Y899D01*
X3063Y899D02*
X3070Y899D01*
X0Y898D02*
X7Y898D01*
X3063Y898D02*
X3070Y898D01*
X0Y897D02*
X7Y897D01*
X3063Y897D02*
X3070Y897D01*
X0Y896D02*
X7Y896D01*
X3063Y896D02*
X3070Y896D01*
X0Y895D02*
X7Y895D01*
X3063Y895D02*
X3070Y895D01*
X0Y894D02*
X7Y894D01*
X3063Y894D02*
X3070Y894D01*
X0Y893D02*
X7Y893D01*
X3063Y893D02*
X3070Y893D01*
X0Y892D02*
X7Y892D01*
X3063Y892D02*
X3070Y892D01*
X0Y891D02*
X7Y891D01*
X3063Y891D02*
X3070Y891D01*
X0Y890D02*
X7Y890D01*
X3063Y890D02*
X3070Y890D01*
X0Y889D02*
X7Y889D01*
X3063Y889D02*
X3070Y889D01*
X0Y888D02*
X7Y888D01*
X3063Y888D02*
X3070Y888D01*
X0Y887D02*
X7Y887D01*
X3063Y887D02*
X3070Y887D01*
X0Y886D02*
X7Y886D01*
X3063Y886D02*
X3070Y886D01*
X0Y885D02*
X7Y885D01*
X3063Y885D02*
X3070Y885D01*
X0Y884D02*
X7Y884D01*
X489Y884D02*
X535Y884D01*
X568Y884D02*
X601Y884D01*
X633Y884D02*
X672Y884D01*
X718Y884D02*
X742Y884D01*
X780Y884D02*
X821Y884D01*
X852Y884D02*
X862Y884D01*
X925Y884D02*
X934Y884D01*
X3063Y884D02*
X3070Y884D01*
X0Y883D02*
X7Y883D01*
X489Y883D02*
X536Y883D01*
X566Y883D02*
X603Y883D01*
X633Y883D02*
X674Y883D01*
X717Y883D02*
X743Y883D01*
X779Y883D02*
X822Y883D01*
X851Y883D02*
X863Y883D01*
X924Y883D02*
X935Y883D01*
X3063Y883D02*
X3070Y883D01*
X0Y882D02*
X7Y882D01*
X489Y882D02*
X537Y882D01*
X565Y882D02*
X604Y882D01*
X633Y882D02*
X676Y882D01*
X716Y882D02*
X744Y882D01*
X778Y882D02*
X823Y882D01*
X851Y882D02*
X864Y882D01*
X923Y882D02*
X936Y882D01*
X3063Y882D02*
X3070Y882D01*
X0Y881D02*
X7Y881D01*
X489Y881D02*
X537Y881D01*
X564Y881D02*
X606Y881D01*
X633Y881D02*
X677Y881D01*
X716Y881D02*
X744Y881D01*
X778Y881D02*
X824Y881D01*
X850Y881D02*
X864Y881D01*
X923Y881D02*
X936Y881D01*
X3063Y881D02*
X3070Y881D01*
X0Y880D02*
X7Y880D01*
X489Y880D02*
X537Y880D01*
X563Y880D02*
X606Y880D01*
X633Y880D02*
X678Y880D01*
X716Y880D02*
X744Y880D01*
X778Y880D02*
X825Y880D01*
X850Y880D02*
X864Y880D01*
X922Y880D02*
X936Y880D01*
X3063Y880D02*
X3070Y880D01*
X0Y879D02*
X7Y879D01*
X489Y879D02*
X537Y879D01*
X562Y879D02*
X607Y879D01*
X633Y879D02*
X679Y879D01*
X716Y879D02*
X744Y879D01*
X778Y879D02*
X826Y879D01*
X850Y879D02*
X864Y879D01*
X922Y879D02*
X936Y879D01*
X3063Y879D02*
X3070Y879D01*
X0Y878D02*
X7Y878D01*
X489Y878D02*
X537Y878D01*
X562Y878D02*
X608Y878D01*
X633Y878D02*
X680Y878D01*
X716Y878D02*
X744Y878D01*
X778Y878D02*
X826Y878D01*
X850Y878D02*
X864Y878D01*
X922Y878D02*
X936Y878D01*
X3063Y878D02*
X3070Y878D01*
X0Y877D02*
X7Y877D01*
X489Y877D02*
X536Y877D01*
X561Y877D02*
X608Y877D01*
X633Y877D02*
X680Y877D01*
X716Y877D02*
X744Y877D01*
X779Y877D02*
X826Y877D01*
X850Y877D02*
X863Y877D01*
X922Y877D02*
X935Y877D01*
X3063Y877D02*
X3070Y877D01*
X0Y876D02*
X7Y876D01*
X489Y876D02*
X536Y876D01*
X561Y876D02*
X609Y876D01*
X633Y876D02*
X681Y876D01*
X716Y876D02*
X744Y876D01*
X780Y876D02*
X826Y876D01*
X850Y876D02*
X862Y876D01*
X922Y876D02*
X935Y876D01*
X3063Y876D02*
X3070Y876D01*
X0Y875D02*
X7Y875D01*
X489Y875D02*
X533Y875D01*
X561Y875D02*
X609Y875D01*
X633Y875D02*
X681Y875D01*
X716Y875D02*
X744Y875D01*
X782Y875D02*
X827Y875D01*
X850Y875D02*
X860Y875D01*
X922Y875D02*
X932Y875D01*
X3063Y875D02*
X3070Y875D01*
X0Y874D02*
X7Y874D01*
X489Y874D02*
X498Y874D01*
X561Y874D02*
X570Y874D01*
X599Y874D02*
X609Y874D01*
X633Y874D02*
X642Y874D01*
X670Y874D02*
X681Y874D01*
X716Y874D02*
X725Y874D01*
X735Y874D02*
X744Y874D01*
X818Y874D02*
X827Y874D01*
X850Y874D02*
X859Y874D01*
X922Y874D02*
X931Y874D01*
X3063Y874D02*
X3070Y874D01*
X0Y873D02*
X7Y873D01*
X489Y873D02*
X498Y873D01*
X561Y873D02*
X570Y873D01*
X600Y873D02*
X610Y873D01*
X633Y873D02*
X642Y873D01*
X672Y873D02*
X682Y873D01*
X716Y873D02*
X725Y873D01*
X735Y873D02*
X744Y873D01*
X818Y873D02*
X827Y873D01*
X850Y873D02*
X859Y873D01*
X922Y873D02*
X931Y873D01*
X3063Y873D02*
X3070Y873D01*
X0Y872D02*
X7Y872D01*
X489Y872D02*
X498Y872D01*
X561Y872D02*
X571Y872D01*
X601Y872D02*
X610Y872D01*
X633Y872D02*
X642Y872D01*
X672Y872D02*
X682Y872D01*
X716Y872D02*
X725Y872D01*
X735Y872D02*
X744Y872D01*
X818Y872D02*
X827Y872D01*
X850Y872D02*
X859Y872D01*
X922Y872D02*
X931Y872D01*
X3063Y872D02*
X3070Y872D01*
X0Y871D02*
X7Y871D01*
X489Y871D02*
X498Y871D01*
X561Y871D02*
X572Y871D01*
X601Y871D02*
X610Y871D01*
X633Y871D02*
X642Y871D01*
X673Y871D02*
X682Y871D01*
X716Y871D02*
X725Y871D01*
X735Y871D02*
X744Y871D01*
X818Y871D02*
X827Y871D01*
X850Y871D02*
X859Y871D01*
X922Y871D02*
X931Y871D01*
X3063Y871D02*
X3070Y871D01*
X0Y870D02*
X7Y870D01*
X489Y870D02*
X498Y870D01*
X562Y870D02*
X572Y870D01*
X601Y870D02*
X609Y870D01*
X633Y870D02*
X642Y870D01*
X673Y870D02*
X682Y870D01*
X716Y870D02*
X725Y870D01*
X735Y870D02*
X744Y870D01*
X818Y870D02*
X827Y870D01*
X850Y870D02*
X859Y870D01*
X922Y870D02*
X931Y870D01*
X3063Y870D02*
X3070Y870D01*
X0Y869D02*
X7Y869D01*
X489Y869D02*
X498Y869D01*
X562Y869D02*
X573Y869D01*
X601Y869D02*
X609Y869D01*
X633Y869D02*
X642Y869D01*
X673Y869D02*
X682Y869D01*
X716Y869D02*
X725Y869D01*
X735Y869D02*
X744Y869D01*
X818Y869D02*
X827Y869D01*
X850Y869D02*
X859Y869D01*
X922Y869D02*
X931Y869D01*
X3063Y869D02*
X3070Y869D01*
X0Y868D02*
X7Y868D01*
X489Y868D02*
X498Y868D01*
X562Y868D02*
X574Y868D01*
X602Y868D02*
X608Y868D01*
X633Y868D02*
X642Y868D01*
X673Y868D02*
X682Y868D01*
X716Y868D02*
X725Y868D01*
X735Y868D02*
X744Y868D01*
X818Y868D02*
X827Y868D01*
X850Y868D02*
X859Y868D01*
X922Y868D02*
X931Y868D01*
X3063Y868D02*
X3070Y868D01*
X0Y867D02*
X7Y867D01*
X489Y867D02*
X498Y867D01*
X563Y867D02*
X575Y867D01*
X603Y867D02*
X607Y867D01*
X633Y867D02*
X642Y867D01*
X673Y867D02*
X682Y867D01*
X716Y867D02*
X725Y867D01*
X735Y867D02*
X744Y867D01*
X818Y867D02*
X827Y867D01*
X850Y867D02*
X859Y867D01*
X922Y867D02*
X931Y867D01*
X3063Y867D02*
X3070Y867D01*
X0Y866D02*
X7Y866D01*
X489Y866D02*
X498Y866D01*
X564Y866D02*
X576Y866D01*
X633Y866D02*
X642Y866D01*
X673Y866D02*
X682Y866D01*
X716Y866D02*
X725Y866D01*
X735Y866D02*
X744Y866D01*
X818Y866D02*
X827Y866D01*
X850Y866D02*
X859Y866D01*
X922Y866D02*
X931Y866D01*
X3063Y866D02*
X3070Y866D01*
X0Y865D02*
X7Y865D01*
X489Y865D02*
X498Y865D01*
X564Y865D02*
X576Y865D01*
X633Y865D02*
X642Y865D01*
X673Y865D02*
X682Y865D01*
X716Y865D02*
X725Y865D01*
X735Y865D02*
X744Y865D01*
X818Y865D02*
X827Y865D01*
X850Y865D02*
X859Y865D01*
X922Y865D02*
X931Y865D01*
X3063Y865D02*
X3070Y865D01*
X0Y864D02*
X7Y864D01*
X489Y864D02*
X498Y864D01*
X565Y864D02*
X577Y864D01*
X633Y864D02*
X642Y864D01*
X673Y864D02*
X682Y864D01*
X716Y864D02*
X725Y864D01*
X735Y864D02*
X744Y864D01*
X818Y864D02*
X827Y864D01*
X850Y864D02*
X859Y864D01*
X922Y864D02*
X931Y864D01*
X3063Y864D02*
X3070Y864D01*
X0Y863D02*
X7Y863D01*
X489Y863D02*
X498Y863D01*
X566Y863D02*
X578Y863D01*
X633Y863D02*
X642Y863D01*
X673Y863D02*
X682Y863D01*
X716Y863D02*
X725Y863D01*
X735Y863D02*
X744Y863D01*
X818Y863D02*
X827Y863D01*
X850Y863D02*
X859Y863D01*
X922Y863D02*
X931Y863D01*
X3063Y863D02*
X3070Y863D01*
X0Y862D02*
X7Y862D01*
X489Y862D02*
X498Y862D01*
X567Y862D02*
X579Y862D01*
X633Y862D02*
X642Y862D01*
X673Y862D02*
X682Y862D01*
X716Y862D02*
X725Y862D01*
X735Y862D02*
X744Y862D01*
X818Y862D02*
X827Y862D01*
X850Y862D02*
X859Y862D01*
X922Y862D02*
X931Y862D01*
X3063Y862D02*
X3070Y862D01*
X0Y861D02*
X7Y861D01*
X489Y861D02*
X498Y861D01*
X568Y861D02*
X579Y861D01*
X633Y861D02*
X642Y861D01*
X673Y861D02*
X682Y861D01*
X716Y861D02*
X725Y861D01*
X735Y861D02*
X744Y861D01*
X818Y861D02*
X827Y861D01*
X850Y861D02*
X859Y861D01*
X922Y861D02*
X931Y861D01*
X3063Y861D02*
X3070Y861D01*
X0Y860D02*
X7Y860D01*
X489Y860D02*
X498Y860D01*
X568Y860D02*
X580Y860D01*
X633Y860D02*
X642Y860D01*
X673Y860D02*
X682Y860D01*
X716Y860D02*
X725Y860D01*
X735Y860D02*
X744Y860D01*
X818Y860D02*
X827Y860D01*
X850Y860D02*
X859Y860D01*
X922Y860D02*
X931Y860D01*
X3063Y860D02*
X3070Y860D01*
X0Y859D02*
X7Y859D01*
X489Y859D02*
X498Y859D01*
X569Y859D02*
X581Y859D01*
X633Y859D02*
X642Y859D01*
X673Y859D02*
X682Y859D01*
X716Y859D02*
X725Y859D01*
X735Y859D02*
X744Y859D01*
X818Y859D02*
X827Y859D01*
X850Y859D02*
X859Y859D01*
X922Y859D02*
X931Y859D01*
X3063Y859D02*
X3070Y859D01*
X0Y858D02*
X7Y858D01*
X489Y858D02*
X498Y858D01*
X570Y858D02*
X582Y858D01*
X633Y858D02*
X642Y858D01*
X673Y858D02*
X682Y858D01*
X716Y858D02*
X725Y858D01*
X735Y858D02*
X744Y858D01*
X818Y858D02*
X827Y858D01*
X850Y858D02*
X859Y858D01*
X922Y858D02*
X931Y858D01*
X3063Y858D02*
X3070Y858D01*
X0Y857D02*
X7Y857D01*
X489Y857D02*
X498Y857D01*
X571Y857D02*
X583Y857D01*
X633Y857D02*
X642Y857D01*
X673Y857D02*
X682Y857D01*
X716Y857D02*
X725Y857D01*
X735Y857D02*
X744Y857D01*
X818Y857D02*
X827Y857D01*
X850Y857D02*
X859Y857D01*
X922Y857D02*
X931Y857D01*
X3063Y857D02*
X3070Y857D01*
X0Y856D02*
X7Y856D01*
X489Y856D02*
X498Y856D01*
X571Y856D02*
X583Y856D01*
X633Y856D02*
X642Y856D01*
X673Y856D02*
X682Y856D01*
X716Y856D02*
X725Y856D01*
X735Y856D02*
X744Y856D01*
X818Y856D02*
X827Y856D01*
X850Y856D02*
X859Y856D01*
X922Y856D02*
X931Y856D01*
X3063Y856D02*
X3070Y856D01*
X0Y855D02*
X7Y855D01*
X489Y855D02*
X498Y855D01*
X572Y855D02*
X584Y855D01*
X633Y855D02*
X642Y855D01*
X673Y855D02*
X682Y855D01*
X716Y855D02*
X725Y855D01*
X735Y855D02*
X744Y855D01*
X818Y855D02*
X827Y855D01*
X850Y855D02*
X859Y855D01*
X922Y855D02*
X931Y855D01*
X3063Y855D02*
X3070Y855D01*
X0Y854D02*
X7Y854D01*
X489Y854D02*
X498Y854D01*
X573Y854D02*
X585Y854D01*
X633Y854D02*
X642Y854D01*
X673Y854D02*
X682Y854D01*
X716Y854D02*
X725Y854D01*
X735Y854D02*
X744Y854D01*
X818Y854D02*
X827Y854D01*
X850Y854D02*
X859Y854D01*
X922Y854D02*
X931Y854D01*
X3063Y854D02*
X3070Y854D01*
X0Y853D02*
X7Y853D01*
X489Y853D02*
X498Y853D01*
X574Y853D02*
X586Y853D01*
X633Y853D02*
X642Y853D01*
X673Y853D02*
X682Y853D01*
X716Y853D02*
X725Y853D01*
X735Y853D02*
X744Y853D01*
X818Y853D02*
X827Y853D01*
X850Y853D02*
X859Y853D01*
X922Y853D02*
X931Y853D01*
X3063Y853D02*
X3070Y853D01*
X0Y852D02*
X7Y852D01*
X489Y852D02*
X498Y852D01*
X575Y852D02*
X587Y852D01*
X633Y852D02*
X642Y852D01*
X673Y852D02*
X682Y852D01*
X716Y852D02*
X725Y852D01*
X735Y852D02*
X744Y852D01*
X818Y852D02*
X827Y852D01*
X850Y852D02*
X859Y852D01*
X922Y852D02*
X931Y852D01*
X3063Y852D02*
X3070Y852D01*
X0Y851D02*
X7Y851D01*
X489Y851D02*
X513Y851D01*
X575Y851D02*
X587Y851D01*
X633Y851D02*
X642Y851D01*
X673Y851D02*
X682Y851D01*
X715Y851D02*
X745Y851D01*
X817Y851D02*
X827Y851D01*
X850Y851D02*
X859Y851D01*
X922Y851D02*
X931Y851D01*
X3063Y851D02*
X3070Y851D01*
X0Y850D02*
X7Y850D01*
X489Y850D02*
X515Y850D01*
X576Y850D02*
X588Y850D01*
X633Y850D02*
X642Y850D01*
X673Y850D02*
X682Y850D01*
X711Y850D02*
X748Y850D01*
X784Y850D02*
X827Y850D01*
X850Y850D02*
X859Y850D01*
X922Y850D02*
X931Y850D01*
X3063Y850D02*
X3070Y850D01*
X0Y849D02*
X7Y849D01*
X489Y849D02*
X516Y849D01*
X577Y849D02*
X589Y849D01*
X633Y849D02*
X642Y849D01*
X672Y849D02*
X682Y849D01*
X710Y849D02*
X750Y849D01*
X782Y849D02*
X826Y849D01*
X850Y849D02*
X859Y849D01*
X922Y849D02*
X931Y849D01*
X3063Y849D02*
X3070Y849D01*
X0Y848D02*
X7Y848D01*
X489Y848D02*
X517Y848D01*
X578Y848D02*
X590Y848D01*
X633Y848D02*
X642Y848D01*
X671Y848D02*
X682Y848D01*
X709Y848D02*
X751Y848D01*
X781Y848D02*
X826Y848D01*
X850Y848D02*
X859Y848D01*
X922Y848D02*
X931Y848D01*
X3063Y848D02*
X3070Y848D01*
X0Y847D02*
X7Y847D01*
X489Y847D02*
X517Y847D01*
X578Y847D02*
X590Y847D01*
X633Y847D02*
X642Y847D01*
X669Y847D02*
X681Y847D01*
X708Y847D02*
X752Y847D01*
X780Y847D02*
X826Y847D01*
X850Y847D02*
X859Y847D01*
X922Y847D02*
X931Y847D01*
X3063Y847D02*
X3070Y847D01*
X0Y846D02*
X7Y846D01*
X489Y846D02*
X518Y846D01*
X579Y846D02*
X591Y846D01*
X633Y846D02*
X681Y846D01*
X707Y846D02*
X753Y846D01*
X779Y846D02*
X825Y846D01*
X850Y846D02*
X859Y846D01*
X922Y846D02*
X931Y846D01*
X3063Y846D02*
X3070Y846D01*
X0Y845D02*
X7Y845D01*
X489Y845D02*
X517Y845D01*
X580Y845D02*
X592Y845D01*
X633Y845D02*
X680Y845D01*
X706Y845D02*
X753Y845D01*
X779Y845D02*
X825Y845D01*
X850Y845D02*
X859Y845D01*
X922Y845D02*
X931Y845D01*
X3063Y845D02*
X3070Y845D01*
X0Y844D02*
X7Y844D01*
X489Y844D02*
X517Y844D01*
X581Y844D02*
X593Y844D01*
X633Y844D02*
X680Y844D01*
X706Y844D02*
X754Y844D01*
X778Y844D02*
X824Y844D01*
X850Y844D02*
X859Y844D01*
X922Y844D02*
X931Y844D01*
X3063Y844D02*
X3070Y844D01*
X0Y843D02*
X7Y843D01*
X489Y843D02*
X517Y843D01*
X582Y843D02*
X594Y843D01*
X633Y843D02*
X679Y843D01*
X706Y843D02*
X754Y843D01*
X778Y843D02*
X823Y843D01*
X850Y843D02*
X859Y843D01*
X922Y843D02*
X931Y843D01*
X3063Y843D02*
X3070Y843D01*
X0Y842D02*
X7Y842D01*
X489Y842D02*
X516Y842D01*
X582Y842D02*
X594Y842D01*
X633Y842D02*
X678Y842D01*
X706Y842D02*
X754Y842D01*
X778Y842D02*
X821Y842D01*
X850Y842D02*
X896Y842D01*
X922Y842D02*
X968Y842D01*
X3063Y842D02*
X3070Y842D01*
X0Y841D02*
X7Y841D01*
X489Y841D02*
X513Y841D01*
X583Y841D02*
X595Y841D01*
X633Y841D02*
X677Y841D01*
X706Y841D02*
X754Y841D01*
X778Y841D02*
X817Y841D01*
X850Y841D02*
X897Y841D01*
X922Y841D02*
X970Y841D01*
X3063Y841D02*
X3070Y841D01*
X0Y840D02*
X7Y840D01*
X489Y840D02*
X498Y840D01*
X584Y840D02*
X596Y840D01*
X633Y840D02*
X676Y840D01*
X706Y840D02*
X715Y840D01*
X745Y840D02*
X754Y840D01*
X778Y840D02*
X787Y840D01*
X850Y840D02*
X898Y840D01*
X922Y840D02*
X970Y840D01*
X3063Y840D02*
X3070Y840D01*
X0Y839D02*
X7Y839D01*
X489Y839D02*
X498Y839D01*
X585Y839D02*
X597Y839D01*
X633Y839D02*
X675Y839D01*
X706Y839D02*
X715Y839D01*
X745Y839D02*
X754Y839D01*
X778Y839D02*
X787Y839D01*
X850Y839D02*
X899Y839D01*
X922Y839D02*
X971Y839D01*
X3063Y839D02*
X3070Y839D01*
X0Y838D02*
X7Y838D01*
X489Y838D02*
X498Y838D01*
X585Y838D02*
X597Y838D01*
X633Y838D02*
X673Y838D01*
X706Y838D02*
X715Y838D01*
X745Y838D02*
X754Y838D01*
X778Y838D02*
X787Y838D01*
X850Y838D02*
X899Y838D01*
X922Y838D02*
X971Y838D01*
X3063Y838D02*
X3070Y838D01*
X0Y837D02*
X7Y837D01*
X489Y837D02*
X498Y837D01*
X586Y837D02*
X598Y837D01*
X633Y837D02*
X670Y837D01*
X706Y837D02*
X715Y837D01*
X745Y837D02*
X754Y837D01*
X778Y837D02*
X787Y837D01*
X850Y837D02*
X899Y837D01*
X922Y837D02*
X971Y837D01*
X3063Y837D02*
X3070Y837D01*
X0Y836D02*
X7Y836D01*
X489Y836D02*
X498Y836D01*
X587Y836D02*
X599Y836D01*
X633Y836D02*
X642Y836D01*
X706Y836D02*
X715Y836D01*
X745Y836D02*
X754Y836D01*
X778Y836D02*
X787Y836D01*
X850Y836D02*
X899Y836D01*
X922Y836D02*
X971Y836D01*
X3063Y836D02*
X3070Y836D01*
X0Y835D02*
X7Y835D01*
X489Y835D02*
X498Y835D01*
X588Y835D02*
X600Y835D01*
X633Y835D02*
X642Y835D01*
X706Y835D02*
X715Y835D01*
X745Y835D02*
X754Y835D01*
X778Y835D02*
X787Y835D01*
X850Y835D02*
X899Y835D01*
X922Y835D02*
X971Y835D01*
X3063Y835D02*
X3070Y835D01*
X0Y834D02*
X7Y834D01*
X489Y834D02*
X498Y834D01*
X588Y834D02*
X601Y834D01*
X633Y834D02*
X642Y834D01*
X706Y834D02*
X715Y834D01*
X745Y834D02*
X754Y834D01*
X778Y834D02*
X787Y834D01*
X850Y834D02*
X899Y834D01*
X922Y834D02*
X971Y834D01*
X3063Y834D02*
X3070Y834D01*
X0Y833D02*
X7Y833D01*
X489Y833D02*
X498Y833D01*
X589Y833D02*
X601Y833D01*
X633Y833D02*
X642Y833D01*
X706Y833D02*
X715Y833D01*
X745Y833D02*
X754Y833D01*
X778Y833D02*
X787Y833D01*
X850Y833D02*
X899Y833D01*
X922Y833D02*
X971Y833D01*
X3063Y833D02*
X3070Y833D01*
X0Y832D02*
X7Y832D01*
X489Y832D02*
X498Y832D01*
X590Y832D02*
X602Y832D01*
X633Y832D02*
X642Y832D01*
X706Y832D02*
X715Y832D01*
X745Y832D02*
X754Y832D01*
X778Y832D02*
X787Y832D01*
X850Y832D02*
X859Y832D01*
X890Y832D02*
X899Y832D01*
X922Y832D02*
X931Y832D01*
X962Y832D02*
X971Y832D01*
X3063Y832D02*
X3070Y832D01*
X0Y831D02*
X7Y831D01*
X489Y831D02*
X498Y831D01*
X591Y831D02*
X603Y831D01*
X633Y831D02*
X642Y831D01*
X706Y831D02*
X715Y831D01*
X745Y831D02*
X754Y831D01*
X778Y831D02*
X787Y831D01*
X850Y831D02*
X859Y831D01*
X890Y831D02*
X899Y831D01*
X922Y831D02*
X931Y831D01*
X962Y831D02*
X971Y831D01*
X3063Y831D02*
X3070Y831D01*
X0Y830D02*
X7Y830D01*
X489Y830D02*
X498Y830D01*
X592Y830D02*
X604Y830D01*
X633Y830D02*
X642Y830D01*
X706Y830D02*
X715Y830D01*
X745Y830D02*
X754Y830D01*
X778Y830D02*
X787Y830D01*
X850Y830D02*
X859Y830D01*
X890Y830D02*
X899Y830D01*
X922Y830D02*
X931Y830D01*
X962Y830D02*
X971Y830D01*
X3063Y830D02*
X3070Y830D01*
X0Y829D02*
X7Y829D01*
X489Y829D02*
X498Y829D01*
X592Y829D02*
X604Y829D01*
X633Y829D02*
X642Y829D01*
X706Y829D02*
X715Y829D01*
X745Y829D02*
X754Y829D01*
X778Y829D02*
X787Y829D01*
X850Y829D02*
X859Y829D01*
X890Y829D02*
X899Y829D01*
X922Y829D02*
X931Y829D01*
X962Y829D02*
X971Y829D01*
X3063Y829D02*
X3070Y829D01*
X0Y828D02*
X7Y828D01*
X489Y828D02*
X498Y828D01*
X593Y828D02*
X605Y828D01*
X633Y828D02*
X642Y828D01*
X706Y828D02*
X715Y828D01*
X745Y828D02*
X754Y828D01*
X778Y828D02*
X787Y828D01*
X850Y828D02*
X859Y828D01*
X890Y828D02*
X899Y828D01*
X922Y828D02*
X931Y828D01*
X962Y828D02*
X971Y828D01*
X3063Y828D02*
X3070Y828D01*
X0Y827D02*
X7Y827D01*
X489Y827D02*
X498Y827D01*
X594Y827D02*
X606Y827D01*
X633Y827D02*
X642Y827D01*
X706Y827D02*
X715Y827D01*
X745Y827D02*
X754Y827D01*
X778Y827D02*
X787Y827D01*
X850Y827D02*
X859Y827D01*
X890Y827D02*
X899Y827D01*
X922Y827D02*
X931Y827D01*
X962Y827D02*
X971Y827D01*
X3063Y827D02*
X3070Y827D01*
X0Y826D02*
X7Y826D01*
X489Y826D02*
X498Y826D01*
X595Y826D02*
X607Y826D01*
X633Y826D02*
X642Y826D01*
X706Y826D02*
X715Y826D01*
X745Y826D02*
X754Y826D01*
X778Y826D02*
X787Y826D01*
X850Y826D02*
X859Y826D01*
X890Y826D02*
X899Y826D01*
X922Y826D02*
X931Y826D01*
X962Y826D02*
X971Y826D01*
X3063Y826D02*
X3070Y826D01*
X0Y825D02*
X7Y825D01*
X489Y825D02*
X498Y825D01*
X564Y825D02*
X567Y825D01*
X595Y825D02*
X608Y825D01*
X633Y825D02*
X642Y825D01*
X706Y825D02*
X715Y825D01*
X745Y825D02*
X754Y825D01*
X778Y825D02*
X787Y825D01*
X850Y825D02*
X859Y825D01*
X890Y825D02*
X899Y825D01*
X922Y825D02*
X931Y825D01*
X962Y825D02*
X971Y825D01*
X3063Y825D02*
X3070Y825D01*
X0Y824D02*
X7Y824D01*
X489Y824D02*
X498Y824D01*
X562Y824D02*
X569Y824D01*
X596Y824D02*
X608Y824D01*
X633Y824D02*
X642Y824D01*
X706Y824D02*
X715Y824D01*
X745Y824D02*
X754Y824D01*
X778Y824D02*
X787Y824D01*
X850Y824D02*
X859Y824D01*
X890Y824D02*
X899Y824D01*
X922Y824D02*
X931Y824D01*
X962Y824D02*
X971Y824D01*
X3063Y824D02*
X3070Y824D01*
X0Y823D02*
X7Y823D01*
X489Y823D02*
X498Y823D01*
X562Y823D02*
X569Y823D01*
X597Y823D02*
X609Y823D01*
X633Y823D02*
X642Y823D01*
X706Y823D02*
X715Y823D01*
X745Y823D02*
X754Y823D01*
X778Y823D02*
X787Y823D01*
X850Y823D02*
X859Y823D01*
X890Y823D02*
X899Y823D01*
X922Y823D02*
X931Y823D01*
X962Y823D02*
X971Y823D01*
X3063Y823D02*
X3070Y823D01*
X0Y822D02*
X7Y822D01*
X489Y822D02*
X498Y822D01*
X561Y822D02*
X570Y822D01*
X598Y822D02*
X609Y822D01*
X633Y822D02*
X642Y822D01*
X706Y822D02*
X715Y822D01*
X745Y822D02*
X754Y822D01*
X778Y822D02*
X787Y822D01*
X850Y822D02*
X859Y822D01*
X890Y822D02*
X899Y822D01*
X922Y822D02*
X931Y822D01*
X962Y822D02*
X971Y822D01*
X3063Y822D02*
X3070Y822D01*
X0Y821D02*
X7Y821D01*
X489Y821D02*
X498Y821D01*
X561Y821D02*
X570Y821D01*
X599Y821D02*
X609Y821D01*
X633Y821D02*
X642Y821D01*
X706Y821D02*
X715Y821D01*
X745Y821D02*
X754Y821D01*
X778Y821D02*
X787Y821D01*
X850Y821D02*
X859Y821D01*
X890Y821D02*
X899Y821D01*
X922Y821D02*
X931Y821D01*
X962Y821D02*
X971Y821D01*
X3063Y821D02*
X3070Y821D01*
X0Y820D02*
X7Y820D01*
X489Y820D02*
X498Y820D01*
X561Y820D02*
X570Y820D01*
X599Y820D02*
X610Y820D01*
X633Y820D02*
X642Y820D01*
X706Y820D02*
X715Y820D01*
X745Y820D02*
X754Y820D01*
X778Y820D02*
X787Y820D01*
X850Y820D02*
X859Y820D01*
X890Y820D02*
X899Y820D01*
X922Y820D02*
X931Y820D01*
X962Y820D02*
X971Y820D01*
X3063Y820D02*
X3070Y820D01*
X0Y819D02*
X7Y819D01*
X489Y819D02*
X498Y819D01*
X561Y819D02*
X570Y819D01*
X600Y819D02*
X610Y819D01*
X633Y819D02*
X642Y819D01*
X706Y819D02*
X715Y819D01*
X745Y819D02*
X754Y819D01*
X778Y819D02*
X787Y819D01*
X850Y819D02*
X859Y819D01*
X890Y819D02*
X899Y819D01*
X922Y819D02*
X931Y819D01*
X962Y819D02*
X971Y819D01*
X3063Y819D02*
X3070Y819D01*
X0Y818D02*
X7Y818D01*
X489Y818D02*
X498Y818D01*
X561Y818D02*
X571Y818D01*
X601Y818D02*
X610Y818D01*
X633Y818D02*
X642Y818D01*
X706Y818D02*
X715Y818D01*
X745Y818D02*
X754Y818D01*
X778Y818D02*
X787Y818D01*
X850Y818D02*
X859Y818D01*
X890Y818D02*
X899Y818D01*
X922Y818D02*
X931Y818D01*
X962Y818D02*
X971Y818D01*
X3063Y818D02*
X3070Y818D01*
X0Y817D02*
X7Y817D01*
X489Y817D02*
X533Y817D01*
X561Y817D02*
X610Y817D01*
X633Y817D02*
X642Y817D01*
X706Y817D02*
X754Y817D01*
X778Y817D02*
X822Y817D01*
X850Y817D02*
X899Y817D01*
X922Y817D02*
X971Y817D01*
X3063Y817D02*
X3070Y817D01*
X0Y816D02*
X7Y816D01*
X489Y816D02*
X535Y816D01*
X562Y816D02*
X609Y816D01*
X633Y816D02*
X642Y816D01*
X706Y816D02*
X754Y816D01*
X778Y816D02*
X824Y816D01*
X850Y816D02*
X899Y816D01*
X922Y816D02*
X971Y816D01*
X3063Y816D02*
X3070Y816D01*
X0Y815D02*
X7Y815D01*
X489Y815D02*
X536Y815D01*
X562Y815D02*
X609Y815D01*
X633Y815D02*
X642Y815D01*
X706Y815D02*
X754Y815D01*
X778Y815D02*
X825Y815D01*
X850Y815D02*
X899Y815D01*
X922Y815D02*
X971Y815D01*
X3063Y815D02*
X3070Y815D01*
X0Y814D02*
X7Y814D01*
X489Y814D02*
X537Y814D01*
X563Y814D02*
X609Y814D01*
X633Y814D02*
X642Y814D01*
X706Y814D02*
X754Y814D01*
X778Y814D02*
X826Y814D01*
X850Y814D02*
X899Y814D01*
X922Y814D02*
X971Y814D01*
X3063Y814D02*
X3070Y814D01*
X0Y813D02*
X7Y813D01*
X489Y813D02*
X537Y813D01*
X563Y813D02*
X608Y813D01*
X633Y813D02*
X642Y813D01*
X706Y813D02*
X753Y813D01*
X778Y813D02*
X826Y813D01*
X850Y813D02*
X899Y813D01*
X922Y813D02*
X971Y813D01*
X3063Y813D02*
X3070Y813D01*
X0Y812D02*
X7Y812D01*
X489Y812D02*
X537Y812D01*
X564Y812D02*
X608Y812D01*
X633Y812D02*
X642Y812D01*
X707Y812D02*
X753Y812D01*
X778Y812D02*
X827Y812D01*
X850Y812D02*
X899Y812D01*
X922Y812D02*
X971Y812D01*
X3063Y812D02*
X3070Y812D01*
X0Y811D02*
X7Y811D01*
X489Y811D02*
X537Y811D01*
X565Y811D02*
X607Y811D01*
X633Y811D02*
X642Y811D01*
X708Y811D02*
X752Y811D01*
X778Y811D02*
X826Y811D01*
X850Y811D02*
X899Y811D01*
X923Y811D02*
X971Y811D01*
X3063Y811D02*
X3070Y811D01*
X0Y810D02*
X7Y810D01*
X489Y810D02*
X537Y810D01*
X566Y810D02*
X606Y810D01*
X634Y810D02*
X642Y810D01*
X708Y810D02*
X751Y810D01*
X778Y810D02*
X826Y810D01*
X851Y810D02*
X898Y810D01*
X923Y810D02*
X971Y810D01*
X3063Y810D02*
X3070Y810D01*
X0Y809D02*
X7Y809D01*
X489Y809D02*
X536Y809D01*
X567Y809D02*
X605Y809D01*
X634Y809D02*
X641Y809D01*
X710Y809D02*
X750Y809D01*
X778Y809D02*
X825Y809D01*
X851Y809D02*
X898Y809D01*
X923Y809D02*
X970Y809D01*
X3063Y809D02*
X3070Y809D01*
X0Y808D02*
X7Y808D01*
X489Y808D02*
X535Y808D01*
X569Y808D02*
X603Y808D01*
X635Y808D02*
X640Y808D01*
X711Y808D02*
X749Y808D01*
X778Y808D02*
X824Y808D01*
X852Y808D02*
X897Y808D01*
X924Y808D02*
X969Y808D01*
X3063Y808D02*
X3070Y808D01*
X0Y807D02*
X7Y807D01*
X489Y807D02*
X533Y807D01*
X574Y807D02*
X599Y807D01*
X715Y807D02*
X745Y807D01*
X778Y807D02*
X822Y807D01*
X855Y807D02*
X894Y807D01*
X927Y807D02*
X966Y807D01*
X3063Y807D02*
X3070Y807D01*
X0Y806D02*
X7Y806D01*
X3063Y806D02*
X3070Y806D01*
X0Y805D02*
X7Y805D01*
X3063Y805D02*
X3070Y805D01*
X0Y804D02*
X7Y804D01*
X3063Y804D02*
X3070Y804D01*
X0Y803D02*
X7Y803D01*
X3063Y803D02*
X3070Y803D01*
X0Y802D02*
X7Y802D01*
X3063Y802D02*
X3070Y802D01*
X0Y801D02*
X7Y801D01*
X3063Y801D02*
X3070Y801D01*
X0Y800D02*
X7Y800D01*
X3063Y800D02*
X3070Y800D01*
X0Y799D02*
X7Y799D01*
X3063Y799D02*
X3070Y799D01*
X0Y798D02*
X7Y798D01*
X3063Y798D02*
X3070Y798D01*
X0Y797D02*
X7Y797D01*
X3063Y797D02*
X3070Y797D01*
X0Y796D02*
X7Y796D01*
X3063Y796D02*
X3070Y796D01*
X0Y795D02*
X7Y795D01*
X3063Y795D02*
X3070Y795D01*
X0Y794D02*
X7Y794D01*
X3063Y794D02*
X3070Y794D01*
X0Y793D02*
X7Y793D01*
X3063Y793D02*
X3070Y793D01*
X0Y792D02*
X7Y792D01*
X3063Y792D02*
X3070Y792D01*
X0Y791D02*
X7Y791D01*
X3063Y791D02*
X3070Y791D01*
X0Y790D02*
X7Y790D01*
X3063Y790D02*
X3070Y790D01*
X0Y789D02*
X7Y789D01*
X3063Y789D02*
X3070Y789D01*
X0Y788D02*
X7Y788D01*
X3063Y788D02*
X3070Y788D01*
X0Y787D02*
X7Y787D01*
X3063Y787D02*
X3070Y787D01*
X0Y786D02*
X7Y786D01*
X3063Y786D02*
X3070Y786D01*
X0Y785D02*
X7Y785D01*
X3063Y785D02*
X3070Y785D01*
X0Y784D02*
X7Y784D01*
X3063Y784D02*
X3070Y784D01*
X0Y783D02*
X7Y783D01*
X3063Y783D02*
X3070Y783D01*
X0Y782D02*
X7Y782D01*
X3063Y782D02*
X3070Y782D01*
X0Y781D02*
X7Y781D01*
X3063Y781D02*
X3070Y781D01*
X0Y780D02*
X7Y780D01*
X3063Y780D02*
X3070Y780D01*
X0Y779D02*
X7Y779D01*
X3063Y779D02*
X3070Y779D01*
X0Y778D02*
X7Y778D01*
X3063Y778D02*
X3070Y778D01*
X0Y777D02*
X7Y777D01*
X3063Y777D02*
X3070Y777D01*
X0Y776D02*
X7Y776D01*
X3063Y776D02*
X3070Y776D01*
X0Y775D02*
X7Y775D01*
X3063Y775D02*
X3070Y775D01*
X0Y774D02*
X7Y774D01*
X3063Y774D02*
X3070Y774D01*
X0Y773D02*
X7Y773D01*
X3063Y773D02*
X3070Y773D01*
X0Y772D02*
X7Y772D01*
X3063Y772D02*
X3070Y772D01*
X0Y771D02*
X7Y771D01*
X3063Y771D02*
X3070Y771D01*
X0Y770D02*
X7Y770D01*
X3063Y770D02*
X3070Y770D01*
X0Y769D02*
X7Y769D01*
X3063Y769D02*
X3070Y769D01*
X0Y768D02*
X7Y768D01*
X3063Y768D02*
X3070Y768D01*
X0Y767D02*
X7Y767D01*
X3063Y767D02*
X3070Y767D01*
X0Y766D02*
X7Y766D01*
X3063Y766D02*
X3070Y766D01*
X0Y765D02*
X7Y765D01*
X3063Y765D02*
X3070Y765D01*
X0Y764D02*
X7Y764D01*
X3063Y764D02*
X3070Y764D01*
X0Y763D02*
X7Y763D01*
X3063Y763D02*
X3070Y763D01*
X0Y762D02*
X7Y762D01*
X3063Y762D02*
X3070Y762D01*
X0Y761D02*
X7Y761D01*
X3063Y761D02*
X3070Y761D01*
X0Y760D02*
X7Y760D01*
X3063Y760D02*
X3070Y760D01*
X0Y759D02*
X7Y759D01*
X3063Y759D02*
X3070Y759D01*
X0Y758D02*
X7Y758D01*
X3063Y758D02*
X3070Y758D01*
X0Y757D02*
X7Y757D01*
X3063Y757D02*
X3070Y757D01*
X0Y756D02*
X7Y756D01*
X3063Y756D02*
X3070Y756D01*
X0Y755D02*
X7Y755D01*
X3063Y755D02*
X3070Y755D01*
X0Y754D02*
X7Y754D01*
X3063Y754D02*
X3070Y754D01*
X0Y753D02*
X7Y753D01*
X3063Y753D02*
X3070Y753D01*
X0Y752D02*
X7Y752D01*
X3063Y752D02*
X3070Y752D01*
X0Y751D02*
X7Y751D01*
X3063Y751D02*
X3070Y751D01*
X0Y750D02*
X7Y750D01*
X3063Y750D02*
X3070Y750D01*
X0Y749D02*
X7Y749D01*
X3063Y749D02*
X3070Y749D01*
X0Y748D02*
X7Y748D01*
X3063Y748D02*
X3070Y748D01*
X0Y747D02*
X7Y747D01*
X3063Y747D02*
X3070Y747D01*
X0Y746D02*
X7Y746D01*
X3063Y746D02*
X3070Y746D01*
X0Y745D02*
X7Y745D01*
X3063Y745D02*
X3070Y745D01*
X0Y744D02*
X7Y744D01*
X3063Y744D02*
X3070Y744D01*
X0Y743D02*
X7Y743D01*
X3063Y743D02*
X3070Y743D01*
X0Y742D02*
X7Y742D01*
X3063Y742D02*
X3070Y742D01*
X0Y741D02*
X7Y741D01*
X3063Y741D02*
X3070Y741D01*
X0Y740D02*
X7Y740D01*
X3063Y740D02*
X3070Y740D01*
X0Y739D02*
X7Y739D01*
X3063Y739D02*
X3070Y739D01*
X0Y738D02*
X7Y738D01*
X3063Y738D02*
X3070Y738D01*
X0Y737D02*
X7Y737D01*
X3063Y737D02*
X3070Y737D01*
X0Y736D02*
X7Y736D01*
X3063Y736D02*
X3070Y736D01*
X0Y735D02*
X7Y735D01*
X3063Y735D02*
X3070Y735D01*
X0Y734D02*
X7Y734D01*
X3063Y734D02*
X3070Y734D01*
X0Y733D02*
X7Y733D01*
X3063Y733D02*
X3070Y733D01*
X0Y732D02*
X7Y732D01*
X3063Y732D02*
X3070Y732D01*
X0Y731D02*
X7Y731D01*
X3063Y731D02*
X3070Y731D01*
X0Y730D02*
X7Y730D01*
X3063Y730D02*
X3070Y730D01*
X0Y729D02*
X7Y729D01*
X3063Y729D02*
X3070Y729D01*
X0Y728D02*
X7Y728D01*
X3063Y728D02*
X3070Y728D01*
X0Y727D02*
X7Y727D01*
X3063Y727D02*
X3070Y727D01*
X0Y726D02*
X7Y726D01*
X3063Y726D02*
X3070Y726D01*
X0Y725D02*
X7Y725D01*
X3063Y725D02*
X3070Y725D01*
X0Y724D02*
X7Y724D01*
X3063Y724D02*
X3070Y724D01*
X0Y723D02*
X7Y723D01*
X3063Y723D02*
X3070Y723D01*
X0Y722D02*
X7Y722D01*
X3063Y722D02*
X3070Y722D01*
X0Y721D02*
X7Y721D01*
X3063Y721D02*
X3070Y721D01*
X0Y720D02*
X7Y720D01*
X3063Y720D02*
X3070Y720D01*
X0Y719D02*
X7Y719D01*
X3063Y719D02*
X3070Y719D01*
X0Y718D02*
X7Y718D01*
X3063Y718D02*
X3070Y718D01*
X0Y717D02*
X7Y717D01*
X3063Y717D02*
X3070Y717D01*
X0Y716D02*
X7Y716D01*
X3063Y716D02*
X3070Y716D01*
X0Y715D02*
X7Y715D01*
X3063Y715D02*
X3070Y715D01*
X0Y714D02*
X7Y714D01*
X3063Y714D02*
X3070Y714D01*
X0Y713D02*
X7Y713D01*
X3063Y713D02*
X3070Y713D01*
X0Y712D02*
X7Y712D01*
X3063Y712D02*
X3070Y712D01*
X0Y711D02*
X7Y711D01*
X3063Y711D02*
X3070Y711D01*
X0Y710D02*
X7Y710D01*
X3063Y710D02*
X3070Y710D01*
X0Y709D02*
X7Y709D01*
X3063Y709D02*
X3070Y709D01*
X0Y708D02*
X7Y708D01*
X3063Y708D02*
X3070Y708D01*
X0Y707D02*
X7Y707D01*
X3063Y707D02*
X3070Y707D01*
X0Y706D02*
X7Y706D01*
X3063Y706D02*
X3070Y706D01*
X0Y705D02*
X7Y705D01*
X3063Y705D02*
X3070Y705D01*
X0Y704D02*
X7Y704D01*
X2370Y704D02*
X2564Y704D01*
X3063Y704D02*
X3070Y704D01*
X0Y703D02*
X7Y703D01*
X2370Y703D02*
X2564Y703D01*
X3063Y703D02*
X3070Y703D01*
X0Y702D02*
X7Y702D01*
X2370Y702D02*
X2564Y702D01*
X3063Y702D02*
X3070Y702D01*
X0Y701D02*
X7Y701D01*
X2370Y701D02*
X2564Y701D01*
X3063Y701D02*
X3070Y701D01*
X0Y700D02*
X7Y700D01*
X2370Y700D02*
X2564Y700D01*
X3063Y700D02*
X3070Y700D01*
X0Y699D02*
X7Y699D01*
X2365Y699D02*
X2567Y699D01*
X3063Y699D02*
X3070Y699D01*
X0Y698D02*
X7Y698D01*
X2365Y698D02*
X2567Y698D01*
X3063Y698D02*
X3070Y698D01*
X0Y697D02*
X7Y697D01*
X2365Y697D02*
X2567Y697D01*
X3063Y697D02*
X3070Y697D01*
X0Y696D02*
X7Y696D01*
X2365Y696D02*
X2567Y696D01*
X3063Y696D02*
X3070Y696D01*
X0Y695D02*
X7Y695D01*
X2365Y695D02*
X2567Y695D01*
X3063Y695D02*
X3070Y695D01*
X0Y694D02*
X7Y694D01*
X2365Y694D02*
X2374Y694D01*
X2560Y694D02*
X2567Y694D01*
X3063Y694D02*
X3070Y694D01*
X0Y693D02*
X7Y693D01*
X2365Y693D02*
X2374Y693D01*
X2560Y693D02*
X2567Y693D01*
X3063Y693D02*
X3070Y693D01*
X0Y692D02*
X7Y692D01*
X2365Y692D02*
X2374Y692D01*
X2560Y692D02*
X2567Y692D01*
X3063Y692D02*
X3070Y692D01*
X0Y691D02*
X7Y691D01*
X2365Y691D02*
X2374Y691D01*
X2560Y691D02*
X2567Y691D01*
X3063Y691D02*
X3070Y691D01*
X0Y690D02*
X7Y690D01*
X2365Y690D02*
X2374Y690D01*
X2560Y690D02*
X2567Y690D01*
X3063Y690D02*
X3070Y690D01*
X0Y689D02*
X7Y689D01*
X2365Y689D02*
X2374Y689D01*
X2560Y689D02*
X2567Y689D01*
X3063Y689D02*
X3070Y689D01*
X0Y688D02*
X7Y688D01*
X2365Y688D02*
X2374Y688D01*
X2560Y688D02*
X2567Y688D01*
X3063Y688D02*
X3070Y688D01*
X0Y687D02*
X7Y687D01*
X2365Y687D02*
X2374Y687D01*
X2560Y687D02*
X2567Y687D01*
X3063Y687D02*
X3070Y687D01*
X0Y686D02*
X7Y686D01*
X2365Y686D02*
X2374Y686D01*
X2560Y686D02*
X2567Y686D01*
X3063Y686D02*
X3070Y686D01*
X0Y685D02*
X7Y685D01*
X2365Y685D02*
X2374Y685D01*
X2560Y685D02*
X2567Y685D01*
X3063Y685D02*
X3070Y685D01*
X0Y684D02*
X7Y684D01*
X2365Y684D02*
X2374Y684D01*
X2560Y684D02*
X2567Y684D01*
X3063Y684D02*
X3070Y684D01*
X0Y683D02*
X7Y683D01*
X2365Y683D02*
X2374Y683D01*
X2403Y683D02*
X2429Y683D01*
X2459Y683D02*
X2480Y683D01*
X2504Y683D02*
X2537Y683D01*
X2560Y683D02*
X2567Y683D01*
X3063Y683D02*
X3070Y683D01*
X0Y682D02*
X7Y682D01*
X2365Y682D02*
X2374Y682D01*
X2403Y682D02*
X2431Y682D01*
X2457Y682D02*
X2482Y682D01*
X2504Y682D02*
X2537Y682D01*
X2560Y682D02*
X2567Y682D01*
X3063Y682D02*
X3070Y682D01*
X0Y681D02*
X7Y681D01*
X2365Y681D02*
X2374Y681D01*
X2403Y681D02*
X2433Y681D01*
X2456Y681D02*
X2484Y681D01*
X2504Y681D02*
X2537Y681D01*
X2560Y681D02*
X2567Y681D01*
X3063Y681D02*
X3070Y681D01*
X0Y680D02*
X7Y680D01*
X2365Y680D02*
X2374Y680D01*
X2403Y680D02*
X2434Y680D01*
X2455Y680D02*
X2485Y680D01*
X2504Y680D02*
X2537Y680D01*
X2560Y680D02*
X2567Y680D01*
X3063Y680D02*
X3070Y680D01*
X0Y679D02*
X7Y679D01*
X2366Y679D02*
X2374Y679D01*
X2403Y679D02*
X2435Y679D01*
X2454Y679D02*
X2485Y679D01*
X2504Y679D02*
X2537Y679D01*
X2560Y679D02*
X2567Y679D01*
X3063Y679D02*
X3070Y679D01*
X0Y678D02*
X7Y678D01*
X2366Y678D02*
X2374Y678D01*
X2403Y678D02*
X2435Y678D01*
X2454Y678D02*
X2486Y678D01*
X2504Y678D02*
X2537Y678D01*
X2560Y678D02*
X2567Y678D01*
X3063Y678D02*
X3070Y678D01*
X0Y677D02*
X7Y677D01*
X2366Y677D02*
X2374Y677D01*
X2403Y677D02*
X2436Y677D01*
X2454Y677D02*
X2487Y677D01*
X2504Y677D02*
X2537Y677D01*
X2560Y677D02*
X2567Y677D01*
X3063Y677D02*
X3070Y677D01*
X0Y676D02*
X7Y676D01*
X2367Y676D02*
X2374Y676D01*
X2403Y676D02*
X2409Y676D01*
X2428Y676D02*
X2436Y676D01*
X2454Y676D02*
X2460Y676D01*
X2480Y676D02*
X2487Y676D01*
X2504Y676D02*
X2510Y676D01*
X2517Y676D02*
X2524Y676D01*
X2531Y676D02*
X2537Y676D01*
X2560Y676D02*
X2567Y676D01*
X3063Y676D02*
X3070Y676D01*
X0Y675D02*
X7Y675D01*
X2367Y675D02*
X2374Y675D01*
X2403Y675D02*
X2409Y675D01*
X2430Y675D02*
X2437Y675D01*
X2454Y675D02*
X2460Y675D01*
X2481Y675D02*
X2487Y675D01*
X2504Y675D02*
X2510Y675D01*
X2517Y675D02*
X2523Y675D01*
X2531Y675D02*
X2537Y675D01*
X2560Y675D02*
X2567Y675D01*
X3063Y675D02*
X3070Y675D01*
X0Y674D02*
X7Y674D01*
X2368Y674D02*
X2374Y674D01*
X2403Y674D02*
X2409Y674D01*
X2431Y674D02*
X2437Y674D01*
X2454Y674D02*
X2460Y674D01*
X2481Y674D02*
X2487Y674D01*
X2504Y674D02*
X2510Y674D01*
X2517Y674D02*
X2523Y674D01*
X2531Y674D02*
X2537Y674D01*
X2560Y674D02*
X2567Y674D01*
X3063Y674D02*
X3070Y674D01*
X0Y673D02*
X7Y673D01*
X2368Y673D02*
X2374Y673D01*
X2403Y673D02*
X2409Y673D01*
X2431Y673D02*
X2437Y673D01*
X2454Y673D02*
X2461Y673D01*
X2481Y673D02*
X2487Y673D01*
X2504Y673D02*
X2510Y673D01*
X2517Y673D02*
X2523Y673D01*
X2531Y673D02*
X2537Y673D01*
X2560Y673D02*
X2567Y673D01*
X3063Y673D02*
X3070Y673D01*
X0Y672D02*
X7Y672D01*
X2368Y672D02*
X2374Y672D01*
X2403Y672D02*
X2409Y672D01*
X2431Y672D02*
X2437Y672D01*
X2454Y672D02*
X2462Y672D01*
X2482Y672D02*
X2486Y672D01*
X2504Y672D02*
X2509Y672D01*
X2517Y672D02*
X2523Y672D01*
X2532Y672D02*
X2537Y672D01*
X2560Y672D02*
X2567Y672D01*
X3063Y672D02*
X3070Y672D01*
X0Y671D02*
X7Y671D01*
X2368Y671D02*
X2374Y671D01*
X2403Y671D02*
X2409Y671D01*
X2431Y671D02*
X2437Y671D01*
X2455Y671D02*
X2463Y671D01*
X2483Y671D02*
X2485Y671D01*
X2505Y671D02*
X2508Y671D01*
X2517Y671D02*
X2523Y671D01*
X2533Y671D02*
X2536Y671D01*
X2560Y671D02*
X2567Y671D01*
X3063Y671D02*
X3070Y671D01*
X0Y670D02*
X7Y670D01*
X2369Y670D02*
X2374Y670D01*
X2403Y670D02*
X2409Y670D01*
X2431Y670D02*
X2437Y670D01*
X2455Y670D02*
X2463Y670D01*
X2517Y670D02*
X2523Y670D01*
X2560Y670D02*
X2567Y670D01*
X3063Y670D02*
X3070Y670D01*
X0Y669D02*
X7Y669D01*
X2369Y669D02*
X2374Y669D01*
X2403Y669D02*
X2409Y669D01*
X2431Y669D02*
X2437Y669D01*
X2456Y669D02*
X2464Y669D01*
X2517Y669D02*
X2523Y669D01*
X2560Y669D02*
X2567Y669D01*
X3063Y669D02*
X3070Y669D01*
X0Y668D02*
X7Y668D01*
X2369Y668D02*
X2374Y668D01*
X2403Y668D02*
X2409Y668D01*
X2431Y668D02*
X2437Y668D01*
X2457Y668D02*
X2465Y668D01*
X2517Y668D02*
X2523Y668D01*
X2560Y668D02*
X2567Y668D01*
X3063Y668D02*
X3070Y668D01*
X0Y667D02*
X7Y667D01*
X2369Y667D02*
X2374Y667D01*
X2403Y667D02*
X2409Y667D01*
X2430Y667D02*
X2437Y667D01*
X2458Y667D02*
X2466Y667D01*
X2517Y667D02*
X2523Y667D01*
X2560Y667D02*
X2567Y667D01*
X3063Y667D02*
X3070Y667D01*
X0Y666D02*
X7Y666D01*
X2369Y666D02*
X2374Y666D01*
X2403Y666D02*
X2409Y666D01*
X2429Y666D02*
X2436Y666D01*
X2459Y666D02*
X2467Y666D01*
X2517Y666D02*
X2523Y666D01*
X2560Y666D02*
X2567Y666D01*
X3063Y666D02*
X3070Y666D01*
X0Y665D02*
X7Y665D01*
X2370Y665D02*
X2374Y665D01*
X2403Y665D02*
X2436Y665D01*
X2459Y665D02*
X2467Y665D01*
X2517Y665D02*
X2523Y665D01*
X2560Y665D02*
X2567Y665D01*
X3063Y665D02*
X3070Y665D01*
X0Y664D02*
X7Y664D01*
X2370Y664D02*
X2374Y664D01*
X2403Y664D02*
X2435Y664D01*
X2460Y664D02*
X2468Y664D01*
X2517Y664D02*
X2523Y664D01*
X2560Y664D02*
X2567Y664D01*
X3063Y664D02*
X3070Y664D01*
X0Y663D02*
X7Y663D01*
X2370Y663D02*
X2374Y663D01*
X2403Y663D02*
X2435Y663D01*
X2461Y663D02*
X2469Y663D01*
X2517Y663D02*
X2523Y663D01*
X2560Y663D02*
X2567Y663D01*
X3063Y663D02*
X3070Y663D01*
X0Y662D02*
X7Y662D01*
X2370Y662D02*
X2374Y662D01*
X2403Y662D02*
X2434Y662D01*
X2462Y662D02*
X2470Y662D01*
X2517Y662D02*
X2523Y662D01*
X2560Y662D02*
X2567Y662D01*
X3063Y662D02*
X3070Y662D01*
X0Y661D02*
X7Y661D01*
X2370Y661D02*
X2374Y661D01*
X2403Y661D02*
X2433Y661D01*
X2462Y661D02*
X2470Y661D01*
X2517Y661D02*
X2523Y661D01*
X2560Y661D02*
X2567Y661D01*
X3063Y661D02*
X3070Y661D01*
X0Y660D02*
X7Y660D01*
X2370Y660D02*
X2374Y660D01*
X2403Y660D02*
X2432Y660D01*
X2463Y660D02*
X2471Y660D01*
X2517Y660D02*
X2523Y660D01*
X2560Y660D02*
X2567Y660D01*
X3063Y660D02*
X3070Y660D01*
X0Y659D02*
X7Y659D01*
X2370Y659D02*
X2374Y659D01*
X2403Y659D02*
X2429Y659D01*
X2464Y659D02*
X2472Y659D01*
X2517Y659D02*
X2523Y659D01*
X2560Y659D02*
X2567Y659D01*
X3063Y659D02*
X3070Y659D01*
X0Y658D02*
X7Y658D01*
X2370Y658D02*
X2374Y658D01*
X2403Y658D02*
X2409Y658D01*
X2415Y658D02*
X2423Y658D01*
X2465Y658D02*
X2473Y658D01*
X2517Y658D02*
X2523Y658D01*
X2560Y658D02*
X2567Y658D01*
X3063Y658D02*
X3070Y658D01*
X0Y657D02*
X7Y657D01*
X2370Y657D02*
X2374Y657D01*
X2403Y657D02*
X2409Y657D01*
X2416Y657D02*
X2423Y657D01*
X2466Y657D02*
X2474Y657D01*
X2517Y657D02*
X2523Y657D01*
X2560Y657D02*
X2567Y657D01*
X3063Y657D02*
X3070Y657D01*
X0Y656D02*
X7Y656D01*
X2370Y656D02*
X2374Y656D01*
X2403Y656D02*
X2409Y656D01*
X2417Y656D02*
X2424Y656D01*
X2466Y656D02*
X2474Y656D01*
X2517Y656D02*
X2523Y656D01*
X2560Y656D02*
X2567Y656D01*
X3063Y656D02*
X3070Y656D01*
X0Y655D02*
X7Y655D01*
X2370Y655D02*
X2374Y655D01*
X2403Y655D02*
X2409Y655D01*
X2417Y655D02*
X2424Y655D01*
X2467Y655D02*
X2475Y655D01*
X2517Y655D02*
X2523Y655D01*
X2560Y655D02*
X2567Y655D01*
X3063Y655D02*
X3070Y655D01*
X0Y654D02*
X7Y654D01*
X2370Y654D02*
X2374Y654D01*
X2403Y654D02*
X2409Y654D01*
X2418Y654D02*
X2425Y654D01*
X2468Y654D02*
X2476Y654D01*
X2517Y654D02*
X2523Y654D01*
X2560Y654D02*
X2567Y654D01*
X3063Y654D02*
X3070Y654D01*
X0Y653D02*
X7Y653D01*
X2369Y653D02*
X2374Y653D01*
X2403Y653D02*
X2409Y653D01*
X2418Y653D02*
X2426Y653D01*
X2469Y653D02*
X2477Y653D01*
X2517Y653D02*
X2523Y653D01*
X2560Y653D02*
X2567Y653D01*
X3063Y653D02*
X3070Y653D01*
X0Y652D02*
X7Y652D01*
X2369Y652D02*
X2374Y652D01*
X2403Y652D02*
X2409Y652D01*
X2419Y652D02*
X2426Y652D01*
X2469Y652D02*
X2477Y652D01*
X2517Y652D02*
X2523Y652D01*
X2560Y652D02*
X2567Y652D01*
X3063Y652D02*
X3070Y652D01*
X0Y651D02*
X7Y651D01*
X2369Y651D02*
X2374Y651D01*
X2403Y651D02*
X2409Y651D01*
X2420Y651D02*
X2427Y651D01*
X2470Y651D02*
X2478Y651D01*
X2517Y651D02*
X2523Y651D01*
X2560Y651D02*
X2567Y651D01*
X3063Y651D02*
X3070Y651D01*
X0Y650D02*
X7Y650D01*
X2369Y650D02*
X2374Y650D01*
X2403Y650D02*
X2409Y650D01*
X2420Y650D02*
X2427Y650D01*
X2471Y650D02*
X2479Y650D01*
X2517Y650D02*
X2523Y650D01*
X2560Y650D02*
X2567Y650D01*
X3063Y650D02*
X3070Y650D01*
X0Y649D02*
X7Y649D01*
X2369Y649D02*
X2374Y649D01*
X2403Y649D02*
X2409Y649D01*
X2421Y649D02*
X2428Y649D01*
X2472Y649D02*
X2480Y649D01*
X2517Y649D02*
X2523Y649D01*
X2560Y649D02*
X2567Y649D01*
X3063Y649D02*
X3070Y649D01*
X0Y648D02*
X7Y648D01*
X2368Y648D02*
X2374Y648D01*
X2403Y648D02*
X2409Y648D01*
X2421Y648D02*
X2428Y648D01*
X2473Y648D02*
X2481Y648D01*
X2517Y648D02*
X2523Y648D01*
X2560Y648D02*
X2567Y648D01*
X3063Y648D02*
X3070Y648D01*
X0Y647D02*
X7Y647D01*
X2368Y647D02*
X2374Y647D01*
X2403Y647D02*
X2409Y647D01*
X2422Y647D02*
X2429Y647D01*
X2473Y647D02*
X2481Y647D01*
X2517Y647D02*
X2523Y647D01*
X2560Y647D02*
X2567Y647D01*
X3063Y647D02*
X3070Y647D01*
X0Y646D02*
X7Y646D01*
X2368Y646D02*
X2374Y646D01*
X2403Y646D02*
X2409Y646D01*
X2422Y646D02*
X2430Y646D01*
X2474Y646D02*
X2482Y646D01*
X2517Y646D02*
X2523Y646D01*
X2560Y646D02*
X2567Y646D01*
X3063Y646D02*
X3070Y646D01*
X0Y645D02*
X7Y645D01*
X2367Y645D02*
X2374Y645D01*
X2403Y645D02*
X2409Y645D01*
X2423Y645D02*
X2430Y645D01*
X2475Y645D02*
X2483Y645D01*
X2517Y645D02*
X2523Y645D01*
X2560Y645D02*
X2567Y645D01*
X3063Y645D02*
X3070Y645D01*
X0Y644D02*
X7Y644D01*
X2367Y644D02*
X2374Y644D01*
X2403Y644D02*
X2409Y644D01*
X2424Y644D02*
X2431Y644D01*
X2476Y644D02*
X2484Y644D01*
X2517Y644D02*
X2523Y644D01*
X2560Y644D02*
X2567Y644D01*
X3063Y644D02*
X3070Y644D01*
X0Y643D02*
X7Y643D01*
X2367Y643D02*
X2374Y643D01*
X2403Y643D02*
X2409Y643D01*
X2424Y643D02*
X2431Y643D01*
X2476Y643D02*
X2484Y643D01*
X2517Y643D02*
X2523Y643D01*
X2560Y643D02*
X2567Y643D01*
X3063Y643D02*
X3070Y643D01*
X0Y642D02*
X7Y642D01*
X2366Y642D02*
X2374Y642D01*
X2403Y642D02*
X2409Y642D01*
X2425Y642D02*
X2432Y642D01*
X2477Y642D02*
X2485Y642D01*
X2517Y642D02*
X2523Y642D01*
X2560Y642D02*
X2567Y642D01*
X3063Y642D02*
X3070Y642D01*
X0Y641D02*
X7Y641D01*
X2366Y641D02*
X2374Y641D01*
X2403Y641D02*
X2409Y641D01*
X2425Y641D02*
X2433Y641D01*
X2455Y641D02*
X2458Y641D01*
X2478Y641D02*
X2486Y641D01*
X2517Y641D02*
X2523Y641D01*
X2560Y641D02*
X2567Y641D01*
X3063Y641D02*
X3070Y641D01*
X0Y640D02*
X7Y640D01*
X2365Y640D02*
X2374Y640D01*
X2403Y640D02*
X2409Y640D01*
X2426Y640D02*
X2433Y640D01*
X2454Y640D02*
X2459Y640D01*
X2479Y640D02*
X2486Y640D01*
X2517Y640D02*
X2523Y640D01*
X2560Y640D02*
X2567Y640D01*
X3063Y640D02*
X3070Y640D01*
X0Y639D02*
X7Y639D01*
X2365Y639D02*
X2374Y639D01*
X2403Y639D02*
X2409Y639D01*
X2427Y639D02*
X2434Y639D01*
X2454Y639D02*
X2459Y639D01*
X2480Y639D02*
X2487Y639D01*
X2517Y639D02*
X2523Y639D01*
X2560Y639D02*
X2567Y639D01*
X3063Y639D02*
X3070Y639D01*
X0Y638D02*
X7Y638D01*
X2365Y638D02*
X2374Y638D01*
X2403Y638D02*
X2409Y638D01*
X2427Y638D02*
X2434Y638D01*
X2454Y638D02*
X2460Y638D01*
X2480Y638D02*
X2487Y638D01*
X2517Y638D02*
X2523Y638D01*
X2560Y638D02*
X2567Y638D01*
X3063Y638D02*
X3070Y638D01*
X0Y637D02*
X7Y637D01*
X2365Y637D02*
X2374Y637D01*
X2403Y637D02*
X2409Y637D01*
X2428Y637D02*
X2435Y637D01*
X2454Y637D02*
X2460Y637D01*
X2481Y637D02*
X2487Y637D01*
X2517Y637D02*
X2523Y637D01*
X2560Y637D02*
X2567Y637D01*
X3063Y637D02*
X3070Y637D01*
X0Y636D02*
X7Y636D01*
X2365Y636D02*
X2374Y636D01*
X2403Y636D02*
X2409Y636D01*
X2428Y636D02*
X2435Y636D01*
X2454Y636D02*
X2487Y636D01*
X2517Y636D02*
X2523Y636D01*
X2560Y636D02*
X2567Y636D01*
X3063Y636D02*
X3070Y636D01*
X0Y635D02*
X7Y635D01*
X2365Y635D02*
X2374Y635D01*
X2403Y635D02*
X2409Y635D01*
X2429Y635D02*
X2436Y635D01*
X2454Y635D02*
X2487Y635D01*
X2517Y635D02*
X2523Y635D01*
X2560Y635D02*
X2567Y635D01*
X3063Y635D02*
X3070Y635D01*
X0Y634D02*
X7Y634D01*
X2365Y634D02*
X2374Y634D01*
X2403Y634D02*
X2409Y634D01*
X2429Y634D02*
X2437Y634D01*
X2455Y634D02*
X2486Y634D01*
X2517Y634D02*
X2523Y634D01*
X2560Y634D02*
X2567Y634D01*
X3063Y634D02*
X3070Y634D01*
X0Y633D02*
X7Y633D01*
X2365Y633D02*
X2374Y633D01*
X2403Y633D02*
X2409Y633D01*
X2430Y633D02*
X2437Y633D01*
X2455Y633D02*
X2486Y633D01*
X2517Y633D02*
X2523Y633D01*
X2560Y633D02*
X2567Y633D01*
X3063Y633D02*
X3070Y633D01*
X0Y632D02*
X7Y632D01*
X2365Y632D02*
X2374Y632D01*
X2403Y632D02*
X2409Y632D01*
X2431Y632D02*
X2437Y632D01*
X2456Y632D02*
X2485Y632D01*
X2518Y632D02*
X2523Y632D01*
X2560Y632D02*
X2567Y632D01*
X3063Y632D02*
X3070Y632D01*
X0Y631D02*
X7Y631D01*
X2365Y631D02*
X2374Y631D01*
X2404Y631D02*
X2409Y631D01*
X2431Y631D02*
X2436Y631D01*
X2457Y631D02*
X2484Y631D01*
X2518Y631D02*
X2523Y631D01*
X2560Y631D02*
X2567Y631D01*
X3063Y631D02*
X3070Y631D01*
X0Y630D02*
X7Y630D01*
X2365Y630D02*
X2374Y630D01*
X2405Y630D02*
X2408Y630D01*
X2432Y630D02*
X2436Y630D01*
X2459Y630D02*
X2483Y630D01*
X2519Y630D02*
X2522Y630D01*
X2560Y630D02*
X2567Y630D01*
X3063Y630D02*
X3070Y630D01*
X0Y629D02*
X7Y629D01*
X2365Y629D02*
X2374Y629D01*
X2560Y629D02*
X2567Y629D01*
X3063Y629D02*
X3070Y629D01*
X0Y628D02*
X7Y628D01*
X2365Y628D02*
X2374Y628D01*
X2560Y628D02*
X2567Y628D01*
X3063Y628D02*
X3070Y628D01*
X0Y627D02*
X7Y627D01*
X2365Y627D02*
X2374Y627D01*
X2560Y627D02*
X2567Y627D01*
X3063Y627D02*
X3070Y627D01*
X0Y626D02*
X7Y626D01*
X2365Y626D02*
X2374Y626D01*
X2560Y626D02*
X2567Y626D01*
X3063Y626D02*
X3070Y626D01*
X0Y625D02*
X7Y625D01*
X2365Y625D02*
X2374Y625D01*
X2560Y625D02*
X2567Y625D01*
X3063Y625D02*
X3070Y625D01*
X0Y624D02*
X7Y624D01*
X2365Y624D02*
X2374Y624D01*
X2560Y624D02*
X2567Y624D01*
X3063Y624D02*
X3070Y624D01*
X0Y623D02*
X7Y623D01*
X2365Y623D02*
X2567Y623D01*
X3063Y623D02*
X3070Y623D01*
X0Y622D02*
X7Y622D01*
X2365Y622D02*
X2567Y622D01*
X3063Y622D02*
X3070Y622D01*
X0Y621D02*
X7Y621D01*
X2365Y621D02*
X2567Y621D01*
X3063Y621D02*
X3070Y621D01*
X0Y620D02*
X7Y620D01*
X2365Y620D02*
X2567Y620D01*
X3063Y620D02*
X3070Y620D01*
X0Y619D02*
X7Y619D01*
X2365Y619D02*
X2567Y619D01*
X3063Y619D02*
X3070Y619D01*
X0Y618D02*
X7Y618D01*
X2370Y618D02*
X2564Y618D01*
X3063Y618D02*
X3070Y618D01*
X0Y617D02*
X7Y617D01*
X2370Y617D02*
X2564Y617D01*
X3063Y617D02*
X3070Y617D01*
X0Y616D02*
X7Y616D01*
X2370Y616D02*
X2564Y616D01*
X3063Y616D02*
X3070Y616D01*
X0Y615D02*
X7Y615D01*
X2370Y615D02*
X2564Y615D01*
X3063Y615D02*
X3070Y615D01*
X0Y614D02*
X7Y614D01*
X2370Y614D02*
X2564Y614D01*
X3063Y614D02*
X3070Y614D01*
X0Y613D02*
X7Y613D01*
X3063Y613D02*
X3070Y613D01*
X0Y612D02*
X7Y612D01*
X3063Y612D02*
X3070Y612D01*
X0Y611D02*
X7Y611D01*
X3063Y611D02*
X3070Y611D01*
X0Y610D02*
X7Y610D01*
X3063Y610D02*
X3070Y610D01*
X0Y609D02*
X7Y609D01*
X3063Y609D02*
X3070Y609D01*
X0Y608D02*
X7Y608D01*
X3063Y608D02*
X3070Y608D01*
X0Y607D02*
X7Y607D01*
X3063Y607D02*
X3070Y607D01*
X0Y606D02*
X7Y606D01*
X3063Y606D02*
X3070Y606D01*
X0Y605D02*
X7Y605D01*
X3063Y605D02*
X3070Y605D01*
X0Y604D02*
X7Y604D01*
X3063Y604D02*
X3070Y604D01*
X0Y603D02*
X7Y603D01*
X3063Y603D02*
X3070Y603D01*
X0Y602D02*
X7Y602D01*
X3063Y602D02*
X3070Y602D01*
X0Y601D02*
X7Y601D01*
X3063Y601D02*
X3070Y601D01*
X0Y600D02*
X7Y600D01*
X3063Y600D02*
X3070Y600D01*
X0Y599D02*
X7Y599D01*
X3063Y599D02*
X3070Y599D01*
X0Y598D02*
X7Y598D01*
X3063Y598D02*
X3070Y598D01*
X0Y597D02*
X7Y597D01*
X3063Y597D02*
X3070Y597D01*
X0Y596D02*
X7Y596D01*
X3063Y596D02*
X3070Y596D01*
X0Y595D02*
X7Y595D01*
X3063Y595D02*
X3070Y595D01*
X0Y594D02*
X7Y594D01*
X3063Y594D02*
X3070Y594D01*
X0Y593D02*
X7Y593D01*
X3063Y593D02*
X3070Y593D01*
X0Y592D02*
X7Y592D01*
X3063Y592D02*
X3070Y592D01*
X0Y591D02*
X7Y591D01*
X3063Y591D02*
X3070Y591D01*
X0Y590D02*
X7Y590D01*
X3063Y590D02*
X3070Y590D01*
X0Y589D02*
X7Y589D01*
X3063Y589D02*
X3070Y589D01*
X0Y588D02*
X7Y588D01*
X3063Y588D02*
X3070Y588D01*
X0Y587D02*
X7Y587D01*
X3063Y587D02*
X3070Y587D01*
X0Y586D02*
X7Y586D01*
X3063Y586D02*
X3070Y586D01*
X0Y585D02*
X7Y585D01*
X3063Y585D02*
X3070Y585D01*
X0Y584D02*
X7Y584D01*
X3063Y584D02*
X3070Y584D01*
X0Y583D02*
X7Y583D01*
X3063Y583D02*
X3070Y583D01*
X0Y582D02*
X7Y582D01*
X3063Y582D02*
X3070Y582D01*
X0Y581D02*
X7Y581D01*
X3063Y581D02*
X3070Y581D01*
X0Y580D02*
X7Y580D01*
X3063Y580D02*
X3070Y580D01*
X0Y579D02*
X7Y579D01*
X3063Y579D02*
X3070Y579D01*
X0Y578D02*
X7Y578D01*
X3063Y578D02*
X3070Y578D01*
X0Y577D02*
X7Y577D01*
X3063Y577D02*
X3070Y577D01*
X0Y576D02*
X7Y576D01*
X3063Y576D02*
X3070Y576D01*
X0Y575D02*
X7Y575D01*
X3063Y575D02*
X3070Y575D01*
X0Y574D02*
X7Y574D01*
X3063Y574D02*
X3070Y574D01*
X0Y573D02*
X7Y573D01*
X3063Y573D02*
X3070Y573D01*
X0Y572D02*
X7Y572D01*
X3063Y572D02*
X3070Y572D01*
X0Y571D02*
X7Y571D01*
X3063Y571D02*
X3070Y571D01*
X0Y570D02*
X7Y570D01*
X3063Y570D02*
X3070Y570D01*
X0Y569D02*
X7Y569D01*
X3063Y569D02*
X3070Y569D01*
X0Y568D02*
X7Y568D01*
X3063Y568D02*
X3070Y568D01*
X0Y567D02*
X7Y567D01*
X3063Y567D02*
X3070Y567D01*
X0Y566D02*
X7Y566D01*
X3063Y566D02*
X3070Y566D01*
X0Y565D02*
X7Y565D01*
X3063Y565D02*
X3070Y565D01*
X0Y564D02*
X7Y564D01*
X3063Y564D02*
X3070Y564D01*
X0Y563D02*
X7Y563D01*
X3063Y563D02*
X3070Y563D01*
X0Y562D02*
X7Y562D01*
X3063Y562D02*
X3070Y562D01*
X0Y561D02*
X7Y561D01*
X3063Y561D02*
X3070Y561D01*
X0Y560D02*
X7Y560D01*
X3063Y560D02*
X3070Y560D01*
X0Y559D02*
X7Y559D01*
X3063Y559D02*
X3070Y559D01*
X0Y558D02*
X7Y558D01*
X3063Y558D02*
X3070Y558D01*
X0Y557D02*
X7Y557D01*
X3063Y557D02*
X3070Y557D01*
X0Y556D02*
X7Y556D01*
X3063Y556D02*
X3070Y556D01*
X0Y555D02*
X7Y555D01*
X3063Y555D02*
X3070Y555D01*
X0Y554D02*
X7Y554D01*
X3063Y554D02*
X3070Y554D01*
X0Y553D02*
X7Y553D01*
X3063Y553D02*
X3070Y553D01*
X0Y552D02*
X7Y552D01*
X3063Y552D02*
X3070Y552D01*
X0Y551D02*
X7Y551D01*
X3063Y551D02*
X3070Y551D01*
X0Y550D02*
X7Y550D01*
X3063Y550D02*
X3070Y550D01*
X0Y549D02*
X7Y549D01*
X3063Y549D02*
X3070Y549D01*
X0Y548D02*
X7Y548D01*
X3063Y548D02*
X3070Y548D01*
X0Y547D02*
X7Y547D01*
X3063Y547D02*
X3070Y547D01*
X0Y546D02*
X7Y546D01*
X3063Y546D02*
X3070Y546D01*
X0Y545D02*
X7Y545D01*
X3063Y545D02*
X3070Y545D01*
X0Y544D02*
X7Y544D01*
X3063Y544D02*
X3070Y544D01*
X0Y543D02*
X7Y543D01*
X3063Y543D02*
X3070Y543D01*
X0Y542D02*
X7Y542D01*
X3063Y542D02*
X3070Y542D01*
X0Y541D02*
X7Y541D01*
X3063Y541D02*
X3070Y541D01*
X0Y540D02*
X7Y540D01*
X3063Y540D02*
X3070Y540D01*
X0Y539D02*
X7Y539D01*
X3063Y539D02*
X3070Y539D01*
X0Y538D02*
X7Y538D01*
X3063Y538D02*
X3070Y538D01*
X0Y537D02*
X7Y537D01*
X3063Y537D02*
X3070Y537D01*
X0Y536D02*
X7Y536D01*
X3063Y536D02*
X3070Y536D01*
X0Y535D02*
X7Y535D01*
X3063Y535D02*
X3070Y535D01*
X0Y534D02*
X7Y534D01*
X3063Y534D02*
X3070Y534D01*
X0Y533D02*
X7Y533D01*
X3063Y533D02*
X3070Y533D01*
X0Y532D02*
X7Y532D01*
X3063Y532D02*
X3070Y532D01*
X0Y531D02*
X7Y531D01*
X3063Y531D02*
X3070Y531D01*
X0Y530D02*
X7Y530D01*
X3063Y530D02*
X3070Y530D01*
X0Y529D02*
X7Y529D01*
X3063Y529D02*
X3070Y529D01*
X0Y528D02*
X7Y528D01*
X3063Y528D02*
X3070Y528D01*
X0Y527D02*
X7Y527D01*
X3063Y527D02*
X3070Y527D01*
X0Y526D02*
X7Y526D01*
X3063Y526D02*
X3070Y526D01*
X0Y525D02*
X7Y525D01*
X3063Y525D02*
X3070Y525D01*
X0Y524D02*
X7Y524D01*
X3063Y524D02*
X3070Y524D01*
X0Y523D02*
X7Y523D01*
X3063Y523D02*
X3070Y523D01*
X0Y522D02*
X7Y522D01*
X3063Y522D02*
X3070Y522D01*
X0Y521D02*
X7Y521D01*
X3063Y521D02*
X3070Y521D01*
X0Y520D02*
X7Y520D01*
X3063Y520D02*
X3070Y520D01*
X0Y519D02*
X7Y519D01*
X3063Y519D02*
X3070Y519D01*
X0Y518D02*
X7Y518D01*
X3063Y518D02*
X3070Y518D01*
X0Y517D02*
X7Y517D01*
X3063Y517D02*
X3070Y517D01*
X0Y516D02*
X7Y516D01*
X3063Y516D02*
X3070Y516D01*
X0Y515D02*
X7Y515D01*
X3063Y515D02*
X3070Y515D01*
X0Y514D02*
X7Y514D01*
X3063Y514D02*
X3070Y514D01*
X0Y513D02*
X7Y513D01*
X3063Y513D02*
X3070Y513D01*
X0Y512D02*
X7Y512D01*
X3063Y512D02*
X3070Y512D01*
X0Y511D02*
X7Y511D01*
X2384Y511D02*
X2400Y511D01*
X2413Y511D02*
X2415Y511D01*
X2429Y511D02*
X2431Y511D01*
X3063Y511D02*
X3070Y511D01*
X0Y510D02*
X7Y510D01*
X2384Y510D02*
X2401Y510D01*
X2413Y510D02*
X2416Y510D01*
X2428Y510D02*
X2431Y510D01*
X3063Y510D02*
X3070Y510D01*
X0Y509D02*
X7Y509D01*
X2364Y509D02*
X2373Y509D01*
X2384Y509D02*
X2402Y509D01*
X2413Y509D02*
X2417Y509D01*
X2428Y509D02*
X2431Y509D01*
X3063Y509D02*
X3070Y509D01*
X0Y508D02*
X7Y508D01*
X2364Y508D02*
X2373Y508D01*
X2384Y508D02*
X2403Y508D01*
X2414Y508D02*
X2417Y508D01*
X2427Y508D02*
X2431Y508D01*
X3063Y508D02*
X3070Y508D01*
X0Y507D02*
X7Y507D01*
X2364Y507D02*
X2373Y507D01*
X2384Y507D02*
X2387Y507D01*
X2400Y507D02*
X2403Y507D01*
X2414Y507D02*
X2418Y507D01*
X2426Y507D02*
X2430Y507D01*
X3063Y507D02*
X3070Y507D01*
X0Y506D02*
X7Y506D01*
X2364Y506D02*
X2373Y506D01*
X2384Y506D02*
X2387Y506D01*
X2400Y506D02*
X2403Y506D01*
X2415Y506D02*
X2418Y506D01*
X2426Y506D02*
X2429Y506D01*
X3063Y506D02*
X3070Y506D01*
X0Y505D02*
X7Y505D01*
X2364Y505D02*
X2373Y505D01*
X2384Y505D02*
X2387Y505D01*
X2400Y505D02*
X2403Y505D01*
X2415Y505D02*
X2419Y505D01*
X2425Y505D02*
X2429Y505D01*
X3063Y505D02*
X3070Y505D01*
X0Y504D02*
X7Y504D01*
X2364Y504D02*
X2373Y504D01*
X2384Y504D02*
X2387Y504D01*
X2400Y504D02*
X2403Y504D01*
X2416Y504D02*
X2420Y504D01*
X2425Y504D02*
X2428Y504D01*
X3063Y504D02*
X3070Y504D01*
X0Y503D02*
X7Y503D01*
X2364Y503D02*
X2373Y503D01*
X2384Y503D02*
X2387Y503D01*
X2400Y503D02*
X2403Y503D01*
X2416Y503D02*
X2420Y503D01*
X2424Y503D02*
X2428Y503D01*
X3063Y503D02*
X3070Y503D01*
X0Y502D02*
X7Y502D01*
X2364Y502D02*
X2373Y502D01*
X2384Y502D02*
X2388Y502D01*
X2399Y502D02*
X2403Y502D01*
X2417Y502D02*
X2421Y502D01*
X2423Y502D02*
X2427Y502D01*
X3063Y502D02*
X3070Y502D01*
X0Y501D02*
X7Y501D01*
X2364Y501D02*
X2373Y501D01*
X2384Y501D02*
X2402Y501D01*
X2418Y501D02*
X2421Y501D01*
X2423Y501D02*
X2426Y501D01*
X3063Y501D02*
X3070Y501D01*
X0Y500D02*
X7Y500D01*
X2364Y500D02*
X2373Y500D01*
X2384Y500D02*
X2401Y500D01*
X2418Y500D02*
X2426Y500D01*
X3063Y500D02*
X3070Y500D01*
X0Y499D02*
X7Y499D01*
X2364Y499D02*
X2373Y499D01*
X2384Y499D02*
X2400Y499D01*
X2419Y499D02*
X2425Y499D01*
X3063Y499D02*
X3070Y499D01*
X0Y498D02*
X7Y498D01*
X2364Y498D02*
X2373Y498D01*
X2384Y498D02*
X2398Y498D01*
X2419Y498D02*
X2425Y498D01*
X3063Y498D02*
X3070Y498D01*
X0Y497D02*
X7Y497D01*
X2364Y497D02*
X2373Y497D01*
X2384Y497D02*
X2387Y497D01*
X2392Y497D02*
X2395Y497D01*
X2420Y497D02*
X2424Y497D01*
X3063Y497D02*
X3070Y497D01*
X0Y496D02*
X7Y496D01*
X2364Y496D02*
X2373Y496D01*
X2384Y496D02*
X2387Y496D01*
X2392Y496D02*
X2396Y496D01*
X2420Y496D02*
X2424Y496D01*
X3063Y496D02*
X3070Y496D01*
X0Y495D02*
X7Y495D01*
X2364Y495D02*
X2373Y495D01*
X2384Y495D02*
X2387Y495D01*
X2393Y495D02*
X2396Y495D01*
X2419Y495D02*
X2425Y495D01*
X3063Y495D02*
X3070Y495D01*
X0Y494D02*
X7Y494D01*
X2364Y494D02*
X2373Y494D01*
X2384Y494D02*
X2387Y494D01*
X2393Y494D02*
X2397Y494D01*
X2419Y494D02*
X2425Y494D01*
X3063Y494D02*
X3070Y494D01*
X0Y493D02*
X7Y493D01*
X2364Y493D02*
X2373Y493D01*
X2384Y493D02*
X2387Y493D01*
X2394Y493D02*
X2397Y493D01*
X2418Y493D02*
X2426Y493D01*
X3063Y493D02*
X3070Y493D01*
X0Y492D02*
X7Y492D01*
X2364Y492D02*
X2373Y492D01*
X2384Y492D02*
X2387Y492D01*
X2394Y492D02*
X2398Y492D01*
X2418Y492D02*
X2421Y492D01*
X2423Y492D02*
X2427Y492D01*
X3063Y492D02*
X3070Y492D01*
X0Y491D02*
X7Y491D01*
X2364Y491D02*
X2373Y491D01*
X2384Y491D02*
X2387Y491D01*
X2395Y491D02*
X2399Y491D01*
X2417Y491D02*
X2421Y491D01*
X2423Y491D02*
X2427Y491D01*
X3063Y491D02*
X3070Y491D01*
X0Y490D02*
X7Y490D01*
X2364Y490D02*
X2373Y490D01*
X2384Y490D02*
X2387Y490D01*
X2396Y490D02*
X2399Y490D01*
X2416Y490D02*
X2420Y490D01*
X2424Y490D02*
X2428Y490D01*
X3063Y490D02*
X3070Y490D01*
X0Y489D02*
X7Y489D01*
X2364Y489D02*
X2373Y489D01*
X2384Y489D02*
X2387Y489D01*
X2396Y489D02*
X2400Y489D01*
X2416Y489D02*
X2419Y489D01*
X2425Y489D02*
X2428Y489D01*
X3063Y489D02*
X3070Y489D01*
X0Y488D02*
X7Y488D01*
X2364Y488D02*
X2373Y488D01*
X2384Y488D02*
X2387Y488D01*
X2397Y488D02*
X2400Y488D01*
X2415Y488D02*
X2419Y488D01*
X2425Y488D02*
X2429Y488D01*
X3063Y488D02*
X3070Y488D01*
X0Y487D02*
X7Y487D01*
X2364Y487D02*
X2373Y487D01*
X2384Y487D02*
X2387Y487D01*
X2397Y487D02*
X2401Y487D01*
X2415Y487D02*
X2418Y487D01*
X2426Y487D02*
X2429Y487D01*
X3063Y487D02*
X3070Y487D01*
X0Y486D02*
X7Y486D01*
X2364Y486D02*
X2373Y486D01*
X2384Y486D02*
X2387Y486D01*
X2398Y486D02*
X2402Y486D01*
X2414Y486D02*
X2418Y486D01*
X2426Y486D02*
X2430Y486D01*
X3063Y486D02*
X3070Y486D01*
X0Y485D02*
X7Y485D01*
X2364Y485D02*
X2373Y485D01*
X2384Y485D02*
X2387Y485D01*
X2399Y485D02*
X2402Y485D01*
X2413Y485D02*
X2417Y485D01*
X2427Y485D02*
X2431Y485D01*
X3063Y485D02*
X3070Y485D01*
X0Y484D02*
X7Y484D01*
X2364Y484D02*
X2373Y484D01*
X2384Y484D02*
X2387Y484D01*
X2399Y484D02*
X2403Y484D01*
X2413Y484D02*
X2417Y484D01*
X2428Y484D02*
X2431Y484D01*
X3063Y484D02*
X3070Y484D01*
X0Y483D02*
X7Y483D01*
X2364Y483D02*
X2373Y483D01*
X2384Y483D02*
X2387Y483D01*
X2400Y483D02*
X2403Y483D01*
X2413Y483D02*
X2416Y483D01*
X2428Y483D02*
X2431Y483D01*
X3063Y483D02*
X3070Y483D01*
X0Y482D02*
X7Y482D01*
X2364Y482D02*
X2373Y482D01*
X2385Y482D02*
X2387Y482D01*
X2400Y482D02*
X2402Y482D01*
X2413Y482D02*
X2415Y482D01*
X2429Y482D02*
X2431Y482D01*
X3063Y482D02*
X3070Y482D01*
X0Y481D02*
X7Y481D01*
X2364Y481D02*
X2373Y481D01*
X3063Y481D02*
X3070Y481D01*
X0Y480D02*
X7Y480D01*
X2364Y480D02*
X2373Y480D01*
X3063Y480D02*
X3070Y480D01*
X0Y479D02*
X7Y479D01*
X2364Y479D02*
X2373Y479D01*
X3063Y479D02*
X3070Y479D01*
X0Y478D02*
X7Y478D01*
X2364Y478D02*
X2373Y478D01*
X3063Y478D02*
X3070Y478D01*
X0Y477D02*
X7Y477D01*
X2364Y477D02*
X2373Y477D01*
X3063Y477D02*
X3070Y477D01*
X0Y476D02*
X7Y476D01*
X2364Y476D02*
X2373Y476D01*
X3063Y476D02*
X3070Y476D01*
X0Y475D02*
X7Y475D01*
X2364Y475D02*
X2373Y475D01*
X3063Y475D02*
X3070Y475D01*
X0Y474D02*
X7Y474D01*
X2364Y474D02*
X2373Y474D01*
X3063Y474D02*
X3070Y474D01*
X0Y473D02*
X7Y473D01*
X2364Y473D02*
X2373Y473D01*
X3063Y473D02*
X3070Y473D01*
X0Y472D02*
X7Y472D01*
X2364Y472D02*
X2373Y472D01*
X3063Y472D02*
X3070Y472D01*
X0Y471D02*
X7Y471D01*
X2364Y471D02*
X2373Y471D01*
X3063Y471D02*
X3070Y471D01*
X0Y470D02*
X7Y470D01*
X2364Y470D02*
X2373Y470D01*
X3063Y470D02*
X3070Y470D01*
X0Y469D02*
X7Y469D01*
X2364Y469D02*
X2373Y469D01*
X3063Y469D02*
X3070Y469D01*
X0Y468D02*
X7Y468D01*
X2364Y468D02*
X2373Y468D01*
X3063Y468D02*
X3070Y468D01*
X0Y467D02*
X7Y467D01*
X2364Y467D02*
X2373Y467D01*
X3063Y467D02*
X3070Y467D01*
X0Y466D02*
X7Y466D01*
X2364Y466D02*
X2373Y466D01*
X3063Y466D02*
X3070Y466D01*
X0Y465D02*
X7Y465D01*
X2364Y465D02*
X2373Y465D01*
X3063Y465D02*
X3070Y465D01*
X0Y464D02*
X7Y464D01*
X2364Y464D02*
X2373Y464D01*
X3063Y464D02*
X3070Y464D01*
X0Y463D02*
X7Y463D01*
X2364Y463D02*
X2373Y463D01*
X3063Y463D02*
X3070Y463D01*
X0Y462D02*
X7Y462D01*
X2364Y462D02*
X2373Y462D01*
X3063Y462D02*
X3070Y462D01*
X0Y461D02*
X7Y461D01*
X2364Y461D02*
X2373Y461D01*
X3063Y461D02*
X3070Y461D01*
X0Y460D02*
X7Y460D01*
X2364Y460D02*
X2373Y460D01*
X3063Y460D02*
X3070Y460D01*
X0Y459D02*
X7Y459D01*
X2364Y459D02*
X2373Y459D01*
X3063Y459D02*
X3070Y459D01*
X0Y458D02*
X7Y458D01*
X2364Y458D02*
X2373Y458D01*
X3063Y458D02*
X3070Y458D01*
X0Y457D02*
X7Y457D01*
X2364Y457D02*
X2373Y457D01*
X3063Y457D02*
X3070Y457D01*
X0Y456D02*
X7Y456D01*
X2364Y456D02*
X2373Y456D01*
X3063Y456D02*
X3070Y456D01*
X0Y455D02*
X7Y455D01*
X2364Y455D02*
X2373Y455D01*
X3063Y455D02*
X3070Y455D01*
X0Y454D02*
X7Y454D01*
X2364Y454D02*
X2373Y454D01*
X3063Y454D02*
X3070Y454D01*
X0Y453D02*
X7Y453D01*
X2364Y453D02*
X2373Y453D01*
X3063Y453D02*
X3070Y453D01*
X0Y452D02*
X7Y452D01*
X2364Y452D02*
X2373Y452D01*
X3063Y452D02*
X3070Y452D01*
X0Y451D02*
X7Y451D01*
X2364Y451D02*
X2373Y451D01*
X3063Y451D02*
X3070Y451D01*
X0Y450D02*
X7Y450D01*
X2364Y450D02*
X2373Y450D01*
X3063Y450D02*
X3070Y450D01*
X0Y449D02*
X7Y449D01*
X2364Y449D02*
X2373Y449D01*
X3063Y449D02*
X3070Y449D01*
X0Y448D02*
X7Y448D01*
X2364Y448D02*
X2373Y448D01*
X3063Y448D02*
X3070Y448D01*
X0Y447D02*
X7Y447D01*
X2364Y447D02*
X2373Y447D01*
X3063Y447D02*
X3070Y447D01*
X0Y446D02*
X7Y446D01*
X2364Y446D02*
X2373Y446D01*
X3063Y446D02*
X3070Y446D01*
X0Y445D02*
X7Y445D01*
X2364Y445D02*
X2373Y445D01*
X3063Y445D02*
X3070Y445D01*
X0Y444D02*
X7Y444D01*
X2364Y444D02*
X2373Y444D01*
X3063Y444D02*
X3070Y444D01*
X0Y443D02*
X7Y443D01*
X2364Y443D02*
X2373Y443D01*
X3063Y443D02*
X3070Y443D01*
X0Y442D02*
X7Y442D01*
X2364Y442D02*
X2373Y442D01*
X3063Y442D02*
X3070Y442D01*
X0Y441D02*
X7Y441D01*
X2364Y441D02*
X2373Y441D01*
X3063Y441D02*
X3070Y441D01*
X0Y440D02*
X7Y440D01*
X2364Y440D02*
X2373Y440D01*
X3063Y440D02*
X3070Y440D01*
X0Y439D02*
X7Y439D01*
X2364Y439D02*
X2373Y439D01*
X3063Y439D02*
X3070Y439D01*
X0Y438D02*
X7Y438D01*
X2364Y438D02*
X2373Y438D01*
X3063Y438D02*
X3070Y438D01*
X0Y437D02*
X7Y437D01*
X2364Y437D02*
X2373Y437D01*
X3063Y437D02*
X3070Y437D01*
X0Y436D02*
X7Y436D01*
X2364Y436D02*
X2373Y436D01*
X3063Y436D02*
X3070Y436D01*
X0Y435D02*
X7Y435D01*
X2364Y435D02*
X2373Y435D01*
X3063Y435D02*
X3070Y435D01*
X0Y434D02*
X7Y434D01*
X2364Y434D02*
X2373Y434D01*
X3063Y434D02*
X3070Y434D01*
X0Y433D02*
X7Y433D01*
X2364Y433D02*
X2373Y433D01*
X3063Y433D02*
X3070Y433D01*
X0Y432D02*
X7Y432D01*
X2364Y432D02*
X2373Y432D01*
X3063Y432D02*
X3070Y432D01*
X0Y431D02*
X7Y431D01*
X2364Y431D02*
X2373Y431D01*
X3063Y431D02*
X3070Y431D01*
X0Y430D02*
X7Y430D01*
X2364Y430D02*
X2373Y430D01*
X3063Y430D02*
X3070Y430D01*
X0Y429D02*
X7Y429D01*
X2364Y429D02*
X2373Y429D01*
X3063Y429D02*
X3070Y429D01*
X0Y428D02*
X7Y428D01*
X2364Y428D02*
X2373Y428D01*
X3063Y428D02*
X3070Y428D01*
X0Y427D02*
X7Y427D01*
X2364Y427D02*
X2373Y427D01*
X3063Y427D02*
X3070Y427D01*
X0Y426D02*
X7Y426D01*
X2364Y426D02*
X2373Y426D01*
X3063Y426D02*
X3070Y426D01*
X0Y425D02*
X7Y425D01*
X2364Y425D02*
X2373Y425D01*
X3063Y425D02*
X3070Y425D01*
X0Y424D02*
X7Y424D01*
X2364Y424D02*
X2373Y424D01*
X3063Y424D02*
X3070Y424D01*
X0Y423D02*
X7Y423D01*
X2364Y423D02*
X2373Y423D01*
X3063Y423D02*
X3070Y423D01*
X0Y422D02*
X7Y422D01*
X2364Y422D02*
X2373Y422D01*
X3063Y422D02*
X3070Y422D01*
X0Y421D02*
X7Y421D01*
X2364Y421D02*
X2373Y421D01*
X3063Y421D02*
X3070Y421D01*
X0Y420D02*
X7Y420D01*
X2364Y420D02*
X2373Y420D01*
X3063Y420D02*
X3070Y420D01*
X0Y419D02*
X7Y419D01*
X2364Y419D02*
X2373Y419D01*
X3063Y419D02*
X3070Y419D01*
X0Y418D02*
X7Y418D01*
X2364Y418D02*
X2373Y418D01*
X3063Y418D02*
X3070Y418D01*
X0Y417D02*
X7Y417D01*
X2364Y417D02*
X2373Y417D01*
X3063Y417D02*
X3070Y417D01*
X0Y416D02*
X7Y416D01*
X2364Y416D02*
X2373Y416D01*
X3063Y416D02*
X3070Y416D01*
X0Y415D02*
X7Y415D01*
X2364Y415D02*
X2373Y415D01*
X3063Y415D02*
X3070Y415D01*
X0Y414D02*
X7Y414D01*
X2364Y414D02*
X2373Y414D01*
X3063Y414D02*
X3070Y414D01*
X0Y413D02*
X7Y413D01*
X2364Y413D02*
X2373Y413D01*
X3063Y413D02*
X3070Y413D01*
X0Y412D02*
X7Y412D01*
X2364Y412D02*
X2373Y412D01*
X3063Y412D02*
X3070Y412D01*
X0Y411D02*
X7Y411D01*
X2364Y411D02*
X2373Y411D01*
X3063Y411D02*
X3070Y411D01*
X0Y410D02*
X7Y410D01*
X2364Y410D02*
X2373Y410D01*
X3063Y410D02*
X3070Y410D01*
X0Y409D02*
X7Y409D01*
X2364Y409D02*
X2373Y409D01*
X3063Y409D02*
X3070Y409D01*
X0Y408D02*
X7Y408D01*
X2364Y408D02*
X2373Y408D01*
X3063Y408D02*
X3070Y408D01*
X0Y407D02*
X7Y407D01*
X2364Y407D02*
X2373Y407D01*
X3063Y407D02*
X3070Y407D01*
X0Y406D02*
X7Y406D01*
X2364Y406D02*
X2373Y406D01*
X2393Y406D02*
X2403Y406D01*
X2413Y406D02*
X2428Y406D01*
X2442Y406D02*
X2460Y406D01*
X2477Y406D02*
X2481Y406D01*
X3063Y406D02*
X3070Y406D01*
X0Y405D02*
X7Y405D01*
X2364Y405D02*
X2373Y405D01*
X2392Y405D02*
X2403Y405D01*
X2413Y405D02*
X2430Y405D01*
X2442Y405D02*
X2460Y405D01*
X2476Y405D02*
X2483Y405D01*
X3063Y405D02*
X3070Y405D01*
X0Y404D02*
X7Y404D01*
X2364Y404D02*
X2373Y404D01*
X2391Y404D02*
X2403Y404D01*
X2413Y404D02*
X2431Y404D01*
X2442Y404D02*
X2460Y404D01*
X2475Y404D02*
X2483Y404D01*
X3063Y404D02*
X3070Y404D01*
X0Y403D02*
X7Y403D01*
X2364Y403D02*
X2373Y403D01*
X2390Y403D02*
X2402Y403D01*
X2413Y403D02*
X2431Y403D01*
X2443Y403D02*
X2459Y403D01*
X2475Y403D02*
X2484Y403D01*
X3063Y403D02*
X3070Y403D01*
X0Y402D02*
X7Y402D01*
X2364Y402D02*
X2373Y402D01*
X2390Y402D02*
X2394Y402D01*
X2413Y402D02*
X2416Y402D01*
X2428Y402D02*
X2431Y402D01*
X2449Y402D02*
X2452Y402D01*
X2474Y402D02*
X2478Y402D01*
X2481Y402D02*
X2484Y402D01*
X3063Y402D02*
X3070Y402D01*
X0Y401D02*
X7Y401D01*
X2364Y401D02*
X2373Y401D01*
X2389Y401D02*
X2393Y401D01*
X2413Y401D02*
X2416Y401D01*
X2429Y401D02*
X2432Y401D01*
X2449Y401D02*
X2452Y401D01*
X2474Y401D02*
X2477Y401D01*
X2481Y401D02*
X2485Y401D01*
X3063Y401D02*
X3070Y401D01*
X0Y400D02*
X7Y400D01*
X2364Y400D02*
X2373Y400D01*
X2388Y400D02*
X2392Y400D01*
X2413Y400D02*
X2416Y400D01*
X2429Y400D02*
X2432Y400D01*
X2449Y400D02*
X2452Y400D01*
X2473Y400D02*
X2477Y400D01*
X2482Y400D02*
X2485Y400D01*
X3063Y400D02*
X3070Y400D01*
X0Y399D02*
X7Y399D01*
X2364Y399D02*
X2373Y399D01*
X2387Y399D02*
X2391Y399D01*
X2413Y399D02*
X2416Y399D01*
X2429Y399D02*
X2432Y399D01*
X2449Y399D02*
X2452Y399D01*
X2473Y399D02*
X2476Y399D01*
X2482Y399D02*
X2486Y399D01*
X3063Y399D02*
X3070Y399D01*
X0Y398D02*
X7Y398D01*
X2364Y398D02*
X2373Y398D01*
X2387Y398D02*
X2391Y398D01*
X2413Y398D02*
X2416Y398D01*
X2429Y398D02*
X2432Y398D01*
X2449Y398D02*
X2452Y398D01*
X2472Y398D02*
X2476Y398D01*
X2483Y398D02*
X2486Y398D01*
X3063Y398D02*
X3070Y398D01*
X0Y397D02*
X7Y397D01*
X2364Y397D02*
X2373Y397D01*
X2386Y397D02*
X2390Y397D01*
X2413Y397D02*
X2416Y397D01*
X2429Y397D02*
X2432Y397D01*
X2449Y397D02*
X2452Y397D01*
X2472Y397D02*
X2475Y397D01*
X2483Y397D02*
X2487Y397D01*
X3063Y397D02*
X3070Y397D01*
X0Y396D02*
X7Y396D01*
X2364Y396D02*
X2373Y396D01*
X2385Y396D02*
X2389Y396D01*
X2413Y396D02*
X2416Y396D01*
X2429Y396D02*
X2432Y396D01*
X2449Y396D02*
X2452Y396D01*
X2471Y396D02*
X2475Y396D01*
X2484Y396D02*
X2487Y396D01*
X3063Y396D02*
X3070Y396D01*
X0Y395D02*
X7Y395D01*
X2364Y395D02*
X2373Y395D01*
X2385Y395D02*
X2388Y395D01*
X2413Y395D02*
X2416Y395D01*
X2429Y395D02*
X2432Y395D01*
X2449Y395D02*
X2452Y395D01*
X2471Y395D02*
X2474Y395D01*
X2484Y395D02*
X2488Y395D01*
X3063Y395D02*
X3070Y395D01*
X0Y394D02*
X7Y394D01*
X2364Y394D02*
X2373Y394D01*
X2385Y394D02*
X2388Y394D01*
X2413Y394D02*
X2416Y394D01*
X2429Y394D02*
X2432Y394D01*
X2449Y394D02*
X2452Y394D01*
X2470Y394D02*
X2474Y394D01*
X2485Y394D02*
X2488Y394D01*
X3063Y394D02*
X3070Y394D01*
X0Y393D02*
X7Y393D01*
X2364Y393D02*
X2373Y393D01*
X2385Y393D02*
X2388Y393D01*
X2413Y393D02*
X2416Y393D01*
X2428Y393D02*
X2432Y393D01*
X2449Y393D02*
X2452Y393D01*
X2470Y393D02*
X2473Y393D01*
X2485Y393D02*
X2488Y393D01*
X3063Y393D02*
X3070Y393D01*
X0Y392D02*
X7Y392D01*
X2364Y392D02*
X2373Y392D01*
X2385Y392D02*
X2388Y392D01*
X2413Y392D02*
X2416Y392D01*
X2427Y392D02*
X2431Y392D01*
X2449Y392D02*
X2452Y392D01*
X2470Y392D02*
X2473Y392D01*
X2485Y392D02*
X2488Y392D01*
X3063Y392D02*
X3070Y392D01*
X0Y391D02*
X7Y391D01*
X2364Y391D02*
X2373Y391D01*
X2385Y391D02*
X2388Y391D01*
X2413Y391D02*
X2431Y391D01*
X2449Y391D02*
X2452Y391D01*
X2470Y391D02*
X2473Y391D01*
X2485Y391D02*
X2488Y391D01*
X3063Y391D02*
X3070Y391D01*
X0Y390D02*
X7Y390D01*
X2364Y390D02*
X2373Y390D01*
X2385Y390D02*
X2388Y390D01*
X2396Y390D02*
X2403Y390D01*
X2413Y390D02*
X2430Y390D01*
X2449Y390D02*
X2452Y390D01*
X2470Y390D02*
X2473Y390D01*
X2485Y390D02*
X2488Y390D01*
X3063Y390D02*
X3070Y390D01*
X0Y389D02*
X7Y389D01*
X2364Y389D02*
X2373Y389D01*
X2385Y389D02*
X2388Y389D01*
X2395Y389D02*
X2403Y389D01*
X2413Y389D02*
X2429Y389D01*
X2449Y389D02*
X2452Y389D01*
X2470Y389D02*
X2474Y389D01*
X2485Y389D02*
X2488Y389D01*
X3063Y389D02*
X3070Y389D01*
X0Y388D02*
X7Y388D01*
X2364Y388D02*
X2373Y388D01*
X2385Y388D02*
X2388Y388D01*
X2394Y388D02*
X2403Y388D01*
X2413Y388D02*
X2427Y388D01*
X2449Y388D02*
X2452Y388D01*
X2471Y388D02*
X2474Y388D01*
X2484Y388D02*
X2488Y388D01*
X3063Y388D02*
X3070Y388D01*
X0Y387D02*
X7Y387D01*
X2364Y387D02*
X2373Y387D01*
X2385Y387D02*
X2388Y387D01*
X2395Y387D02*
X2403Y387D01*
X2413Y387D02*
X2416Y387D01*
X2449Y387D02*
X2452Y387D01*
X2471Y387D02*
X2475Y387D01*
X2484Y387D02*
X2487Y387D01*
X3063Y387D02*
X3070Y387D01*
X0Y386D02*
X7Y386D01*
X2364Y386D02*
X2373Y386D01*
X2385Y386D02*
X2388Y386D01*
X2400Y386D02*
X2403Y386D01*
X2413Y386D02*
X2416Y386D01*
X2449Y386D02*
X2452Y386D01*
X2472Y386D02*
X2475Y386D01*
X2483Y386D02*
X2487Y386D01*
X3063Y386D02*
X3070Y386D01*
X0Y385D02*
X7Y385D01*
X2364Y385D02*
X2373Y385D01*
X2385Y385D02*
X2388Y385D01*
X2400Y385D02*
X2403Y385D01*
X2413Y385D02*
X2416Y385D01*
X2449Y385D02*
X2452Y385D01*
X2472Y385D02*
X2476Y385D01*
X2483Y385D02*
X2486Y385D01*
X3063Y385D02*
X3070Y385D01*
X0Y384D02*
X7Y384D01*
X2364Y384D02*
X2373Y384D01*
X2385Y384D02*
X2388Y384D01*
X2400Y384D02*
X2403Y384D01*
X2413Y384D02*
X2416Y384D01*
X2449Y384D02*
X2452Y384D01*
X2473Y384D02*
X2476Y384D01*
X2482Y384D02*
X2486Y384D01*
X3063Y384D02*
X3070Y384D01*
X0Y383D02*
X7Y383D01*
X2364Y383D02*
X2373Y383D01*
X2385Y383D02*
X2388Y383D01*
X2400Y383D02*
X2403Y383D01*
X2413Y383D02*
X2416Y383D01*
X2449Y383D02*
X2452Y383D01*
X2473Y383D02*
X2477Y383D01*
X2482Y383D02*
X2485Y383D01*
X3063Y383D02*
X3070Y383D01*
X0Y382D02*
X7Y382D01*
X2364Y382D02*
X2373Y382D01*
X2385Y382D02*
X2388Y382D01*
X2400Y382D02*
X2403Y382D01*
X2413Y382D02*
X2416Y382D01*
X2449Y382D02*
X2452Y382D01*
X2474Y382D02*
X2477Y382D01*
X2481Y382D02*
X2485Y382D01*
X3063Y382D02*
X3070Y382D01*
X0Y381D02*
X7Y381D01*
X2364Y381D02*
X2373Y381D01*
X2385Y381D02*
X2388Y381D01*
X2400Y381D02*
X2403Y381D01*
X2413Y381D02*
X2416Y381D01*
X2449Y381D02*
X2452Y381D01*
X2474Y381D02*
X2478Y381D01*
X2481Y381D02*
X2484Y381D01*
X3063Y381D02*
X3070Y381D01*
X0Y380D02*
X7Y380D01*
X2364Y380D02*
X2373Y380D01*
X2385Y380D02*
X2403Y380D01*
X2413Y380D02*
X2416Y380D01*
X2443Y380D02*
X2459Y380D01*
X2475Y380D02*
X2484Y380D01*
X3063Y380D02*
X3070Y380D01*
X0Y379D02*
X7Y379D01*
X2364Y379D02*
X2373Y379D01*
X2386Y379D02*
X2402Y379D01*
X2413Y379D02*
X2416Y379D01*
X2442Y379D02*
X2460Y379D01*
X2475Y379D02*
X2483Y379D01*
X3063Y379D02*
X3070Y379D01*
X0Y378D02*
X7Y378D01*
X2364Y378D02*
X2373Y378D01*
X2386Y378D02*
X2401Y378D01*
X2413Y378D02*
X2416Y378D01*
X2442Y378D02*
X2460Y378D01*
X2476Y378D02*
X2483Y378D01*
X3063Y378D02*
X3070Y378D01*
X0Y377D02*
X7Y377D01*
X2364Y377D02*
X2373Y377D01*
X2388Y377D02*
X2400Y377D01*
X2413Y377D02*
X2416Y377D01*
X2442Y377D02*
X2460Y377D01*
X2477Y377D02*
X2482Y377D01*
X3063Y377D02*
X3070Y377D01*
X0Y376D02*
X7Y376D01*
X2364Y376D02*
X2373Y376D01*
X3063Y376D02*
X3070Y376D01*
X0Y375D02*
X7Y375D01*
X2364Y375D02*
X2373Y375D01*
X3063Y375D02*
X3070Y375D01*
X0Y374D02*
X7Y374D01*
X2364Y374D02*
X2373Y374D01*
X3063Y374D02*
X3070Y374D01*
X0Y373D02*
X7Y373D01*
X2364Y373D02*
X2373Y373D01*
X3063Y373D02*
X3070Y373D01*
X0Y372D02*
X7Y372D01*
X2364Y372D02*
X2373Y372D01*
X3063Y372D02*
X3070Y372D01*
X0Y371D02*
X7Y371D01*
X2364Y371D02*
X2373Y371D01*
X3063Y371D02*
X3070Y371D01*
X0Y370D02*
X7Y370D01*
X2364Y370D02*
X2373Y370D01*
X3063Y370D02*
X3070Y370D01*
X0Y369D02*
X7Y369D01*
X2364Y369D02*
X2373Y369D01*
X3063Y369D02*
X3070Y369D01*
X0Y368D02*
X7Y368D01*
X2364Y368D02*
X2373Y368D01*
X3063Y368D02*
X3070Y368D01*
X0Y367D02*
X7Y367D01*
X2364Y367D02*
X2373Y367D01*
X3063Y367D02*
X3070Y367D01*
X0Y366D02*
X7Y366D01*
X2364Y366D02*
X2373Y366D01*
X3063Y366D02*
X3070Y366D01*
X0Y365D02*
X7Y365D01*
X2364Y365D02*
X2373Y365D01*
X3063Y365D02*
X3070Y365D01*
X0Y364D02*
X7Y364D01*
X2364Y364D02*
X2373Y364D01*
X3063Y364D02*
X3070Y364D01*
X0Y363D02*
X7Y363D01*
X2364Y363D02*
X2373Y363D01*
X3063Y363D02*
X3070Y363D01*
X0Y362D02*
X7Y362D01*
X2364Y362D02*
X2373Y362D01*
X3063Y362D02*
X3070Y362D01*
X0Y361D02*
X7Y361D01*
X2364Y361D02*
X2373Y361D01*
X3063Y361D02*
X3070Y361D01*
X0Y360D02*
X7Y360D01*
X2364Y360D02*
X2373Y360D01*
X3063Y360D02*
X3070Y360D01*
X0Y359D02*
X7Y359D01*
X2364Y359D02*
X2373Y359D01*
X3063Y359D02*
X3070Y359D01*
X0Y358D02*
X7Y358D01*
X2364Y358D02*
X2373Y358D01*
X3063Y358D02*
X3070Y358D01*
X0Y357D02*
X7Y357D01*
X2364Y357D02*
X2373Y357D01*
X3063Y357D02*
X3070Y357D01*
X0Y356D02*
X7Y356D01*
X2364Y356D02*
X2373Y356D01*
X3063Y356D02*
X3070Y356D01*
X0Y355D02*
X7Y355D01*
X2364Y355D02*
X2373Y355D01*
X3063Y355D02*
X3070Y355D01*
X0Y354D02*
X7Y354D01*
X2364Y354D02*
X2373Y354D01*
X3063Y354D02*
X3070Y354D01*
X0Y353D02*
X7Y353D01*
X2364Y353D02*
X2373Y353D01*
X3063Y353D02*
X3070Y353D01*
X0Y352D02*
X7Y352D01*
X2364Y352D02*
X2373Y352D01*
X3063Y352D02*
X3070Y352D01*
X0Y351D02*
X7Y351D01*
X2364Y351D02*
X2373Y351D01*
X3063Y351D02*
X3070Y351D01*
X0Y350D02*
X7Y350D01*
X2364Y350D02*
X2373Y350D01*
X3063Y350D02*
X3070Y350D01*
X0Y349D02*
X7Y349D01*
X2364Y349D02*
X2373Y349D01*
X3063Y349D02*
X3070Y349D01*
X0Y348D02*
X7Y348D01*
X2364Y348D02*
X2373Y348D01*
X3063Y348D02*
X3070Y348D01*
X0Y347D02*
X7Y347D01*
X2364Y347D02*
X2373Y347D01*
X3063Y347D02*
X3070Y347D01*
X0Y346D02*
X7Y346D01*
X2364Y346D02*
X2373Y346D01*
X3063Y346D02*
X3070Y346D01*
X0Y345D02*
X7Y345D01*
X2364Y345D02*
X2373Y345D01*
X3063Y345D02*
X3070Y345D01*
X0Y344D02*
X7Y344D01*
X2364Y344D02*
X2373Y344D01*
X3063Y344D02*
X3070Y344D01*
X0Y343D02*
X7Y343D01*
X2364Y343D02*
X2373Y343D01*
X3063Y343D02*
X3070Y343D01*
X0Y342D02*
X7Y342D01*
X2364Y342D02*
X2373Y342D01*
X3063Y342D02*
X3070Y342D01*
X0Y341D02*
X7Y341D01*
X2364Y341D02*
X2373Y341D01*
X3063Y341D02*
X3070Y341D01*
X0Y340D02*
X7Y340D01*
X2364Y340D02*
X2373Y340D01*
X3063Y340D02*
X3070Y340D01*
X0Y339D02*
X7Y339D01*
X2364Y339D02*
X2373Y339D01*
X3063Y339D02*
X3070Y339D01*
X0Y338D02*
X7Y338D01*
X2364Y338D02*
X2373Y338D01*
X3063Y338D02*
X3070Y338D01*
X0Y337D02*
X7Y337D01*
X2364Y337D02*
X2373Y337D01*
X3063Y337D02*
X3070Y337D01*
X0Y336D02*
X7Y336D01*
X2364Y336D02*
X2373Y336D01*
X3063Y336D02*
X3070Y336D01*
X0Y335D02*
X7Y335D01*
X2364Y335D02*
X2373Y335D01*
X3063Y335D02*
X3070Y335D01*
X0Y334D02*
X7Y334D01*
X2364Y334D02*
X2373Y334D01*
X3063Y334D02*
X3070Y334D01*
X0Y333D02*
X7Y333D01*
X2364Y333D02*
X2373Y333D01*
X3063Y333D02*
X3070Y333D01*
X0Y332D02*
X7Y332D01*
X2364Y332D02*
X2373Y332D01*
X3063Y332D02*
X3070Y332D01*
X0Y331D02*
X7Y331D01*
X2364Y331D02*
X2373Y331D01*
X3063Y331D02*
X3070Y331D01*
X0Y330D02*
X7Y330D01*
X2364Y330D02*
X2373Y330D01*
X3063Y330D02*
X3070Y330D01*
X0Y329D02*
X7Y329D01*
X2364Y329D02*
X2373Y329D01*
X3063Y329D02*
X3070Y329D01*
X0Y328D02*
X7Y328D01*
X2364Y328D02*
X2373Y328D01*
X3063Y328D02*
X3070Y328D01*
X0Y327D02*
X7Y327D01*
X2364Y327D02*
X2373Y327D01*
X3063Y327D02*
X3070Y327D01*
X0Y326D02*
X7Y326D01*
X2364Y326D02*
X2373Y326D01*
X3063Y326D02*
X3070Y326D01*
X0Y325D02*
X7Y325D01*
X2364Y325D02*
X2373Y325D01*
X3063Y325D02*
X3070Y325D01*
X0Y324D02*
X7Y324D01*
X2364Y324D02*
X2373Y324D01*
X3063Y324D02*
X3070Y324D01*
X0Y323D02*
X7Y323D01*
X2364Y323D02*
X2373Y323D01*
X3063Y323D02*
X3070Y323D01*
X0Y322D02*
X7Y322D01*
X2364Y322D02*
X2373Y322D01*
X3063Y322D02*
X3070Y322D01*
X0Y321D02*
X7Y321D01*
X2364Y321D02*
X2373Y321D01*
X3063Y321D02*
X3070Y321D01*
X0Y320D02*
X7Y320D01*
X2364Y320D02*
X2373Y320D01*
X3063Y320D02*
X3070Y320D01*
X0Y319D02*
X7Y319D01*
X2364Y319D02*
X2373Y319D01*
X3063Y319D02*
X3070Y319D01*
X0Y318D02*
X7Y318D01*
X2364Y318D02*
X2373Y318D01*
X3063Y318D02*
X3070Y318D01*
X0Y317D02*
X7Y317D01*
X2364Y317D02*
X2373Y317D01*
X3063Y317D02*
X3070Y317D01*
X0Y316D02*
X7Y316D01*
X2364Y316D02*
X2373Y316D01*
X3063Y316D02*
X3070Y316D01*
X0Y315D02*
X7Y315D01*
X2364Y315D02*
X2373Y315D01*
X3063Y315D02*
X3070Y315D01*
X0Y314D02*
X7Y314D01*
X2364Y314D02*
X2373Y314D01*
X3063Y314D02*
X3070Y314D01*
X0Y313D02*
X7Y313D01*
X2364Y313D02*
X2373Y313D01*
X3063Y313D02*
X3070Y313D01*
X0Y312D02*
X7Y312D01*
X2364Y312D02*
X2373Y312D01*
X3063Y312D02*
X3070Y312D01*
X0Y311D02*
X7Y311D01*
X2364Y311D02*
X2367Y311D01*
X3063Y311D02*
X3070Y311D01*
X0Y310D02*
X7Y310D01*
X2364Y310D02*
X2367Y310D01*
X3063Y310D02*
X3070Y310D01*
X0Y309D02*
X7Y309D01*
X2364Y309D02*
X2367Y309D01*
X3063Y309D02*
X3070Y309D01*
X0Y308D02*
X7Y308D01*
X2364Y308D02*
X2367Y308D01*
X3063Y308D02*
X3070Y308D01*
X0Y307D02*
X7Y307D01*
X2364Y307D02*
X2367Y307D01*
X3063Y307D02*
X3070Y307D01*
X0Y306D02*
X7Y306D01*
X2364Y306D02*
X2367Y306D01*
X2473Y306D02*
X2667Y306D01*
X3063Y306D02*
X3070Y306D01*
X0Y305D02*
X7Y305D01*
X2364Y305D02*
X2367Y305D01*
X2473Y305D02*
X2667Y305D01*
X3063Y305D02*
X3070Y305D01*
X0Y304D02*
X7Y304D01*
X2364Y304D02*
X2367Y304D01*
X2473Y304D02*
X2667Y304D01*
X3063Y304D02*
X3070Y304D01*
X0Y303D02*
X7Y303D01*
X2364Y303D02*
X2367Y303D01*
X2473Y303D02*
X2667Y303D01*
X3063Y303D02*
X3070Y303D01*
X0Y302D02*
X7Y302D01*
X2364Y302D02*
X2367Y302D01*
X2473Y302D02*
X2667Y302D01*
X3063Y302D02*
X3070Y302D01*
X0Y301D02*
X7Y301D01*
X2364Y301D02*
X2367Y301D01*
X2470Y301D02*
X2672Y301D01*
X3063Y301D02*
X3070Y301D01*
X0Y300D02*
X7Y300D01*
X2364Y300D02*
X2367Y300D01*
X2470Y300D02*
X2672Y300D01*
X3063Y300D02*
X3070Y300D01*
X0Y299D02*
X7Y299D01*
X2364Y299D02*
X2367Y299D01*
X2470Y299D02*
X2672Y299D01*
X3063Y299D02*
X3070Y299D01*
X0Y298D02*
X7Y298D01*
X2364Y298D02*
X2367Y298D01*
X2470Y298D02*
X2672Y298D01*
X3063Y298D02*
X3070Y298D01*
X0Y297D02*
X7Y297D01*
X2364Y297D02*
X2367Y297D01*
X2470Y297D02*
X2672Y297D01*
X3063Y297D02*
X3070Y297D01*
X0Y296D02*
X7Y296D01*
X2364Y296D02*
X2367Y296D01*
X2470Y296D02*
X2477Y296D01*
X2663Y296D02*
X2672Y296D01*
X3063Y296D02*
X3070Y296D01*
X0Y295D02*
X7Y295D01*
X2364Y295D02*
X2367Y295D01*
X2470Y295D02*
X2477Y295D01*
X2663Y295D02*
X2672Y295D01*
X3063Y295D02*
X3070Y295D01*
X0Y294D02*
X7Y294D01*
X2364Y294D02*
X2367Y294D01*
X2470Y294D02*
X2477Y294D01*
X2663Y294D02*
X2672Y294D01*
X3063Y294D02*
X3070Y294D01*
X0Y293D02*
X7Y293D01*
X2364Y293D02*
X2367Y293D01*
X2470Y293D02*
X2477Y293D01*
X2663Y293D02*
X2672Y293D01*
X3063Y293D02*
X3070Y293D01*
X0Y292D02*
X7Y292D01*
X2364Y292D02*
X2367Y292D01*
X2470Y292D02*
X2477Y292D01*
X2663Y292D02*
X2672Y292D01*
X3063Y292D02*
X3070Y292D01*
X0Y291D02*
X7Y291D01*
X2364Y291D02*
X2367Y291D01*
X2470Y291D02*
X2477Y291D01*
X2663Y291D02*
X2672Y291D01*
X3063Y291D02*
X3070Y291D01*
X0Y290D02*
X7Y290D01*
X2364Y290D02*
X2367Y290D01*
X2470Y290D02*
X2477Y290D01*
X2663Y290D02*
X2672Y290D01*
X3063Y290D02*
X3070Y290D01*
X0Y289D02*
X7Y289D01*
X2364Y289D02*
X2367Y289D01*
X2470Y289D02*
X2477Y289D01*
X2663Y289D02*
X2672Y289D01*
X3063Y289D02*
X3070Y289D01*
X0Y288D02*
X7Y288D01*
X2364Y288D02*
X2367Y288D01*
X2470Y288D02*
X2477Y288D01*
X2663Y288D02*
X2672Y288D01*
X3063Y288D02*
X3070Y288D01*
X0Y287D02*
X7Y287D01*
X2364Y287D02*
X2367Y287D01*
X2470Y287D02*
X2477Y287D01*
X2663Y287D02*
X2672Y287D01*
X3063Y287D02*
X3070Y287D01*
X0Y286D02*
X7Y286D01*
X2364Y286D02*
X2367Y286D01*
X2470Y286D02*
X2477Y286D01*
X2663Y286D02*
X2672Y286D01*
X3063Y286D02*
X3070Y286D01*
X0Y285D02*
X7Y285D01*
X2364Y285D02*
X2367Y285D01*
X2470Y285D02*
X2477Y285D01*
X2481Y285D02*
X2509Y285D01*
X2531Y285D02*
X2559Y285D01*
X2598Y285D02*
X2614Y285D01*
X2632Y285D02*
X2640Y285D01*
X2657Y285D02*
X2672Y285D01*
X3063Y285D02*
X3070Y285D01*
X0Y284D02*
X7Y284D01*
X2364Y284D02*
X2367Y284D01*
X2470Y284D02*
X2477Y284D01*
X2481Y284D02*
X2510Y284D01*
X2531Y284D02*
X2560Y284D01*
X2596Y284D02*
X2615Y284D01*
X2632Y284D02*
X2641Y284D01*
X2656Y284D02*
X2672Y284D01*
X3063Y284D02*
X3070Y284D01*
X0Y283D02*
X7Y283D01*
X2364Y283D02*
X2367Y283D01*
X2470Y283D02*
X2477Y283D01*
X2481Y283D02*
X2511Y283D01*
X2531Y283D02*
X2562Y283D01*
X2595Y283D02*
X2615Y283D01*
X2632Y283D02*
X2642Y283D01*
X2655Y283D02*
X2672Y283D01*
X3063Y283D02*
X3070Y283D01*
X0Y282D02*
X7Y282D01*
X2364Y282D02*
X2367Y282D01*
X2470Y282D02*
X2477Y282D01*
X2481Y282D02*
X2512Y282D01*
X2531Y282D02*
X2562Y282D01*
X2594Y282D02*
X2615Y282D01*
X2632Y282D02*
X2642Y282D01*
X2655Y282D02*
X2672Y282D01*
X3063Y282D02*
X3070Y282D01*
X0Y281D02*
X7Y281D01*
X2364Y281D02*
X2367Y281D01*
X2470Y281D02*
X2477Y281D01*
X2481Y281D02*
X2513Y281D01*
X2531Y281D02*
X2563Y281D01*
X2593Y281D02*
X2615Y281D01*
X2632Y281D02*
X2643Y281D01*
X2654Y281D02*
X2672Y281D01*
X3063Y281D02*
X3070Y281D01*
X0Y280D02*
X7Y280D01*
X2364Y280D02*
X2367Y280D01*
X2470Y280D02*
X2477Y280D01*
X2481Y280D02*
X2514Y280D01*
X2531Y280D02*
X2564Y280D01*
X2592Y280D02*
X2614Y280D01*
X2632Y280D02*
X2644Y280D01*
X2653Y280D02*
X2672Y280D01*
X3063Y280D02*
X3070Y280D01*
X0Y279D02*
X7Y279D01*
X2364Y279D02*
X2367Y279D01*
X2470Y279D02*
X2477Y279D01*
X2481Y279D02*
X2514Y279D01*
X2531Y279D02*
X2564Y279D01*
X2592Y279D02*
X2612Y279D01*
X2632Y279D02*
X2644Y279D01*
X2653Y279D02*
X2671Y279D01*
X3063Y279D02*
X3070Y279D01*
X0Y278D02*
X7Y278D01*
X2364Y278D02*
X2367Y278D01*
X2470Y278D02*
X2477Y278D01*
X2481Y278D02*
X2487Y278D01*
X2507Y278D02*
X2514Y278D01*
X2531Y278D02*
X2537Y278D01*
X2558Y278D02*
X2565Y278D01*
X2591Y278D02*
X2599Y278D01*
X2632Y278D02*
X2645Y278D01*
X2652Y278D02*
X2671Y278D01*
X3063Y278D02*
X3070Y278D01*
X0Y277D02*
X7Y277D01*
X2364Y277D02*
X2367Y277D01*
X2470Y277D02*
X2477Y277D01*
X2481Y277D02*
X2487Y277D01*
X2508Y277D02*
X2515Y277D01*
X2531Y277D02*
X2537Y277D01*
X2558Y277D02*
X2565Y277D01*
X2590Y277D02*
X2598Y277D01*
X2632Y277D02*
X2646Y277D01*
X2651Y277D02*
X2670Y277D01*
X3063Y277D02*
X3070Y277D01*
X0Y276D02*
X7Y276D01*
X2364Y276D02*
X2367Y276D01*
X2470Y276D02*
X2477Y276D01*
X2481Y276D02*
X2487Y276D01*
X2509Y276D02*
X2515Y276D01*
X2531Y276D02*
X2537Y276D01*
X2559Y276D02*
X2565Y276D01*
X2589Y276D02*
X2597Y276D01*
X2632Y276D02*
X2646Y276D01*
X2651Y276D02*
X2670Y276D01*
X3063Y276D02*
X3070Y276D01*
X0Y275D02*
X7Y275D01*
X2364Y275D02*
X2367Y275D01*
X2470Y275D02*
X2477Y275D01*
X2481Y275D02*
X2487Y275D01*
X2509Y275D02*
X2515Y275D01*
X2531Y275D02*
X2537Y275D01*
X2559Y275D02*
X2565Y275D01*
X2589Y275D02*
X2596Y275D01*
X2632Y275D02*
X2638Y275D01*
X2640Y275D02*
X2647Y275D01*
X2650Y275D02*
X2657Y275D01*
X2659Y275D02*
X2670Y275D01*
X3063Y275D02*
X3070Y275D01*
X0Y274D02*
X7Y274D01*
X2364Y274D02*
X2367Y274D01*
X2470Y274D02*
X2477Y274D01*
X2481Y274D02*
X2487Y274D01*
X2509Y274D02*
X2515Y274D01*
X2531Y274D02*
X2537Y274D01*
X2559Y274D02*
X2565Y274D01*
X2588Y274D02*
X2596Y274D01*
X2632Y274D02*
X2638Y274D01*
X2640Y274D02*
X2657Y274D01*
X2659Y274D02*
X2669Y274D01*
X3063Y274D02*
X3070Y274D01*
X0Y273D02*
X7Y273D01*
X2364Y273D02*
X2367Y273D01*
X2470Y273D02*
X2477Y273D01*
X2481Y273D02*
X2487Y273D01*
X2509Y273D02*
X2515Y273D01*
X2531Y273D02*
X2537Y273D01*
X2559Y273D02*
X2565Y273D01*
X2587Y273D02*
X2595Y273D01*
X2632Y273D02*
X2638Y273D01*
X2641Y273D02*
X2656Y273D01*
X2659Y273D02*
X2669Y273D01*
X3063Y273D02*
X3070Y273D01*
X0Y272D02*
X7Y272D01*
X2364Y272D02*
X2367Y272D01*
X2470Y272D02*
X2477Y272D01*
X2481Y272D02*
X2487Y272D01*
X2509Y272D02*
X2515Y272D01*
X2531Y272D02*
X2537Y272D01*
X2559Y272D02*
X2565Y272D01*
X2586Y272D02*
X2594Y272D01*
X2632Y272D02*
X2638Y272D01*
X2642Y272D02*
X2655Y272D01*
X2659Y272D02*
X2669Y272D01*
X3063Y272D02*
X3070Y272D01*
X0Y271D02*
X7Y271D01*
X2364Y271D02*
X2367Y271D01*
X2470Y271D02*
X2477Y271D01*
X2481Y271D02*
X2487Y271D01*
X2509Y271D02*
X2515Y271D01*
X2531Y271D02*
X2537Y271D01*
X2559Y271D02*
X2565Y271D01*
X2585Y271D02*
X2593Y271D01*
X2632Y271D02*
X2638Y271D01*
X2642Y271D02*
X2655Y271D01*
X2659Y271D02*
X2668Y271D01*
X3063Y271D02*
X3070Y271D01*
X0Y270D02*
X7Y270D01*
X2364Y270D02*
X2367Y270D01*
X2470Y270D02*
X2477Y270D01*
X2481Y270D02*
X2487Y270D01*
X2509Y270D02*
X2515Y270D01*
X2531Y270D02*
X2537Y270D01*
X2558Y270D02*
X2565Y270D01*
X2585Y270D02*
X2593Y270D01*
X2632Y270D02*
X2638Y270D01*
X2643Y270D02*
X2654Y270D01*
X2659Y270D02*
X2668Y270D01*
X3063Y270D02*
X3070Y270D01*
X0Y269D02*
X7Y269D01*
X2364Y269D02*
X2367Y269D01*
X2470Y269D02*
X2477Y269D01*
X2481Y269D02*
X2487Y269D01*
X2509Y269D02*
X2515Y269D01*
X2531Y269D02*
X2537Y269D01*
X2557Y269D02*
X2564Y269D01*
X2584Y269D02*
X2592Y269D01*
X2632Y269D02*
X2638Y269D01*
X2644Y269D02*
X2653Y269D01*
X2659Y269D02*
X2668Y269D01*
X3063Y269D02*
X3070Y269D01*
X0Y268D02*
X7Y268D01*
X2364Y268D02*
X2367Y268D01*
X2470Y268D02*
X2477Y268D01*
X2481Y268D02*
X2487Y268D01*
X2509Y268D02*
X2515Y268D01*
X2531Y268D02*
X2564Y268D01*
X2583Y268D02*
X2591Y268D01*
X2632Y268D02*
X2638Y268D01*
X2644Y268D02*
X2652Y268D01*
X2659Y268D02*
X2668Y268D01*
X3063Y268D02*
X3070Y268D01*
X0Y267D02*
X7Y267D01*
X2364Y267D02*
X2367Y267D01*
X2470Y267D02*
X2477Y267D01*
X2481Y267D02*
X2487Y267D01*
X2509Y267D02*
X2515Y267D01*
X2531Y267D02*
X2564Y267D01*
X2583Y267D02*
X2590Y267D01*
X2632Y267D02*
X2638Y267D01*
X2645Y267D02*
X2652Y267D01*
X2659Y267D02*
X2668Y267D01*
X3063Y267D02*
X3070Y267D01*
X0Y266D02*
X7Y266D01*
X2364Y266D02*
X2367Y266D01*
X2470Y266D02*
X2477Y266D01*
X2481Y266D02*
X2487Y266D01*
X2509Y266D02*
X2515Y266D01*
X2531Y266D02*
X2563Y266D01*
X2582Y266D02*
X2589Y266D01*
X2632Y266D02*
X2638Y266D01*
X2645Y266D02*
X2651Y266D01*
X2659Y266D02*
X2667Y266D01*
X3063Y266D02*
X3070Y266D01*
X0Y265D02*
X7Y265D01*
X2364Y265D02*
X2367Y265D01*
X2470Y265D02*
X2477Y265D01*
X2481Y265D02*
X2487Y265D01*
X2509Y265D02*
X2515Y265D01*
X2531Y265D02*
X2562Y265D01*
X2582Y265D02*
X2589Y265D01*
X2632Y265D02*
X2638Y265D01*
X2645Y265D02*
X2651Y265D01*
X2659Y265D02*
X2667Y265D01*
X3063Y265D02*
X3070Y265D01*
X0Y264D02*
X7Y264D01*
X2364Y264D02*
X2367Y264D01*
X2470Y264D02*
X2477Y264D01*
X2481Y264D02*
X2487Y264D01*
X2509Y264D02*
X2515Y264D01*
X2531Y264D02*
X2561Y264D01*
X2582Y264D02*
X2588Y264D01*
X2632Y264D02*
X2638Y264D01*
X2646Y264D02*
X2651Y264D01*
X2659Y264D02*
X2667Y264D01*
X3063Y264D02*
X3070Y264D01*
X0Y263D02*
X7Y263D01*
X2364Y263D02*
X2367Y263D01*
X2470Y263D02*
X2477Y263D01*
X2481Y263D02*
X2487Y263D01*
X2509Y263D02*
X2515Y263D01*
X2531Y263D02*
X2560Y263D01*
X2582Y263D02*
X2588Y263D01*
X2632Y263D02*
X2638Y263D01*
X2646Y263D02*
X2651Y263D01*
X2659Y263D02*
X2667Y263D01*
X3063Y263D02*
X3070Y263D01*
X0Y262D02*
X7Y262D01*
X2364Y262D02*
X2367Y262D01*
X2470Y262D02*
X2477Y262D01*
X2481Y262D02*
X2487Y262D01*
X2508Y262D02*
X2515Y262D01*
X2531Y262D02*
X2558Y262D01*
X2582Y262D02*
X2588Y262D01*
X2632Y262D02*
X2638Y262D01*
X2647Y262D02*
X2650Y262D01*
X2659Y262D02*
X2667Y262D01*
X3063Y262D02*
X3070Y262D01*
X0Y261D02*
X7Y261D01*
X2364Y261D02*
X2367Y261D01*
X2470Y261D02*
X2477Y261D01*
X2481Y261D02*
X2487Y261D01*
X2508Y261D02*
X2514Y261D01*
X2531Y261D02*
X2537Y261D01*
X2543Y261D02*
X2551Y261D01*
X2582Y261D02*
X2588Y261D01*
X2632Y261D02*
X2638Y261D01*
X2659Y261D02*
X2667Y261D01*
X3063Y261D02*
X3070Y261D01*
X0Y260D02*
X7Y260D01*
X2364Y260D02*
X2367Y260D01*
X2470Y260D02*
X2477Y260D01*
X2481Y260D02*
X2487Y260D01*
X2507Y260D02*
X2514Y260D01*
X2531Y260D02*
X2537Y260D01*
X2544Y260D02*
X2551Y260D01*
X2582Y260D02*
X2588Y260D01*
X2632Y260D02*
X2638Y260D01*
X2659Y260D02*
X2667Y260D01*
X3063Y260D02*
X3070Y260D01*
X0Y259D02*
X7Y259D01*
X2364Y259D02*
X2367Y259D01*
X2470Y259D02*
X2477Y259D01*
X2481Y259D02*
X2514Y259D01*
X2531Y259D02*
X2537Y259D01*
X2544Y259D02*
X2552Y259D01*
X2582Y259D02*
X2588Y259D01*
X2632Y259D02*
X2638Y259D01*
X2659Y259D02*
X2667Y259D01*
X3063Y259D02*
X3070Y259D01*
X0Y258D02*
X7Y258D01*
X2364Y258D02*
X2367Y258D01*
X2470Y258D02*
X2477Y258D01*
X2481Y258D02*
X2513Y258D01*
X2531Y258D02*
X2537Y258D01*
X2545Y258D02*
X2552Y258D01*
X2582Y258D02*
X2588Y258D01*
X2632Y258D02*
X2638Y258D01*
X2659Y258D02*
X2667Y258D01*
X3063Y258D02*
X3070Y258D01*
X0Y257D02*
X7Y257D01*
X2364Y257D02*
X2367Y257D01*
X2470Y257D02*
X2477Y257D01*
X2481Y257D02*
X2513Y257D01*
X2531Y257D02*
X2537Y257D01*
X2546Y257D02*
X2553Y257D01*
X2582Y257D02*
X2588Y257D01*
X2632Y257D02*
X2638Y257D01*
X2659Y257D02*
X2667Y257D01*
X3063Y257D02*
X3070Y257D01*
X0Y256D02*
X7Y256D01*
X2364Y256D02*
X2367Y256D01*
X2470Y256D02*
X2477Y256D01*
X2481Y256D02*
X2512Y256D01*
X2531Y256D02*
X2537Y256D01*
X2546Y256D02*
X2553Y256D01*
X2582Y256D02*
X2588Y256D01*
X2600Y256D02*
X2615Y256D01*
X2632Y256D02*
X2638Y256D01*
X2659Y256D02*
X2667Y256D01*
X3063Y256D02*
X3070Y256D01*
X0Y255D02*
X7Y255D01*
X2364Y255D02*
X2367Y255D01*
X2470Y255D02*
X2477Y255D01*
X2481Y255D02*
X2511Y255D01*
X2531Y255D02*
X2537Y255D01*
X2547Y255D02*
X2554Y255D01*
X2582Y255D02*
X2588Y255D01*
X2599Y255D02*
X2615Y255D01*
X2632Y255D02*
X2638Y255D01*
X2659Y255D02*
X2667Y255D01*
X3063Y255D02*
X3070Y255D01*
X0Y254D02*
X7Y254D01*
X2364Y254D02*
X2367Y254D01*
X2470Y254D02*
X2477Y254D01*
X2481Y254D02*
X2510Y254D01*
X2531Y254D02*
X2537Y254D01*
X2547Y254D02*
X2555Y254D01*
X2582Y254D02*
X2588Y254D01*
X2599Y254D02*
X2615Y254D01*
X2632Y254D02*
X2638Y254D01*
X2659Y254D02*
X2667Y254D01*
X3063Y254D02*
X3070Y254D01*
X0Y253D02*
X7Y253D01*
X2364Y253D02*
X2367Y253D01*
X2470Y253D02*
X2477Y253D01*
X2481Y253D02*
X2507Y253D01*
X2531Y253D02*
X2537Y253D01*
X2548Y253D02*
X2555Y253D01*
X2582Y253D02*
X2588Y253D01*
X2599Y253D02*
X2615Y253D01*
X2632Y253D02*
X2638Y253D01*
X2659Y253D02*
X2668Y253D01*
X3063Y253D02*
X3070Y253D01*
X0Y252D02*
X7Y252D01*
X2364Y252D02*
X2367Y252D01*
X2470Y252D02*
X2477Y252D01*
X2481Y252D02*
X2487Y252D01*
X2531Y252D02*
X2537Y252D01*
X2549Y252D02*
X2556Y252D01*
X2582Y252D02*
X2588Y252D01*
X2599Y252D02*
X2615Y252D01*
X2632Y252D02*
X2638Y252D01*
X2659Y252D02*
X2668Y252D01*
X3063Y252D02*
X3070Y252D01*
X0Y251D02*
X7Y251D01*
X2364Y251D02*
X2367Y251D01*
X2470Y251D02*
X2477Y251D01*
X2481Y251D02*
X2487Y251D01*
X2531Y251D02*
X2537Y251D01*
X2549Y251D02*
X2556Y251D01*
X2582Y251D02*
X2588Y251D01*
X2599Y251D02*
X2615Y251D01*
X2632Y251D02*
X2638Y251D01*
X2659Y251D02*
X2668Y251D01*
X3063Y251D02*
X3070Y251D01*
X0Y250D02*
X7Y250D01*
X2364Y250D02*
X2367Y250D01*
X2470Y250D02*
X2477Y250D01*
X2481Y250D02*
X2487Y250D01*
X2531Y250D02*
X2537Y250D01*
X2550Y250D02*
X2557Y250D01*
X2582Y250D02*
X2588Y250D01*
X2601Y250D02*
X2615Y250D01*
X2632Y250D02*
X2638Y250D01*
X2659Y250D02*
X2668Y250D01*
X3063Y250D02*
X3070Y250D01*
X0Y249D02*
X7Y249D01*
X2364Y249D02*
X2367Y249D01*
X2470Y249D02*
X2477Y249D01*
X2481Y249D02*
X2487Y249D01*
X2531Y249D02*
X2537Y249D01*
X2550Y249D02*
X2557Y249D01*
X2582Y249D02*
X2588Y249D01*
X2609Y249D02*
X2615Y249D01*
X2632Y249D02*
X2638Y249D01*
X2659Y249D02*
X2668Y249D01*
X3063Y249D02*
X3070Y249D01*
X0Y248D02*
X7Y248D01*
X2364Y248D02*
X2367Y248D01*
X2470Y248D02*
X2477Y248D01*
X2481Y248D02*
X2487Y248D01*
X2531Y248D02*
X2537Y248D01*
X2551Y248D02*
X2558Y248D01*
X2582Y248D02*
X2588Y248D01*
X2609Y248D02*
X2615Y248D01*
X2632Y248D02*
X2638Y248D01*
X2659Y248D02*
X2669Y248D01*
X3063Y248D02*
X3070Y248D01*
X0Y247D02*
X7Y247D01*
X2364Y247D02*
X2367Y247D01*
X2470Y247D02*
X2477Y247D01*
X2481Y247D02*
X2487Y247D01*
X2531Y247D02*
X2537Y247D01*
X2551Y247D02*
X2559Y247D01*
X2582Y247D02*
X2588Y247D01*
X2609Y247D02*
X2615Y247D01*
X2632Y247D02*
X2638Y247D01*
X2659Y247D02*
X2669Y247D01*
X3063Y247D02*
X3070Y247D01*
X0Y246D02*
X7Y246D01*
X2364Y246D02*
X2367Y246D01*
X2470Y246D02*
X2477Y246D01*
X2481Y246D02*
X2487Y246D01*
X2531Y246D02*
X2537Y246D01*
X2552Y246D02*
X2559Y246D01*
X2582Y246D02*
X2588Y246D01*
X2609Y246D02*
X2615Y246D01*
X2632Y246D02*
X2638Y246D01*
X2659Y246D02*
X2669Y246D01*
X3063Y246D02*
X3070Y246D01*
X0Y245D02*
X7Y245D01*
X2364Y245D02*
X2367Y245D01*
X2470Y245D02*
X2477Y245D01*
X2481Y245D02*
X2487Y245D01*
X2531Y245D02*
X2537Y245D01*
X2553Y245D02*
X2560Y245D01*
X2582Y245D02*
X2588Y245D01*
X2609Y245D02*
X2615Y245D01*
X2632Y245D02*
X2638Y245D01*
X2659Y245D02*
X2670Y245D01*
X3063Y245D02*
X3070Y245D01*
X0Y244D02*
X7Y244D01*
X2364Y244D02*
X2367Y244D01*
X2470Y244D02*
X2477Y244D01*
X2481Y244D02*
X2487Y244D01*
X2531Y244D02*
X2537Y244D01*
X2553Y244D02*
X2560Y244D01*
X2582Y244D02*
X2588Y244D01*
X2609Y244D02*
X2615Y244D01*
X2632Y244D02*
X2638Y244D01*
X2659Y244D02*
X2670Y244D01*
X3063Y244D02*
X3070Y244D01*
X0Y243D02*
X7Y243D01*
X2364Y243D02*
X2367Y243D01*
X2470Y243D02*
X2477Y243D01*
X2481Y243D02*
X2487Y243D01*
X2531Y243D02*
X2537Y243D01*
X2554Y243D02*
X2561Y243D01*
X2582Y243D02*
X2588Y243D01*
X2609Y243D02*
X2615Y243D01*
X2632Y243D02*
X2638Y243D01*
X2659Y243D02*
X2670Y243D01*
X3063Y243D02*
X3070Y243D01*
X0Y242D02*
X7Y242D01*
X2364Y242D02*
X2367Y242D01*
X2470Y242D02*
X2477Y242D01*
X2481Y242D02*
X2487Y242D01*
X2531Y242D02*
X2537Y242D01*
X2554Y242D02*
X2562Y242D01*
X2582Y242D02*
X2588Y242D01*
X2609Y242D02*
X2615Y242D01*
X2632Y242D02*
X2638Y242D01*
X2659Y242D02*
X2671Y242D01*
X3063Y242D02*
X3070Y242D01*
X0Y241D02*
X7Y241D01*
X2364Y241D02*
X2367Y241D01*
X2470Y241D02*
X2477Y241D01*
X2481Y241D02*
X2487Y241D01*
X2531Y241D02*
X2537Y241D01*
X2555Y241D02*
X2562Y241D01*
X2582Y241D02*
X2588Y241D01*
X2609Y241D02*
X2615Y241D01*
X2632Y241D02*
X2638Y241D01*
X2659Y241D02*
X2671Y241D01*
X3063Y241D02*
X3070Y241D01*
X0Y240D02*
X7Y240D01*
X2364Y240D02*
X2367Y240D01*
X2470Y240D02*
X2477Y240D01*
X2481Y240D02*
X2487Y240D01*
X2531Y240D02*
X2537Y240D01*
X2556Y240D02*
X2563Y240D01*
X2582Y240D02*
X2589Y240D01*
X2608Y240D02*
X2615Y240D01*
X2632Y240D02*
X2638Y240D01*
X2659Y240D02*
X2672Y240D01*
X3063Y240D02*
X3070Y240D01*
X0Y239D02*
X7Y239D01*
X2364Y239D02*
X2367Y239D01*
X2470Y239D02*
X2477Y239D01*
X2481Y239D02*
X2487Y239D01*
X2531Y239D02*
X2537Y239D01*
X2556Y239D02*
X2563Y239D01*
X2582Y239D02*
X2590Y239D01*
X2606Y239D02*
X2615Y239D01*
X2632Y239D02*
X2638Y239D01*
X2659Y239D02*
X2672Y239D01*
X3063Y239D02*
X3070Y239D01*
X0Y238D02*
X7Y238D01*
X2364Y238D02*
X2367Y238D01*
X2470Y238D02*
X2477Y238D01*
X2481Y238D02*
X2487Y238D01*
X2531Y238D02*
X2537Y238D01*
X2557Y238D02*
X2564Y238D01*
X2582Y238D02*
X2614Y238D01*
X2632Y238D02*
X2638Y238D01*
X2659Y238D02*
X2672Y238D01*
X3063Y238D02*
X3070Y238D01*
X0Y237D02*
X7Y237D01*
X2364Y237D02*
X2367Y237D01*
X2470Y237D02*
X2477Y237D01*
X2481Y237D02*
X2487Y237D01*
X2531Y237D02*
X2537Y237D01*
X2557Y237D02*
X2564Y237D01*
X2583Y237D02*
X2614Y237D01*
X2632Y237D02*
X2638Y237D01*
X2659Y237D02*
X2672Y237D01*
X3063Y237D02*
X3070Y237D01*
X0Y236D02*
X7Y236D01*
X2364Y236D02*
X2367Y236D01*
X2470Y236D02*
X2477Y236D01*
X2481Y236D02*
X2487Y236D01*
X2531Y236D02*
X2537Y236D01*
X2558Y236D02*
X2565Y236D01*
X2584Y236D02*
X2613Y236D01*
X2632Y236D02*
X2638Y236D01*
X2659Y236D02*
X2672Y236D01*
X3063Y236D02*
X3070Y236D01*
X0Y235D02*
X7Y235D01*
X2364Y235D02*
X2367Y235D01*
X2470Y235D02*
X2477Y235D01*
X2481Y235D02*
X2487Y235D01*
X2531Y235D02*
X2537Y235D01*
X2558Y235D02*
X2565Y235D01*
X2585Y235D02*
X2612Y235D01*
X2632Y235D02*
X2638Y235D01*
X2659Y235D02*
X2672Y235D01*
X3063Y235D02*
X3070Y235D01*
X0Y234D02*
X7Y234D01*
X2364Y234D02*
X2367Y234D01*
X2470Y234D02*
X2477Y234D01*
X2481Y234D02*
X2487Y234D01*
X2532Y234D02*
X2537Y234D01*
X2559Y234D02*
X2565Y234D01*
X2586Y234D02*
X2611Y234D01*
X2632Y234D02*
X2637Y234D01*
X2660Y234D02*
X2672Y234D01*
X3063Y234D02*
X3070Y234D01*
X0Y233D02*
X7Y233D01*
X2364Y233D02*
X2367Y233D01*
X2470Y233D02*
X2477Y233D01*
X2482Y233D02*
X2486Y233D01*
X2532Y233D02*
X2536Y233D01*
X2560Y233D02*
X2564Y233D01*
X2587Y233D02*
X2609Y233D01*
X2633Y233D02*
X2637Y233D01*
X2660Y233D02*
X2672Y233D01*
X3063Y233D02*
X3070Y233D01*
X0Y232D02*
X7Y232D01*
X2364Y232D02*
X2367Y232D01*
X2470Y232D02*
X2477Y232D01*
X2484Y232D02*
X2485Y232D01*
X2534Y232D02*
X2535Y232D01*
X2561Y232D02*
X2562Y232D01*
X2590Y232D02*
X2606Y232D01*
X2634Y232D02*
X2635Y232D01*
X2662Y232D02*
X2672Y232D01*
X3063Y232D02*
X3070Y232D01*
X0Y231D02*
X7Y231D01*
X2364Y231D02*
X2367Y231D01*
X2470Y231D02*
X2477Y231D01*
X2663Y231D02*
X2672Y231D01*
X3063Y231D02*
X3070Y231D01*
X0Y230D02*
X7Y230D01*
X2364Y230D02*
X2367Y230D01*
X2470Y230D02*
X2477Y230D01*
X2663Y230D02*
X2672Y230D01*
X3063Y230D02*
X3070Y230D01*
X0Y229D02*
X7Y229D01*
X2364Y229D02*
X2367Y229D01*
X2470Y229D02*
X2477Y229D01*
X2663Y229D02*
X2672Y229D01*
X3063Y229D02*
X3070Y229D01*
X0Y228D02*
X7Y228D01*
X2364Y228D02*
X2367Y228D01*
X2470Y228D02*
X2477Y228D01*
X2663Y228D02*
X2672Y228D01*
X3063Y228D02*
X3070Y228D01*
X0Y227D02*
X7Y227D01*
X2364Y227D02*
X2367Y227D01*
X2470Y227D02*
X2477Y227D01*
X2663Y227D02*
X2672Y227D01*
X3063Y227D02*
X3070Y227D01*
X0Y226D02*
X7Y226D01*
X2364Y226D02*
X2367Y226D01*
X2470Y226D02*
X2477Y226D01*
X2663Y226D02*
X2672Y226D01*
X3063Y226D02*
X3070Y226D01*
X0Y225D02*
X7Y225D01*
X2364Y225D02*
X2367Y225D01*
X2470Y225D02*
X2672Y225D01*
X3063Y225D02*
X3070Y225D01*
X0Y224D02*
X7Y224D01*
X2364Y224D02*
X2367Y224D01*
X2470Y224D02*
X2672Y224D01*
X3063Y224D02*
X3070Y224D01*
X0Y223D02*
X7Y223D01*
X2364Y223D02*
X2367Y223D01*
X2470Y223D02*
X2672Y223D01*
X3063Y223D02*
X3070Y223D01*
X0Y222D02*
X7Y222D01*
X2364Y222D02*
X2367Y222D01*
X2470Y222D02*
X2672Y222D01*
X3063Y222D02*
X3070Y222D01*
X0Y221D02*
X7Y221D01*
X2364Y221D02*
X2367Y221D01*
X2470Y221D02*
X2672Y221D01*
X3063Y221D02*
X3070Y221D01*
X0Y220D02*
X7Y220D01*
X2364Y220D02*
X2367Y220D01*
X2473Y220D02*
X2667Y220D01*
X3063Y220D02*
X3070Y220D01*
X0Y219D02*
X7Y219D01*
X2364Y219D02*
X2367Y219D01*
X2473Y219D02*
X2667Y219D01*
X3063Y219D02*
X3070Y219D01*
X0Y218D02*
X7Y218D01*
X2364Y218D02*
X2367Y218D01*
X2473Y218D02*
X2667Y218D01*
X3063Y218D02*
X3070Y218D01*
X0Y217D02*
X7Y217D01*
X2364Y217D02*
X2367Y217D01*
X2473Y217D02*
X2667Y217D01*
X3063Y217D02*
X3070Y217D01*
X0Y216D02*
X7Y216D01*
X2364Y216D02*
X2367Y216D01*
X2473Y216D02*
X2667Y216D01*
X3063Y216D02*
X3070Y216D01*
X0Y215D02*
X7Y215D01*
X2364Y215D02*
X2367Y215D01*
X3063Y215D02*
X3070Y215D01*
X0Y214D02*
X7Y214D01*
X2364Y214D02*
X2367Y214D01*
X3063Y214D02*
X3070Y214D01*
X0Y213D02*
X7Y213D01*
X2364Y213D02*
X2367Y213D01*
X3063Y213D02*
X3070Y213D01*
X0Y212D02*
X7Y212D01*
X2364Y212D02*
X2367Y212D01*
X3063Y212D02*
X3070Y212D01*
X0Y211D02*
X7Y211D01*
X2364Y211D02*
X2367Y211D01*
X3063Y211D02*
X3070Y211D01*
X0Y210D02*
X7Y210D01*
X2364Y210D02*
X2367Y210D01*
X3063Y210D02*
X3070Y210D01*
X0Y209D02*
X7Y209D01*
X2364Y209D02*
X2373Y209D01*
X3063Y209D02*
X3070Y209D01*
X0Y208D02*
X7Y208D01*
X2364Y208D02*
X2373Y208D01*
X3063Y208D02*
X3070Y208D01*
X0Y207D02*
X7Y207D01*
X2364Y207D02*
X2373Y207D01*
X3063Y207D02*
X3070Y207D01*
X0Y206D02*
X7Y206D01*
X2364Y206D02*
X2373Y206D01*
X3063Y206D02*
X3070Y206D01*
X0Y205D02*
X7Y205D01*
X2364Y205D02*
X2373Y205D01*
X3063Y205D02*
X3070Y205D01*
X0Y204D02*
X7Y204D01*
X2364Y204D02*
X2373Y204D01*
X3063Y204D02*
X3070Y204D01*
X0Y203D02*
X7Y203D01*
X2364Y203D02*
X2373Y203D01*
X3063Y203D02*
X3070Y203D01*
X0Y202D02*
X7Y202D01*
X2364Y202D02*
X2373Y202D01*
X3063Y202D02*
X3070Y202D01*
X0Y201D02*
X7Y201D01*
X2364Y201D02*
X2373Y201D01*
X3063Y201D02*
X3070Y201D01*
X0Y200D02*
X7Y200D01*
X2364Y200D02*
X2373Y200D01*
X3063Y200D02*
X3070Y200D01*
X0Y199D02*
X7Y199D01*
X2364Y199D02*
X2373Y199D01*
X3063Y199D02*
X3070Y199D01*
X0Y198D02*
X7Y198D01*
X2364Y198D02*
X2373Y198D01*
X3063Y198D02*
X3070Y198D01*
X0Y197D02*
X7Y197D01*
X2364Y197D02*
X2373Y197D01*
X3063Y197D02*
X3070Y197D01*
X0Y196D02*
X7Y196D01*
X2364Y196D02*
X2373Y196D01*
X3063Y196D02*
X3070Y196D01*
X0Y195D02*
X7Y195D01*
X2364Y195D02*
X2373Y195D01*
X3063Y195D02*
X3070Y195D01*
X0Y194D02*
X7Y194D01*
X2364Y194D02*
X2373Y194D01*
X3063Y194D02*
X3070Y194D01*
X0Y193D02*
X7Y193D01*
X2364Y193D02*
X2373Y193D01*
X3063Y193D02*
X3070Y193D01*
X0Y192D02*
X7Y192D01*
X2364Y192D02*
X2373Y192D01*
X3063Y192D02*
X3070Y192D01*
X0Y191D02*
X7Y191D01*
X2364Y191D02*
X2373Y191D01*
X3063Y191D02*
X3070Y191D01*
X0Y190D02*
X7Y190D01*
X2364Y190D02*
X2373Y190D01*
X3063Y190D02*
X3070Y190D01*
X0Y189D02*
X7Y189D01*
X2364Y189D02*
X2373Y189D01*
X3063Y189D02*
X3070Y189D01*
X0Y188D02*
X7Y188D01*
X2364Y188D02*
X2373Y188D01*
X3063Y188D02*
X3070Y188D01*
X0Y187D02*
X7Y187D01*
X2364Y187D02*
X2373Y187D01*
X3063Y187D02*
X3070Y187D01*
X0Y186D02*
X7Y186D01*
X2364Y186D02*
X2373Y186D01*
X3063Y186D02*
X3070Y186D01*
X0Y185D02*
X7Y185D01*
X2364Y185D02*
X2373Y185D01*
X3063Y185D02*
X3070Y185D01*
X0Y184D02*
X7Y184D01*
X2364Y184D02*
X2373Y184D01*
X3063Y184D02*
X3070Y184D01*
X0Y183D02*
X7Y183D01*
X2364Y183D02*
X2373Y183D01*
X3063Y183D02*
X3070Y183D01*
X0Y182D02*
X7Y182D01*
X2364Y182D02*
X2373Y182D01*
X3063Y182D02*
X3070Y182D01*
X0Y181D02*
X7Y181D01*
X2364Y181D02*
X2373Y181D01*
X3063Y181D02*
X3070Y181D01*
X0Y180D02*
X7Y180D01*
X2364Y180D02*
X2373Y180D01*
X3063Y180D02*
X3070Y180D01*
X0Y179D02*
X7Y179D01*
X2364Y179D02*
X2373Y179D01*
X3063Y179D02*
X3070Y179D01*
X0Y178D02*
X7Y178D01*
X2364Y178D02*
X2373Y178D01*
X3063Y178D02*
X3070Y178D01*
X0Y177D02*
X7Y177D01*
X2364Y177D02*
X2373Y177D01*
X3063Y177D02*
X3070Y177D01*
X0Y176D02*
X7Y176D01*
X2364Y176D02*
X2373Y176D01*
X2390Y176D02*
X2409Y176D01*
X2420Y176D02*
X2421Y176D01*
X2435Y176D02*
X2436Y176D01*
X3063Y176D02*
X3070Y176D01*
X0Y175D02*
X7Y175D01*
X2364Y175D02*
X2373Y175D01*
X2390Y175D02*
X2409Y175D01*
X2419Y175D02*
X2422Y175D01*
X2434Y175D02*
X2437Y175D01*
X3063Y175D02*
X3070Y175D01*
X0Y174D02*
X7Y174D01*
X2364Y174D02*
X2373Y174D01*
X2390Y174D02*
X2409Y174D01*
X2419Y174D02*
X2422Y174D01*
X2434Y174D02*
X2437Y174D01*
X3063Y174D02*
X3070Y174D01*
X0Y173D02*
X7Y173D01*
X2364Y173D02*
X2373Y173D01*
X2390Y173D02*
X2409Y173D01*
X2419Y173D02*
X2423Y173D01*
X2433Y173D02*
X2437Y173D01*
X3063Y173D02*
X3070Y173D01*
X0Y172D02*
X7Y172D01*
X2364Y172D02*
X2373Y172D01*
X2390Y172D02*
X2393Y172D01*
X2398Y172D02*
X2401Y172D01*
X2406Y172D02*
X2409Y172D01*
X2420Y172D02*
X2423Y172D01*
X2433Y172D02*
X2436Y172D01*
X3063Y172D02*
X3070Y172D01*
X0Y171D02*
X7Y171D01*
X2364Y171D02*
X2373Y171D01*
X2390Y171D02*
X2393Y171D01*
X2398Y171D02*
X2401Y171D01*
X2406Y171D02*
X2409Y171D01*
X2420Y171D02*
X2424Y171D01*
X2432Y171D02*
X2436Y171D01*
X3063Y171D02*
X3070Y171D01*
X0Y170D02*
X7Y170D01*
X2364Y170D02*
X2373Y170D01*
X2391Y170D02*
X2393Y170D01*
X2398Y170D02*
X2401Y170D01*
X2406Y170D02*
X2409Y170D01*
X2421Y170D02*
X2425Y170D01*
X2431Y170D02*
X2435Y170D01*
X3063Y170D02*
X3070Y170D01*
X0Y169D02*
X7Y169D01*
X2364Y169D02*
X2373Y169D01*
X2398Y169D02*
X2401Y169D01*
X2422Y169D02*
X2425Y169D01*
X2431Y169D02*
X2434Y169D01*
X3063Y169D02*
X3070Y169D01*
X0Y168D02*
X7Y168D01*
X2364Y168D02*
X2373Y168D01*
X2398Y168D02*
X2401Y168D01*
X2422Y168D02*
X2426Y168D01*
X2430Y168D02*
X2434Y168D01*
X3063Y168D02*
X3070Y168D01*
X0Y167D02*
X7Y167D01*
X2364Y167D02*
X2373Y167D01*
X2398Y167D02*
X2401Y167D01*
X2423Y167D02*
X2426Y167D01*
X2430Y167D02*
X2433Y167D01*
X3063Y167D02*
X3070Y167D01*
X0Y166D02*
X7Y166D01*
X2364Y166D02*
X2373Y166D01*
X2398Y166D02*
X2401Y166D01*
X2423Y166D02*
X2427Y166D01*
X2429Y166D02*
X2433Y166D01*
X3063Y166D02*
X3070Y166D01*
X0Y165D02*
X7Y165D01*
X2364Y165D02*
X2373Y165D01*
X2398Y165D02*
X2401Y165D01*
X2424Y165D02*
X2432Y165D01*
X3063Y165D02*
X3070Y165D01*
X0Y164D02*
X7Y164D01*
X2364Y164D02*
X2373Y164D01*
X2398Y164D02*
X2401Y164D01*
X2425Y164D02*
X2432Y164D01*
X3063Y164D02*
X3070Y164D01*
X0Y163D02*
X7Y163D01*
X2364Y163D02*
X2373Y163D01*
X2398Y163D02*
X2401Y163D01*
X2425Y163D02*
X2431Y163D01*
X3063Y163D02*
X3070Y163D01*
X0Y162D02*
X7Y162D01*
X2364Y162D02*
X2373Y162D01*
X2398Y162D02*
X2401Y162D01*
X2426Y162D02*
X2430Y162D01*
X3063Y162D02*
X3070Y162D01*
X0Y161D02*
X7Y161D01*
X2364Y161D02*
X2373Y161D01*
X2398Y161D02*
X2401Y161D01*
X2426Y161D02*
X2430Y161D01*
X3063Y161D02*
X3070Y161D01*
X0Y160D02*
X7Y160D01*
X2364Y160D02*
X2373Y160D01*
X2398Y160D02*
X2401Y160D01*
X2426Y160D02*
X2430Y160D01*
X3063Y160D02*
X3070Y160D01*
X0Y159D02*
X7Y159D01*
X2364Y159D02*
X2373Y159D01*
X2398Y159D02*
X2401Y159D01*
X2425Y159D02*
X2431Y159D01*
X3063Y159D02*
X3070Y159D01*
X0Y158D02*
X7Y158D01*
X2364Y158D02*
X2373Y158D01*
X2398Y158D02*
X2401Y158D01*
X2424Y158D02*
X2432Y158D01*
X3063Y158D02*
X3070Y158D01*
X0Y157D02*
X7Y157D01*
X2364Y157D02*
X2373Y157D01*
X2398Y157D02*
X2401Y157D01*
X2424Y157D02*
X2432Y157D01*
X3063Y157D02*
X3070Y157D01*
X0Y156D02*
X7Y156D01*
X2364Y156D02*
X2373Y156D01*
X2398Y156D02*
X2401Y156D01*
X2423Y156D02*
X2427Y156D01*
X2429Y156D02*
X2433Y156D01*
X3063Y156D02*
X3070Y156D01*
X0Y155D02*
X7Y155D01*
X2364Y155D02*
X2373Y155D01*
X2398Y155D02*
X2401Y155D01*
X2423Y155D02*
X2426Y155D01*
X2430Y155D02*
X2433Y155D01*
X3063Y155D02*
X3070Y155D01*
X0Y154D02*
X7Y154D01*
X2364Y154D02*
X2373Y154D01*
X2398Y154D02*
X2401Y154D01*
X2422Y154D02*
X2426Y154D01*
X2430Y154D02*
X2434Y154D01*
X3063Y154D02*
X3070Y154D01*
X0Y153D02*
X7Y153D01*
X2364Y153D02*
X2373Y153D01*
X2398Y153D02*
X2401Y153D01*
X2422Y153D02*
X2425Y153D01*
X2431Y153D02*
X2435Y153D01*
X3063Y153D02*
X3070Y153D01*
X0Y152D02*
X7Y152D01*
X2364Y152D02*
X2373Y152D01*
X2398Y152D02*
X2401Y152D01*
X2421Y152D02*
X2425Y152D01*
X2432Y152D02*
X2435Y152D01*
X3063Y152D02*
X3070Y152D01*
X0Y151D02*
X7Y151D01*
X2364Y151D02*
X2373Y151D01*
X2398Y151D02*
X2401Y151D01*
X2420Y151D02*
X2424Y151D01*
X2432Y151D02*
X2436Y151D01*
X3063Y151D02*
X3070Y151D01*
X0Y150D02*
X7Y150D01*
X2364Y150D02*
X2373Y150D01*
X2398Y150D02*
X2401Y150D01*
X2420Y150D02*
X2423Y150D01*
X2433Y150D02*
X2436Y150D01*
X3063Y150D02*
X3070Y150D01*
X0Y149D02*
X7Y149D01*
X2364Y149D02*
X2373Y149D01*
X2398Y149D02*
X2401Y149D01*
X2419Y149D02*
X2423Y149D01*
X2433Y149D02*
X2437Y149D01*
X3063Y149D02*
X3070Y149D01*
X0Y148D02*
X7Y148D01*
X2364Y148D02*
X2373Y148D01*
X2398Y148D02*
X2401Y148D01*
X2419Y148D02*
X2422Y148D01*
X2434Y148D02*
X2437Y148D01*
X3063Y148D02*
X3070Y148D01*
X0Y147D02*
X7Y147D01*
X2364Y147D02*
X2373Y147D01*
X2398Y147D02*
X2401Y147D01*
X2419Y147D02*
X2422Y147D01*
X2434Y147D02*
X2437Y147D01*
X3063Y147D02*
X3070Y147D01*
X0Y146D02*
X7Y146D01*
X2364Y146D02*
X2373Y146D01*
X2399Y146D02*
X2400Y146D01*
X2420Y146D02*
X2421Y146D01*
X2435Y146D02*
X2436Y146D01*
X3063Y146D02*
X3070Y146D01*
X0Y145D02*
X7Y145D01*
X2364Y145D02*
X2373Y145D01*
X3063Y145D02*
X3070Y145D01*
X0Y144D02*
X7Y144D01*
X2364Y144D02*
X2373Y144D01*
X3063Y144D02*
X3070Y144D01*
X0Y143D02*
X7Y143D01*
X2364Y143D02*
X2373Y143D01*
X3063Y143D02*
X3070Y143D01*
X0Y142D02*
X7Y142D01*
X2364Y142D02*
X2373Y142D01*
X3063Y142D02*
X3070Y142D01*
X0Y141D02*
X7Y141D01*
X2364Y141D02*
X2373Y141D01*
X3063Y141D02*
X3070Y141D01*
X0Y140D02*
X7Y140D01*
X2364Y140D02*
X2373Y140D01*
X3063Y140D02*
X3070Y140D01*
X0Y139D02*
X7Y139D01*
X2364Y139D02*
X2373Y139D01*
X3063Y139D02*
X3070Y139D01*
X0Y138D02*
X7Y138D01*
X2364Y138D02*
X2373Y138D01*
X3063Y138D02*
X3070Y138D01*
X0Y137D02*
X7Y137D01*
X2364Y137D02*
X2373Y137D01*
X3063Y137D02*
X3070Y137D01*
X0Y136D02*
X7Y136D01*
X2364Y136D02*
X2373Y136D01*
X3063Y136D02*
X3070Y136D01*
X0Y135D02*
X7Y135D01*
X2364Y135D02*
X2373Y135D01*
X3063Y135D02*
X3070Y135D01*
X0Y134D02*
X7Y134D01*
X2364Y134D02*
X2373Y134D01*
X3063Y134D02*
X3070Y134D01*
X0Y133D02*
X7Y133D01*
X2364Y133D02*
X2373Y133D01*
X3063Y133D02*
X3070Y133D01*
X0Y132D02*
X7Y132D01*
X2364Y132D02*
X2373Y132D01*
X3063Y132D02*
X3070Y132D01*
X0Y131D02*
X7Y131D01*
X2364Y131D02*
X2373Y131D01*
X3063Y131D02*
X3070Y131D01*
X0Y130D02*
X7Y130D01*
X2364Y130D02*
X2373Y130D01*
X3063Y130D02*
X3070Y130D01*
X0Y129D02*
X7Y129D01*
X2364Y129D02*
X2373Y129D01*
X3063Y129D02*
X3070Y129D01*
X0Y128D02*
X7Y128D01*
X2364Y128D02*
X2373Y128D01*
X3063Y128D02*
X3070Y128D01*
X0Y127D02*
X7Y127D01*
X482Y127D02*
X482Y127D01*
X883Y127D02*
X883Y127D01*
X955Y127D02*
X955Y127D01*
X1205Y127D02*
X1205Y127D01*
X2364Y127D02*
X2373Y127D01*
X3063Y127D02*
X3070Y127D01*
X0Y126D02*
X7Y126D01*
X479Y126D02*
X484Y126D01*
X880Y126D02*
X885Y126D01*
X953Y126D02*
X958Y126D01*
X1202Y126D02*
X1207Y126D01*
X2364Y126D02*
X2373Y126D01*
X3063Y126D02*
X3070Y126D01*
X0Y125D02*
X7Y125D01*
X478Y125D02*
X485Y125D01*
X879Y125D02*
X886Y125D01*
X952Y125D02*
X959Y125D01*
X1201Y125D02*
X1208Y125D01*
X2364Y125D02*
X2373Y125D01*
X3063Y125D02*
X3070Y125D01*
X0Y124D02*
X7Y124D01*
X478Y124D02*
X486Y124D01*
X879Y124D02*
X887Y124D01*
X951Y124D02*
X959Y124D01*
X1201Y124D02*
X1209Y124D01*
X2364Y124D02*
X2373Y124D01*
X3063Y124D02*
X3070Y124D01*
X0Y123D02*
X7Y123D01*
X477Y123D02*
X486Y123D01*
X878Y123D02*
X887Y123D01*
X950Y123D02*
X960Y123D01*
X1200Y123D02*
X1209Y123D01*
X2364Y123D02*
X2373Y123D01*
X3063Y123D02*
X3070Y123D01*
X0Y122D02*
X7Y122D01*
X477Y122D02*
X486Y122D01*
X562Y122D02*
X566Y122D01*
X634Y122D02*
X638Y122D01*
X877Y122D02*
X887Y122D01*
X950Y122D02*
X960Y122D01*
X1200Y122D02*
X1209Y122D01*
X2364Y122D02*
X2373Y122D01*
X3063Y122D02*
X3070Y122D01*
X0Y121D02*
X7Y121D01*
X477Y121D02*
X486Y121D01*
X561Y121D02*
X567Y121D01*
X633Y121D02*
X640Y121D01*
X877Y121D02*
X887Y121D01*
X949Y121D02*
X960Y121D01*
X1200Y121D02*
X1209Y121D01*
X2364Y121D02*
X2373Y121D01*
X3063Y121D02*
X3070Y121D01*
X0Y120D02*
X7Y120D01*
X477Y120D02*
X486Y120D01*
X560Y120D02*
X568Y120D01*
X632Y120D02*
X640Y120D01*
X876Y120D02*
X887Y120D01*
X949Y120D02*
X959Y120D01*
X1200Y120D02*
X1209Y120D01*
X2364Y120D02*
X2373Y120D01*
X3063Y120D02*
X3070Y120D01*
X0Y119D02*
X7Y119D01*
X477Y119D02*
X486Y119D01*
X560Y119D02*
X568Y119D01*
X632Y119D02*
X641Y119D01*
X876Y119D02*
X886Y119D01*
X948Y119D02*
X959Y119D01*
X1200Y119D02*
X1209Y119D01*
X2364Y119D02*
X2373Y119D01*
X3063Y119D02*
X3070Y119D01*
X0Y118D02*
X7Y118D01*
X477Y118D02*
X486Y118D01*
X559Y118D02*
X569Y118D01*
X632Y118D02*
X641Y118D01*
X875Y118D02*
X886Y118D01*
X947Y118D02*
X958Y118D01*
X1200Y118D02*
X1209Y118D01*
X2364Y118D02*
X2373Y118D01*
X3063Y118D02*
X3070Y118D01*
X0Y117D02*
X7Y117D01*
X477Y117D02*
X486Y117D01*
X559Y117D02*
X569Y117D01*
X632Y117D02*
X641Y117D01*
X875Y117D02*
X885Y117D01*
X947Y117D02*
X958Y117D01*
X1200Y117D02*
X1209Y117D01*
X2364Y117D02*
X2373Y117D01*
X3063Y117D02*
X3070Y117D01*
X0Y116D02*
X7Y116D01*
X477Y116D02*
X486Y116D01*
X559Y116D02*
X569Y116D01*
X632Y116D02*
X641Y116D01*
X874Y116D02*
X885Y116D01*
X946Y116D02*
X957Y116D01*
X1200Y116D02*
X1209Y116D01*
X2364Y116D02*
X2373Y116D01*
X3063Y116D02*
X3070Y116D01*
X0Y115D02*
X7Y115D01*
X477Y115D02*
X486Y115D01*
X559Y115D02*
X569Y115D01*
X632Y115D02*
X641Y115D01*
X873Y115D02*
X884Y115D01*
X946Y115D02*
X956Y115D01*
X1200Y115D02*
X1209Y115D01*
X2364Y115D02*
X2373Y115D01*
X3063Y115D02*
X3070Y115D01*
X0Y114D02*
X7Y114D01*
X477Y114D02*
X486Y114D01*
X559Y114D02*
X569Y114D01*
X632Y114D02*
X641Y114D01*
X784Y114D02*
X797Y114D01*
X873Y114D02*
X884Y114D01*
X945Y114D02*
X956Y114D01*
X1200Y114D02*
X1209Y114D01*
X2364Y114D02*
X2373Y114D01*
X3063Y114D02*
X3070Y114D01*
X0Y113D02*
X7Y113D01*
X477Y113D02*
X486Y113D01*
X559Y113D02*
X569Y113D01*
X632Y113D02*
X641Y113D01*
X783Y113D02*
X799Y113D01*
X872Y113D02*
X883Y113D01*
X944Y113D02*
X955Y113D01*
X1200Y113D02*
X1209Y113D01*
X2364Y113D02*
X2373Y113D01*
X3063Y113D02*
X3070Y113D01*
X0Y112D02*
X7Y112D01*
X477Y112D02*
X486Y112D01*
X559Y112D02*
X569Y112D01*
X632Y112D02*
X641Y112D01*
X782Y112D02*
X799Y112D01*
X872Y112D02*
X882Y112D01*
X944Y112D02*
X955Y112D01*
X1200Y112D02*
X1209Y112D01*
X2364Y112D02*
X2373Y112D01*
X3063Y112D02*
X3070Y112D01*
X0Y111D02*
X7Y111D01*
X477Y111D02*
X486Y111D01*
X559Y111D02*
X569Y111D01*
X632Y111D02*
X641Y111D01*
X782Y111D02*
X800Y111D01*
X871Y111D02*
X882Y111D01*
X943Y111D02*
X954Y111D01*
X1200Y111D02*
X1209Y111D01*
X2364Y111D02*
X2373Y111D01*
X3063Y111D02*
X3070Y111D01*
X0Y110D02*
X7Y110D01*
X477Y110D02*
X486Y110D01*
X559Y110D02*
X569Y110D01*
X632Y110D02*
X641Y110D01*
X781Y110D02*
X800Y110D01*
X870Y110D02*
X881Y110D01*
X943Y110D02*
X954Y110D01*
X1200Y110D02*
X1209Y110D01*
X3063Y110D02*
X3070Y110D01*
X0Y109D02*
X7Y109D01*
X477Y109D02*
X486Y109D01*
X559Y109D02*
X569Y109D01*
X632Y109D02*
X641Y109D01*
X781Y109D02*
X800Y109D01*
X870Y109D02*
X881Y109D01*
X942Y109D02*
X953Y109D01*
X1200Y109D02*
X1209Y109D01*
X3063Y109D02*
X3070Y109D01*
X0Y108D02*
X7Y108D01*
X477Y108D02*
X486Y108D01*
X559Y108D02*
X569Y108D01*
X632Y108D02*
X641Y108D01*
X718Y108D02*
X719Y108D01*
X781Y108D02*
X800Y108D01*
X869Y108D02*
X880Y108D01*
X942Y108D02*
X952Y108D01*
X1200Y108D02*
X1209Y108D01*
X3063Y108D02*
X3070Y108D01*
X0Y107D02*
X7Y107D01*
X477Y107D02*
X486Y107D01*
X559Y107D02*
X569Y107D01*
X632Y107D02*
X641Y107D01*
X696Y107D02*
X701Y107D01*
X713Y107D02*
X724Y107D01*
X781Y107D02*
X800Y107D01*
X869Y107D02*
X879Y107D01*
X941Y107D02*
X952Y107D01*
X1200Y107D02*
X1209Y107D01*
X3063Y107D02*
X3070Y107D01*
X0Y106D02*
X7Y106D01*
X477Y106D02*
X486Y106D01*
X559Y106D02*
X569Y106D01*
X631Y106D02*
X641Y106D01*
X695Y106D02*
X702Y106D01*
X711Y106D02*
X727Y106D01*
X781Y106D02*
X800Y106D01*
X868Y106D02*
X879Y106D01*
X940Y106D02*
X951Y106D01*
X1200Y106D02*
X1209Y106D01*
X3063Y106D02*
X3070Y106D01*
X0Y105D02*
X7Y105D01*
X477Y105D02*
X486Y105D01*
X500Y105D02*
X515Y105D01*
X552Y105D02*
X591Y105D01*
X624Y105D02*
X663Y105D01*
X695Y105D02*
X703Y105D01*
X709Y105D02*
X728Y105D01*
X781Y105D02*
X800Y105D01*
X868Y105D02*
X878Y105D01*
X940Y105D02*
X951Y105D01*
X985Y105D02*
X989Y105D01*
X996Y105D02*
X1004Y105D01*
X1017Y105D02*
X1023Y105D01*
X1069Y105D02*
X1091Y105D01*
X1130Y105D02*
X1135Y105D01*
X1151Y105D02*
X1165Y105D01*
X1200Y105D02*
X1209Y105D01*
X1237Y105D02*
X1242Y105D01*
X1282Y105D02*
X1312Y105D01*
X1436Y105D02*
X1463Y105D01*
X1503Y105D02*
X1524Y105D01*
X3063Y105D02*
X3070Y105D01*
X0Y104D02*
X7Y104D01*
X477Y104D02*
X486Y104D01*
X498Y104D02*
X517Y104D01*
X551Y104D02*
X592Y104D01*
X623Y104D02*
X664Y104D01*
X694Y104D02*
X703Y104D01*
X708Y104D02*
X730Y104D01*
X781Y104D02*
X800Y104D01*
X867Y104D02*
X878Y104D01*
X939Y104D02*
X950Y104D01*
X984Y104D02*
X990Y104D01*
X994Y104D02*
X1006Y104D01*
X1014Y104D02*
X1025Y104D01*
X1067Y104D02*
X1093Y104D01*
X1129Y104D02*
X1136Y104D01*
X1148Y104D02*
X1168Y104D01*
X1200Y104D02*
X1209Y104D01*
X1236Y104D02*
X1243Y104D01*
X1280Y104D02*
X1314Y104D01*
X1433Y104D02*
X1465Y104D01*
X1501Y104D02*
X1527Y104D01*
X3063Y104D02*
X3070Y104D01*
X0Y103D02*
X7Y103D01*
X477Y103D02*
X486Y103D01*
X496Y103D02*
X519Y103D01*
X550Y103D02*
X593Y103D01*
X622Y103D02*
X665Y103D01*
X694Y103D02*
X703Y103D01*
X707Y103D02*
X731Y103D01*
X781Y103D02*
X800Y103D01*
X866Y103D02*
X877Y103D01*
X939Y103D02*
X949Y103D01*
X983Y103D02*
X991Y103D01*
X993Y103D02*
X1008Y103D01*
X1013Y103D02*
X1027Y103D01*
X1065Y103D02*
X1094Y103D01*
X1128Y103D02*
X1136Y103D01*
X1147Y103D02*
X1169Y103D01*
X1200Y103D02*
X1209Y103D01*
X1235Y103D02*
X1243Y103D01*
X1278Y103D02*
X1316Y103D01*
X1431Y103D02*
X1465Y103D01*
X1499Y103D02*
X1528Y103D01*
X3063Y103D02*
X3070Y103D01*
X0Y102D02*
X7Y102D01*
X477Y102D02*
X486Y102D01*
X495Y102D02*
X520Y102D01*
X550Y102D02*
X593Y102D01*
X622Y102D02*
X665Y102D01*
X694Y102D02*
X703Y102D01*
X706Y102D02*
X732Y102D01*
X781Y102D02*
X800Y102D01*
X866Y102D02*
X877Y102D01*
X938Y102D02*
X949Y102D01*
X983Y102D02*
X1009Y102D01*
X1012Y102D02*
X1028Y102D01*
X1064Y102D02*
X1096Y102D01*
X1128Y102D02*
X1137Y102D01*
X1145Y102D02*
X1170Y102D01*
X1200Y102D02*
X1209Y102D01*
X1233Y102D02*
X1244Y102D01*
X1277Y102D02*
X1317Y102D01*
X1430Y102D02*
X1466Y102D01*
X1498Y102D02*
X1529Y102D01*
X3063Y102D02*
X3070Y102D01*
X0Y101D02*
X7Y101D01*
X477Y101D02*
X486Y101D01*
X493Y101D02*
X521Y101D01*
X550Y101D02*
X593Y101D01*
X622Y101D02*
X665Y101D01*
X694Y101D02*
X703Y101D01*
X705Y101D02*
X733Y101D01*
X781Y101D02*
X800Y101D01*
X865Y101D02*
X876Y101D01*
X937Y101D02*
X948Y101D01*
X983Y101D02*
X1029Y101D01*
X1063Y101D02*
X1097Y101D01*
X1128Y101D02*
X1137Y101D01*
X1144Y101D02*
X1171Y101D01*
X1200Y101D02*
X1209Y101D01*
X1232Y101D02*
X1244Y101D01*
X1276Y101D02*
X1318Y101D01*
X1429Y101D02*
X1466Y101D01*
X1497Y101D02*
X1531Y101D01*
X3063Y101D02*
X3070Y101D01*
X0Y100D02*
X7Y100D01*
X477Y100D02*
X486Y100D01*
X491Y100D02*
X522Y100D01*
X550Y100D02*
X593Y100D01*
X622Y100D02*
X665Y100D01*
X694Y100D02*
X734Y100D01*
X781Y100D02*
X800Y100D01*
X865Y100D02*
X875Y100D01*
X937Y100D02*
X948Y100D01*
X982Y100D02*
X1029Y100D01*
X1062Y100D02*
X1098Y100D01*
X1128Y100D02*
X1137Y100D01*
X1142Y100D02*
X1172Y100D01*
X1200Y100D02*
X1209Y100D01*
X1231Y100D02*
X1244Y100D01*
X1276Y100D02*
X1319Y100D01*
X1428Y100D02*
X1466Y100D01*
X1495Y100D02*
X1532Y100D01*
X3063Y100D02*
X3070Y100D01*
X0Y99D02*
X7Y99D01*
X477Y99D02*
X486Y99D01*
X490Y99D02*
X522Y99D01*
X550Y99D02*
X593Y99D01*
X622Y99D02*
X665Y99D01*
X694Y99D02*
X735Y99D01*
X782Y99D02*
X800Y99D01*
X864Y99D02*
X875Y99D01*
X936Y99D02*
X947Y99D01*
X982Y99D02*
X1030Y99D01*
X1061Y99D02*
X1099Y99D01*
X1128Y99D02*
X1137Y99D01*
X1140Y99D02*
X1173Y99D01*
X1200Y99D02*
X1209Y99D01*
X1230Y99D02*
X1244Y99D01*
X1275Y99D02*
X1319Y99D01*
X1427Y99D02*
X1465Y99D01*
X1494Y99D02*
X1533Y99D01*
X3063Y99D02*
X3070Y99D01*
X0Y98D02*
X7Y98D01*
X477Y98D02*
X486Y98D01*
X488Y98D02*
X523Y98D01*
X551Y98D02*
X592Y98D01*
X623Y98D02*
X665Y98D01*
X694Y98D02*
X736Y98D01*
X782Y98D02*
X799Y98D01*
X863Y98D02*
X874Y98D01*
X936Y98D02*
X946Y98D01*
X982Y98D02*
X1031Y98D01*
X1060Y98D02*
X1100Y98D01*
X1128Y98D02*
X1137Y98D01*
X1139Y98D02*
X1173Y98D01*
X1200Y98D02*
X1209Y98D01*
X1229Y98D02*
X1243Y98D01*
X1274Y98D02*
X1320Y98D01*
X1426Y98D02*
X1465Y98D01*
X1493Y98D02*
X1534Y98D01*
X3063Y98D02*
X3070Y98D01*
X0Y97D02*
X7Y97D01*
X477Y97D02*
X523Y97D01*
X551Y97D02*
X591Y97D01*
X624Y97D02*
X664Y97D01*
X694Y97D02*
X714Y97D01*
X723Y97D02*
X738Y97D01*
X783Y97D02*
X798Y97D01*
X863Y97D02*
X874Y97D01*
X935Y97D02*
X946Y97D01*
X982Y97D02*
X1031Y97D01*
X1059Y97D02*
X1101Y97D01*
X1128Y97D02*
X1174Y97D01*
X1200Y97D02*
X1209Y97D01*
X1228Y97D02*
X1242Y97D01*
X1274Y97D02*
X1320Y97D01*
X1424Y97D02*
X1464Y97D01*
X1493Y97D02*
X1535Y97D01*
X3063Y97D02*
X3070Y97D01*
X0Y96D02*
X7Y96D01*
X477Y96D02*
X524Y96D01*
X554Y96D02*
X589Y96D01*
X626Y96D02*
X662Y96D01*
X694Y96D02*
X713Y96D01*
X724Y96D02*
X739Y96D01*
X785Y96D02*
X796Y96D01*
X862Y96D02*
X873Y96D01*
X935Y96D02*
X945Y96D01*
X982Y96D02*
X1031Y96D01*
X1058Y96D02*
X1102Y96D01*
X1128Y96D02*
X1174Y96D01*
X1200Y96D02*
X1209Y96D01*
X1226Y96D02*
X1241Y96D01*
X1274Y96D02*
X1320Y96D01*
X1423Y96D02*
X1462Y96D01*
X1492Y96D02*
X1536Y96D01*
X3063Y96D02*
X3070Y96D01*
X0Y95D02*
X7Y95D01*
X477Y95D02*
X501Y95D01*
X513Y95D02*
X524Y95D01*
X559Y95D02*
X569Y95D01*
X632Y95D02*
X641Y95D01*
X694Y95D02*
X712Y95D01*
X725Y95D02*
X739Y95D01*
X862Y95D02*
X872Y95D01*
X934Y95D02*
X945Y95D01*
X982Y95D02*
X998Y95D01*
X1003Y95D02*
X1018Y95D01*
X1022Y95D02*
X1031Y95D01*
X1058Y95D02*
X1070Y95D01*
X1090Y95D02*
X1102Y95D01*
X1128Y95D02*
X1152Y95D01*
X1164Y95D02*
X1175Y95D01*
X1200Y95D02*
X1209Y95D01*
X1225Y95D02*
X1240Y95D01*
X1274Y95D02*
X1284Y95D01*
X1310Y95D02*
X1320Y95D01*
X1422Y95D02*
X1437Y95D01*
X1491Y95D02*
X1504Y95D01*
X1523Y95D02*
X1536Y95D01*
X3063Y95D02*
X3070Y95D01*
X0Y94D02*
X7Y94D01*
X477Y94D02*
X500Y94D01*
X514Y94D02*
X524Y94D01*
X559Y94D02*
X569Y94D01*
X632Y94D02*
X641Y94D01*
X694Y94D02*
X711Y94D01*
X727Y94D02*
X740Y94D01*
X861Y94D02*
X872Y94D01*
X933Y94D02*
X944Y94D01*
X982Y94D02*
X997Y94D01*
X1003Y94D02*
X1017Y94D01*
X1022Y94D02*
X1031Y94D01*
X1057Y94D02*
X1069Y94D01*
X1091Y94D02*
X1103Y94D01*
X1128Y94D02*
X1150Y94D01*
X1165Y94D02*
X1175Y94D01*
X1200Y94D02*
X1209Y94D01*
X1224Y94D02*
X1239Y94D01*
X1274Y94D02*
X1283Y94D01*
X1311Y94D02*
X1319Y94D01*
X1421Y94D02*
X1436Y94D01*
X1491Y94D02*
X1503Y94D01*
X1525Y94D02*
X1537Y94D01*
X3063Y94D02*
X3070Y94D01*
X0Y93D02*
X7Y93D01*
X477Y93D02*
X498Y93D01*
X515Y93D02*
X525Y93D01*
X559Y93D02*
X569Y93D01*
X632Y93D02*
X641Y93D01*
X694Y93D02*
X710Y93D01*
X728Y93D02*
X741Y93D01*
X860Y93D02*
X871Y93D01*
X933Y93D02*
X944Y93D01*
X982Y93D02*
X996Y93D01*
X1003Y93D02*
X1016Y93D01*
X1022Y93D02*
X1031Y93D01*
X1057Y93D02*
X1068Y93D01*
X1092Y93D02*
X1103Y93D01*
X1128Y93D02*
X1149Y93D01*
X1166Y93D02*
X1175Y93D01*
X1200Y93D02*
X1209Y93D01*
X1223Y93D02*
X1237Y93D01*
X1274Y93D02*
X1283Y93D01*
X1313Y93D02*
X1318Y93D01*
X1420Y93D02*
X1434Y93D01*
X1490Y93D02*
X1502Y93D01*
X1526Y93D02*
X1537Y93D01*
X3063Y93D02*
X3070Y93D01*
X0Y92D02*
X7Y92D01*
X477Y92D02*
X497Y92D01*
X515Y92D02*
X525Y92D01*
X559Y92D02*
X569Y92D01*
X632Y92D02*
X641Y92D01*
X694Y92D02*
X709Y92D01*
X729Y92D02*
X741Y92D01*
X860Y92D02*
X871Y92D01*
X932Y92D02*
X943Y92D01*
X982Y92D02*
X995Y92D01*
X1003Y92D02*
X1014Y92D01*
X1022Y92D02*
X1031Y92D01*
X1056Y92D02*
X1067Y92D01*
X1093Y92D02*
X1104Y92D01*
X1128Y92D02*
X1147Y92D01*
X1166Y92D02*
X1175Y92D01*
X1200Y92D02*
X1209Y92D01*
X1222Y92D02*
X1236Y92D01*
X1274Y92D02*
X1283Y92D01*
X1314Y92D02*
X1317Y92D01*
X1420Y92D02*
X1433Y92D01*
X1490Y92D02*
X1501Y92D01*
X1527Y92D02*
X1537Y92D01*
X3063Y92D02*
X3070Y92D01*
X0Y91D02*
X7Y91D01*
X477Y91D02*
X495Y91D01*
X516Y91D02*
X525Y91D01*
X559Y91D02*
X569Y91D01*
X632Y91D02*
X641Y91D01*
X694Y91D02*
X708Y91D01*
X730Y91D02*
X742Y91D01*
X859Y91D02*
X870Y91D01*
X932Y91D02*
X942Y91D01*
X982Y91D02*
X994Y91D01*
X1003Y91D02*
X1013Y91D01*
X1022Y91D02*
X1031Y91D01*
X1056Y91D02*
X1066Y91D01*
X1094Y91D02*
X1104Y91D01*
X1128Y91D02*
X1146Y91D01*
X1166Y91D02*
X1175Y91D01*
X1200Y91D02*
X1209Y91D01*
X1221Y91D02*
X1235Y91D01*
X1274Y91D02*
X1284Y91D01*
X1419Y91D02*
X1432Y91D01*
X1490Y91D02*
X1500Y91D01*
X1528Y91D02*
X1538Y91D01*
X3063Y91D02*
X3070Y91D01*
X0Y90D02*
X7Y90D01*
X477Y90D02*
X494Y90D01*
X516Y90D02*
X525Y90D01*
X559Y90D02*
X569Y90D01*
X632Y90D02*
X641Y90D01*
X694Y90D02*
X707Y90D01*
X731Y90D02*
X742Y90D01*
X859Y90D02*
X870Y90D01*
X931Y90D02*
X942Y90D01*
X982Y90D02*
X992Y90D01*
X1003Y90D02*
X1012Y90D01*
X1022Y90D02*
X1031Y90D01*
X1056Y90D02*
X1065Y90D01*
X1095Y90D02*
X1104Y90D01*
X1128Y90D02*
X1144Y90D01*
X1166Y90D02*
X1175Y90D01*
X1200Y90D02*
X1209Y90D01*
X1219Y90D02*
X1234Y90D01*
X1274Y90D02*
X1285Y90D01*
X1418Y90D02*
X1431Y90D01*
X1489Y90D02*
X1499Y90D01*
X1528Y90D02*
X1538Y90D01*
X3063Y90D02*
X3070Y90D01*
X0Y89D02*
X7Y89D01*
X477Y89D02*
X492Y89D01*
X516Y89D02*
X525Y89D01*
X559Y89D02*
X569Y89D01*
X632Y89D02*
X641Y89D01*
X694Y89D02*
X706Y89D01*
X732Y89D02*
X743Y89D01*
X858Y89D02*
X869Y89D01*
X930Y89D02*
X941Y89D01*
X982Y89D02*
X992Y89D01*
X1003Y89D02*
X1012Y89D01*
X1022Y89D02*
X1031Y89D01*
X1056Y89D02*
X1065Y89D01*
X1095Y89D02*
X1104Y89D01*
X1128Y89D02*
X1143Y89D01*
X1166Y89D02*
X1175Y89D01*
X1200Y89D02*
X1209Y89D01*
X1218Y89D02*
X1233Y89D01*
X1274Y89D02*
X1288Y89D01*
X1418Y89D02*
X1430Y89D01*
X1489Y89D02*
X1499Y89D01*
X1529Y89D02*
X1538Y89D01*
X3063Y89D02*
X3070Y89D01*
X0Y88D02*
X7Y88D01*
X477Y88D02*
X491Y88D01*
X516Y88D02*
X525Y88D01*
X559Y88D02*
X569Y88D01*
X632Y88D02*
X641Y88D01*
X694Y88D02*
X705Y88D01*
X733Y88D02*
X743Y88D01*
X858Y88D02*
X868Y88D01*
X930Y88D02*
X941Y88D01*
X982Y88D02*
X992Y88D01*
X1003Y88D02*
X1012Y88D01*
X1022Y88D02*
X1031Y88D01*
X1056Y88D02*
X1065Y88D01*
X1095Y88D02*
X1104Y88D01*
X1128Y88D02*
X1141Y88D01*
X1166Y88D02*
X1175Y88D01*
X1200Y88D02*
X1209Y88D01*
X1217Y88D02*
X1232Y88D01*
X1275Y88D02*
X1290Y88D01*
X1418Y88D02*
X1429Y88D01*
X1489Y88D02*
X1498Y88D01*
X1529Y88D02*
X1538Y88D01*
X3063Y88D02*
X3070Y88D01*
X0Y87D02*
X7Y87D01*
X477Y87D02*
X489Y87D01*
X516Y87D02*
X525Y87D01*
X559Y87D02*
X569Y87D01*
X632Y87D02*
X641Y87D01*
X694Y87D02*
X704Y87D01*
X734Y87D02*
X743Y87D01*
X857Y87D02*
X868Y87D01*
X929Y87D02*
X940Y87D01*
X982Y87D02*
X992Y87D01*
X1003Y87D02*
X1012Y87D01*
X1022Y87D02*
X1032Y87D01*
X1056Y87D02*
X1065Y87D01*
X1095Y87D02*
X1104Y87D01*
X1128Y87D02*
X1140Y87D01*
X1166Y87D02*
X1175Y87D01*
X1200Y87D02*
X1209Y87D01*
X1216Y87D02*
X1230Y87D01*
X1275Y87D02*
X1292Y87D01*
X1417Y87D02*
X1428Y87D01*
X1489Y87D02*
X1498Y87D01*
X1529Y87D02*
X1538Y87D01*
X3063Y87D02*
X3070Y87D01*
X0Y86D02*
X7Y86D01*
X477Y86D02*
X487Y86D01*
X516Y86D02*
X525Y86D01*
X559Y86D02*
X569Y86D01*
X632Y86D02*
X641Y86D01*
X694Y86D02*
X704Y86D01*
X734Y86D02*
X743Y86D01*
X856Y86D02*
X867Y86D01*
X929Y86D02*
X939Y86D01*
X982Y86D02*
X992Y86D01*
X1003Y86D02*
X1012Y86D01*
X1023Y86D02*
X1032Y86D01*
X1056Y86D02*
X1065Y86D01*
X1095Y86D02*
X1104Y86D01*
X1128Y86D02*
X1138Y86D01*
X1166Y86D02*
X1175Y86D01*
X1200Y86D02*
X1209Y86D01*
X1215Y86D02*
X1229Y86D01*
X1276Y86D02*
X1295Y86D01*
X1417Y86D02*
X1427Y86D01*
X1489Y86D02*
X1498Y86D01*
X1529Y86D02*
X1538Y86D01*
X3063Y86D02*
X3070Y86D01*
X0Y85D02*
X7Y85D01*
X477Y85D02*
X486Y85D01*
X516Y85D02*
X525Y85D01*
X559Y85D02*
X569Y85D01*
X632Y85D02*
X641Y85D01*
X694Y85D02*
X703Y85D01*
X734Y85D02*
X743Y85D01*
X856Y85D02*
X867Y85D01*
X928Y85D02*
X939Y85D01*
X982Y85D02*
X992Y85D01*
X1003Y85D02*
X1012Y85D01*
X1023Y85D02*
X1032Y85D01*
X1056Y85D02*
X1065Y85D01*
X1095Y85D02*
X1104Y85D01*
X1128Y85D02*
X1137Y85D01*
X1166Y85D02*
X1176Y85D01*
X1200Y85D02*
X1209Y85D01*
X1213Y85D02*
X1228Y85D01*
X1277Y85D02*
X1297Y85D01*
X1417Y85D02*
X1426Y85D01*
X1489Y85D02*
X1498Y85D01*
X1529Y85D02*
X1538Y85D01*
X3063Y85D02*
X3070Y85D01*
X0Y84D02*
X7Y84D01*
X477Y84D02*
X486Y84D01*
X516Y84D02*
X525Y84D01*
X559Y84D02*
X569Y84D01*
X632Y84D02*
X641Y84D01*
X694Y84D02*
X703Y84D01*
X734Y84D02*
X743Y84D01*
X855Y84D02*
X866Y84D01*
X928Y84D02*
X938Y84D01*
X982Y84D02*
X992Y84D01*
X1003Y84D02*
X1012Y84D01*
X1023Y84D02*
X1032Y84D01*
X1056Y84D02*
X1065Y84D01*
X1095Y84D02*
X1104Y84D01*
X1128Y84D02*
X1137Y84D01*
X1166Y84D02*
X1176Y84D01*
X1200Y84D02*
X1209Y84D01*
X1212Y84D02*
X1227Y84D01*
X1277Y84D02*
X1299Y84D01*
X1417Y84D02*
X1426Y84D01*
X1489Y84D02*
X1498Y84D01*
X1529Y84D02*
X1538Y84D01*
X3063Y84D02*
X3070Y84D01*
X0Y83D02*
X7Y83D01*
X477Y83D02*
X486Y83D01*
X516Y83D02*
X525Y83D01*
X559Y83D02*
X569Y83D01*
X632Y83D02*
X641Y83D01*
X694Y83D02*
X703Y83D01*
X734Y83D02*
X743Y83D01*
X855Y83D02*
X865Y83D01*
X927Y83D02*
X938Y83D01*
X982Y83D02*
X992Y83D01*
X1003Y83D02*
X1012Y83D01*
X1023Y83D02*
X1032Y83D01*
X1056Y83D02*
X1065Y83D01*
X1095Y83D02*
X1104Y83D01*
X1128Y83D02*
X1137Y83D01*
X1166Y83D02*
X1176Y83D01*
X1200Y83D02*
X1209Y83D01*
X1211Y83D02*
X1226Y83D01*
X1278Y83D02*
X1302Y83D01*
X1417Y83D02*
X1426Y83D01*
X1489Y83D02*
X1498Y83D01*
X1529Y83D02*
X1538Y83D01*
X3063Y83D02*
X3070Y83D01*
X0Y82D02*
X7Y82D01*
X477Y82D02*
X486Y82D01*
X516Y82D02*
X525Y82D01*
X559Y82D02*
X569Y82D01*
X632Y82D02*
X641Y82D01*
X694Y82D02*
X703Y82D01*
X734Y82D02*
X743Y82D01*
X854Y82D02*
X865Y82D01*
X926Y82D02*
X937Y82D01*
X982Y82D02*
X992Y82D01*
X1003Y82D02*
X1012Y82D01*
X1023Y82D02*
X1032Y82D01*
X1056Y82D02*
X1065Y82D01*
X1095Y82D02*
X1104Y82D01*
X1128Y82D02*
X1137Y82D01*
X1167Y82D02*
X1176Y82D01*
X1200Y82D02*
X1225Y82D01*
X1280Y82D02*
X1304Y82D01*
X1417Y82D02*
X1426Y82D01*
X1489Y82D02*
X1498Y82D01*
X1529Y82D02*
X1538Y82D01*
X3063Y82D02*
X3070Y82D01*
X0Y81D02*
X7Y81D01*
X477Y81D02*
X486Y81D01*
X516Y81D02*
X525Y81D01*
X559Y81D02*
X569Y81D01*
X632Y81D02*
X641Y81D01*
X694Y81D02*
X703Y81D01*
X734Y81D02*
X743Y81D01*
X853Y81D02*
X864Y81D01*
X926Y81D02*
X937Y81D01*
X982Y81D02*
X992Y81D01*
X1003Y81D02*
X1012Y81D01*
X1023Y81D02*
X1032Y81D01*
X1056Y81D02*
X1065Y81D01*
X1095Y81D02*
X1104Y81D01*
X1128Y81D02*
X1137Y81D01*
X1167Y81D02*
X1176Y81D01*
X1200Y81D02*
X1223Y81D01*
X1282Y81D02*
X1306Y81D01*
X1417Y81D02*
X1426Y81D01*
X1489Y81D02*
X1498Y81D01*
X1529Y81D02*
X1538Y81D01*
X3063Y81D02*
X3070Y81D01*
X0Y80D02*
X7Y80D01*
X477Y80D02*
X486Y80D01*
X516Y80D02*
X525Y80D01*
X559Y80D02*
X569Y80D01*
X632Y80D02*
X641Y80D01*
X694Y80D02*
X703Y80D01*
X734Y80D02*
X743Y80D01*
X784Y80D02*
X797Y80D01*
X853Y80D02*
X864Y80D01*
X925Y80D02*
X936Y80D01*
X982Y80D02*
X992Y80D01*
X1003Y80D02*
X1012Y80D01*
X1023Y80D02*
X1032Y80D01*
X1056Y80D02*
X1065Y80D01*
X1095Y80D02*
X1104Y80D01*
X1128Y80D02*
X1137Y80D01*
X1167Y80D02*
X1176Y80D01*
X1200Y80D02*
X1222Y80D01*
X1284Y80D02*
X1309Y80D01*
X1363Y80D02*
X1375Y80D01*
X1417Y80D02*
X1426Y80D01*
X1489Y80D02*
X1498Y80D01*
X1529Y80D02*
X1538Y80D01*
X3063Y80D02*
X3070Y80D01*
X0Y79D02*
X7Y79D01*
X477Y79D02*
X486Y79D01*
X516Y79D02*
X525Y79D01*
X559Y79D02*
X569Y79D01*
X632Y79D02*
X641Y79D01*
X694Y79D02*
X703Y79D01*
X734Y79D02*
X743Y79D01*
X783Y79D02*
X799Y79D01*
X852Y79D02*
X863Y79D01*
X925Y79D02*
X935Y79D01*
X982Y79D02*
X992Y79D01*
X1003Y79D02*
X1012Y79D01*
X1023Y79D02*
X1032Y79D01*
X1056Y79D02*
X1065Y79D01*
X1095Y79D02*
X1104Y79D01*
X1128Y79D02*
X1137Y79D01*
X1167Y79D02*
X1176Y79D01*
X1200Y79D02*
X1223Y79D01*
X1287Y79D02*
X1311Y79D01*
X1361Y79D02*
X1377Y79D01*
X1417Y79D02*
X1426Y79D01*
X1489Y79D02*
X1498Y79D01*
X1529Y79D02*
X1538Y79D01*
X3063Y79D02*
X3070Y79D01*
X0Y78D02*
X7Y78D01*
X477Y78D02*
X486Y78D01*
X516Y78D02*
X525Y78D01*
X559Y78D02*
X569Y78D01*
X632Y78D02*
X641Y78D01*
X694Y78D02*
X703Y78D01*
X734Y78D02*
X743Y78D01*
X782Y78D02*
X799Y78D01*
X852Y78D02*
X863Y78D01*
X924Y78D02*
X935Y78D01*
X982Y78D02*
X992Y78D01*
X1003Y78D02*
X1012Y78D01*
X1023Y78D02*
X1032Y78D01*
X1056Y78D02*
X1065Y78D01*
X1095Y78D02*
X1104Y78D01*
X1128Y78D02*
X1137Y78D01*
X1167Y78D02*
X1176Y78D01*
X1200Y78D02*
X1224Y78D01*
X1289Y78D02*
X1313Y78D01*
X1360Y78D02*
X1378Y78D01*
X1417Y78D02*
X1426Y78D01*
X1489Y78D02*
X1498Y78D01*
X1529Y78D02*
X1538Y78D01*
X3063Y78D02*
X3070Y78D01*
X0Y77D02*
X7Y77D01*
X477Y77D02*
X486Y77D01*
X516Y77D02*
X525Y77D01*
X559Y77D02*
X569Y77D01*
X632Y77D02*
X641Y77D01*
X694Y77D02*
X703Y77D01*
X734Y77D02*
X743Y77D01*
X782Y77D02*
X800Y77D01*
X851Y77D02*
X862Y77D01*
X923Y77D02*
X934Y77D01*
X982Y77D02*
X992Y77D01*
X1003Y77D02*
X1012Y77D01*
X1023Y77D02*
X1032Y77D01*
X1056Y77D02*
X1065Y77D01*
X1095Y77D02*
X1104Y77D01*
X1128Y77D02*
X1137Y77D01*
X1167Y77D02*
X1176Y77D01*
X1200Y77D02*
X1225Y77D01*
X1291Y77D02*
X1315Y77D01*
X1360Y77D02*
X1378Y77D01*
X1417Y77D02*
X1426Y77D01*
X1489Y77D02*
X1498Y77D01*
X1529Y77D02*
X1538Y77D01*
X3063Y77D02*
X3070Y77D01*
X0Y76D02*
X7Y76D01*
X477Y76D02*
X486Y76D01*
X516Y76D02*
X525Y76D01*
X559Y76D02*
X569Y76D01*
X632Y76D02*
X641Y76D01*
X694Y76D02*
X703Y76D01*
X734Y76D02*
X743Y76D01*
X781Y76D02*
X800Y76D01*
X851Y76D02*
X861Y76D01*
X923Y76D02*
X934Y76D01*
X982Y76D02*
X992Y76D01*
X1003Y76D02*
X1012Y76D01*
X1023Y76D02*
X1032Y76D01*
X1056Y76D02*
X1065Y76D01*
X1095Y76D02*
X1104Y76D01*
X1128Y76D02*
X1137Y76D01*
X1167Y76D02*
X1176Y76D01*
X1200Y76D02*
X1226Y76D01*
X1293Y76D02*
X1316Y76D01*
X1360Y76D02*
X1378Y76D01*
X1417Y76D02*
X1426Y76D01*
X1489Y76D02*
X1498Y76D01*
X1529Y76D02*
X1538Y76D01*
X3063Y76D02*
X3070Y76D01*
X0Y75D02*
X7Y75D01*
X477Y75D02*
X486Y75D01*
X516Y75D02*
X525Y75D01*
X559Y75D02*
X569Y75D01*
X632Y75D02*
X641Y75D01*
X694Y75D02*
X703Y75D01*
X734Y75D02*
X743Y75D01*
X781Y75D02*
X800Y75D01*
X850Y75D02*
X861Y75D01*
X922Y75D02*
X933Y75D01*
X982Y75D02*
X992Y75D01*
X1003Y75D02*
X1012Y75D01*
X1023Y75D02*
X1032Y75D01*
X1056Y75D02*
X1065Y75D01*
X1095Y75D02*
X1104Y75D01*
X1128Y75D02*
X1137Y75D01*
X1167Y75D02*
X1176Y75D01*
X1200Y75D02*
X1227Y75D01*
X1296Y75D02*
X1317Y75D01*
X1359Y75D02*
X1379Y75D01*
X1417Y75D02*
X1426Y75D01*
X1489Y75D02*
X1498Y75D01*
X1529Y75D02*
X1538Y75D01*
X3063Y75D02*
X3070Y75D01*
X0Y74D02*
X7Y74D01*
X477Y74D02*
X486Y74D01*
X516Y74D02*
X525Y74D01*
X559Y74D02*
X569Y74D01*
X632Y74D02*
X641Y74D01*
X694Y74D02*
X703Y74D01*
X734Y74D02*
X743Y74D01*
X781Y74D02*
X800Y74D01*
X849Y74D02*
X860Y74D01*
X922Y74D02*
X932Y74D01*
X982Y74D02*
X992Y74D01*
X1003Y74D02*
X1012Y74D01*
X1023Y74D02*
X1032Y74D01*
X1056Y74D02*
X1065Y74D01*
X1095Y74D02*
X1104Y74D01*
X1128Y74D02*
X1137Y74D01*
X1167Y74D02*
X1176Y74D01*
X1200Y74D02*
X1228Y74D01*
X1298Y74D02*
X1318Y74D01*
X1359Y74D02*
X1379Y74D01*
X1417Y74D02*
X1426Y74D01*
X1489Y74D02*
X1498Y74D01*
X1529Y74D02*
X1538Y74D01*
X3063Y74D02*
X3070Y74D01*
X0Y73D02*
X7Y73D01*
X477Y73D02*
X486Y73D01*
X516Y73D02*
X525Y73D01*
X559Y73D02*
X569Y73D01*
X632Y73D02*
X641Y73D01*
X694Y73D02*
X703Y73D01*
X734Y73D02*
X743Y73D01*
X781Y73D02*
X800Y73D01*
X849Y73D02*
X860Y73D01*
X921Y73D02*
X932Y73D01*
X982Y73D02*
X992Y73D01*
X1003Y73D02*
X1012Y73D01*
X1023Y73D02*
X1032Y73D01*
X1056Y73D02*
X1065Y73D01*
X1095Y73D02*
X1104Y73D01*
X1128Y73D02*
X1137Y73D01*
X1167Y73D02*
X1176Y73D01*
X1200Y73D02*
X1230Y73D01*
X1300Y73D02*
X1318Y73D01*
X1359Y73D02*
X1379Y73D01*
X1417Y73D02*
X1426Y73D01*
X1489Y73D02*
X1498Y73D01*
X1529Y73D02*
X1538Y73D01*
X3063Y73D02*
X3070Y73D01*
X0Y72D02*
X7Y72D01*
X477Y72D02*
X486Y72D01*
X516Y72D02*
X525Y72D01*
X559Y72D02*
X569Y72D01*
X632Y72D02*
X641Y72D01*
X694Y72D02*
X703Y72D01*
X734Y72D02*
X743Y72D01*
X781Y72D02*
X800Y72D01*
X848Y72D02*
X859Y72D01*
X920Y72D02*
X931Y72D01*
X982Y72D02*
X992Y72D01*
X1003Y72D02*
X1012Y72D01*
X1023Y72D02*
X1032Y72D01*
X1056Y72D02*
X1065Y72D01*
X1095Y72D02*
X1104Y72D01*
X1128Y72D02*
X1137Y72D01*
X1167Y72D02*
X1176Y72D01*
X1200Y72D02*
X1213Y72D01*
X1216Y72D02*
X1231Y72D01*
X1303Y72D02*
X1319Y72D01*
X1359Y72D02*
X1379Y72D01*
X1417Y72D02*
X1426Y72D01*
X1489Y72D02*
X1498Y72D01*
X1529Y72D02*
X1538Y72D01*
X3063Y72D02*
X3070Y72D01*
X0Y71D02*
X7Y71D01*
X477Y71D02*
X486Y71D01*
X516Y71D02*
X525Y71D01*
X559Y71D02*
X569Y71D01*
X632Y71D02*
X641Y71D01*
X694Y71D02*
X703Y71D01*
X734Y71D02*
X743Y71D01*
X781Y71D02*
X800Y71D01*
X848Y71D02*
X858Y71D01*
X920Y71D02*
X931Y71D01*
X982Y71D02*
X992Y71D01*
X1003Y71D02*
X1012Y71D01*
X1023Y71D02*
X1032Y71D01*
X1056Y71D02*
X1065Y71D01*
X1095Y71D02*
X1104Y71D01*
X1128Y71D02*
X1137Y71D01*
X1167Y71D02*
X1176Y71D01*
X1200Y71D02*
X1212Y71D01*
X1217Y71D02*
X1232Y71D01*
X1305Y71D02*
X1320Y71D01*
X1359Y71D02*
X1379Y71D01*
X1417Y71D02*
X1426Y71D01*
X1489Y71D02*
X1498Y71D01*
X1529Y71D02*
X1538Y71D01*
X3063Y71D02*
X3070Y71D01*
X0Y70D02*
X7Y70D01*
X477Y70D02*
X486Y70D01*
X516Y70D02*
X525Y70D01*
X559Y70D02*
X569Y70D01*
X632Y70D02*
X641Y70D01*
X694Y70D02*
X703Y70D01*
X734Y70D02*
X743Y70D01*
X781Y70D02*
X800Y70D01*
X847Y70D02*
X858Y70D01*
X919Y70D02*
X930Y70D01*
X982Y70D02*
X992Y70D01*
X1003Y70D02*
X1012Y70D01*
X1023Y70D02*
X1032Y70D01*
X1056Y70D02*
X1065Y70D01*
X1095Y70D02*
X1104Y70D01*
X1128Y70D02*
X1137Y70D01*
X1167Y70D02*
X1176Y70D01*
X1200Y70D02*
X1211Y70D01*
X1219Y70D02*
X1233Y70D01*
X1307Y70D02*
X1320Y70D01*
X1359Y70D02*
X1379Y70D01*
X1417Y70D02*
X1426Y70D01*
X1489Y70D02*
X1498Y70D01*
X1529Y70D02*
X1538Y70D01*
X3063Y70D02*
X3070Y70D01*
X0Y69D02*
X7Y69D01*
X477Y69D02*
X486Y69D01*
X516Y69D02*
X525Y69D01*
X559Y69D02*
X569Y69D01*
X632Y69D02*
X641Y69D01*
X694Y69D02*
X704Y69D01*
X734Y69D02*
X743Y69D01*
X781Y69D02*
X800Y69D01*
X846Y69D02*
X857Y69D01*
X919Y69D02*
X930Y69D01*
X982Y69D02*
X992Y69D01*
X1003Y69D02*
X1012Y69D01*
X1023Y69D02*
X1032Y69D01*
X1056Y69D02*
X1065Y69D01*
X1095Y69D02*
X1104Y69D01*
X1128Y69D02*
X1137Y69D01*
X1167Y69D02*
X1176Y69D01*
X1200Y69D02*
X1209Y69D01*
X1220Y69D02*
X1234Y69D01*
X1309Y69D02*
X1320Y69D01*
X1359Y69D02*
X1379Y69D01*
X1417Y69D02*
X1427Y69D01*
X1489Y69D02*
X1498Y69D01*
X1529Y69D02*
X1538Y69D01*
X3063Y69D02*
X3070Y69D01*
X0Y68D02*
X7Y68D01*
X477Y68D02*
X486Y68D01*
X516Y68D02*
X526Y68D01*
X559Y68D02*
X569Y68D01*
X632Y68D02*
X641Y68D01*
X694Y68D02*
X704Y68D01*
X734Y68D02*
X743Y68D01*
X781Y68D02*
X800Y68D01*
X846Y68D02*
X857Y68D01*
X918Y68D02*
X929Y68D01*
X982Y68D02*
X992Y68D01*
X1003Y68D02*
X1012Y68D01*
X1023Y68D02*
X1032Y68D01*
X1056Y68D02*
X1065Y68D01*
X1095Y68D02*
X1104Y68D01*
X1128Y68D02*
X1137Y68D01*
X1167Y68D02*
X1176Y68D01*
X1200Y68D02*
X1209Y68D01*
X1221Y68D02*
X1235Y68D01*
X1311Y68D02*
X1321Y68D01*
X1359Y68D02*
X1379Y68D01*
X1417Y68D02*
X1428Y68D01*
X1489Y68D02*
X1498Y68D01*
X1529Y68D02*
X1538Y68D01*
X3063Y68D02*
X3070Y68D01*
X0Y67D02*
X7Y67D01*
X477Y67D02*
X486Y67D01*
X517Y67D02*
X526Y67D01*
X559Y67D02*
X569Y67D01*
X592Y67D02*
X596Y67D01*
X632Y67D02*
X641Y67D01*
X664Y67D02*
X668Y67D01*
X694Y67D02*
X705Y67D01*
X733Y67D02*
X743Y67D01*
X781Y67D02*
X800Y67D01*
X845Y67D02*
X856Y67D01*
X918Y67D02*
X928Y67D01*
X982Y67D02*
X992Y67D01*
X1003Y67D02*
X1012Y67D01*
X1023Y67D02*
X1032Y67D01*
X1056Y67D02*
X1065Y67D01*
X1095Y67D02*
X1104Y67D01*
X1128Y67D02*
X1137Y67D01*
X1167Y67D02*
X1176Y67D01*
X1200Y67D02*
X1209Y67D01*
X1222Y67D02*
X1237Y67D01*
X1311Y67D02*
X1321Y67D01*
X1359Y67D02*
X1379Y67D01*
X1418Y67D02*
X1429Y67D01*
X1489Y67D02*
X1498Y67D01*
X1529Y67D02*
X1538Y67D01*
X3063Y67D02*
X3070Y67D01*
X0Y66D02*
X7Y66D01*
X477Y66D02*
X486Y66D01*
X517Y66D02*
X526Y66D01*
X559Y66D02*
X569Y66D01*
X591Y66D02*
X597Y66D01*
X632Y66D02*
X641Y66D01*
X663Y66D02*
X669Y66D01*
X694Y66D02*
X706Y66D01*
X732Y66D02*
X743Y66D01*
X781Y66D02*
X800Y66D01*
X845Y66D02*
X855Y66D01*
X917Y66D02*
X928Y66D01*
X982Y66D02*
X992Y66D01*
X1003Y66D02*
X1012Y66D01*
X1023Y66D02*
X1032Y66D01*
X1056Y66D02*
X1065Y66D01*
X1095Y66D02*
X1104Y66D01*
X1128Y66D02*
X1137Y66D01*
X1167Y66D02*
X1176Y66D01*
X1200Y66D02*
X1209Y66D01*
X1223Y66D02*
X1238Y66D01*
X1312Y66D02*
X1321Y66D01*
X1360Y66D02*
X1378Y66D01*
X1418Y66D02*
X1430Y66D01*
X1489Y66D02*
X1499Y66D01*
X1529Y66D02*
X1538Y66D01*
X3063Y66D02*
X3070Y66D01*
X0Y65D02*
X7Y65D01*
X477Y65D02*
X486Y65D01*
X517Y65D02*
X526Y65D01*
X559Y65D02*
X569Y65D01*
X590Y65D02*
X598Y65D01*
X632Y65D02*
X641Y65D01*
X662Y65D02*
X670Y65D01*
X694Y65D02*
X707Y65D01*
X731Y65D02*
X742Y65D01*
X782Y65D02*
X800Y65D01*
X844Y65D02*
X855Y65D01*
X916Y65D02*
X927Y65D01*
X982Y65D02*
X992Y65D01*
X1003Y65D02*
X1012Y65D01*
X1023Y65D02*
X1032Y65D01*
X1056Y65D02*
X1065Y65D01*
X1095Y65D02*
X1104Y65D01*
X1128Y65D02*
X1137Y65D01*
X1167Y65D02*
X1176Y65D01*
X1200Y65D02*
X1209Y65D01*
X1224Y65D02*
X1239Y65D01*
X1312Y65D02*
X1321Y65D01*
X1360Y65D02*
X1378Y65D01*
X1418Y65D02*
X1431Y65D01*
X1489Y65D02*
X1499Y65D01*
X1528Y65D02*
X1538Y65D01*
X3063Y65D02*
X3070Y65D01*
X0Y64D02*
X7Y64D01*
X477Y64D02*
X486Y64D01*
X517Y64D02*
X526Y64D01*
X559Y64D02*
X569Y64D01*
X590Y64D02*
X598Y64D01*
X632Y64D02*
X641Y64D01*
X662Y64D02*
X670Y64D01*
X694Y64D02*
X708Y64D01*
X730Y64D02*
X742Y64D01*
X782Y64D02*
X799Y64D01*
X844Y64D02*
X854Y64D01*
X916Y64D02*
X927Y64D01*
X982Y64D02*
X992Y64D01*
X1003Y64D02*
X1012Y64D01*
X1023Y64D02*
X1032Y64D01*
X1056Y64D02*
X1066Y64D01*
X1094Y64D02*
X1104Y64D01*
X1128Y64D02*
X1137Y64D01*
X1167Y64D02*
X1176Y64D01*
X1200Y64D02*
X1209Y64D01*
X1226Y64D02*
X1240Y64D01*
X1312Y64D02*
X1321Y64D01*
X1361Y64D02*
X1378Y64D01*
X1419Y64D02*
X1432Y64D01*
X1490Y64D02*
X1500Y64D01*
X1528Y64D02*
X1538Y64D01*
X3063Y64D02*
X3070Y64D01*
X0Y63D02*
X7Y63D01*
X477Y63D02*
X486Y63D01*
X517Y63D02*
X526Y63D01*
X560Y63D02*
X569Y63D01*
X589Y63D02*
X598Y63D01*
X632Y63D02*
X641Y63D01*
X661Y63D02*
X671Y63D01*
X694Y63D02*
X709Y63D01*
X729Y63D02*
X741Y63D01*
X783Y63D02*
X798Y63D01*
X843Y63D02*
X854Y63D01*
X915Y63D02*
X926Y63D01*
X982Y63D02*
X992Y63D01*
X1003Y63D02*
X1012Y63D01*
X1023Y63D02*
X1032Y63D01*
X1056Y63D02*
X1067Y63D01*
X1093Y63D02*
X1104Y63D01*
X1128Y63D02*
X1137Y63D01*
X1167Y63D02*
X1176Y63D01*
X1200Y63D02*
X1209Y63D01*
X1227Y63D02*
X1241Y63D01*
X1275Y63D02*
X1278Y63D01*
X1312Y63D02*
X1321Y63D01*
X1361Y63D02*
X1377Y63D01*
X1420Y63D02*
X1433Y63D01*
X1490Y63D02*
X1500Y63D01*
X1527Y63D02*
X1538Y63D01*
X3063Y63D02*
X3070Y63D01*
X0Y62D02*
X7Y62D01*
X477Y62D02*
X486Y62D01*
X517Y62D02*
X526Y62D01*
X560Y62D02*
X569Y62D01*
X589Y62D02*
X598Y62D01*
X632Y62D02*
X641Y62D01*
X661Y62D02*
X671Y62D01*
X694Y62D02*
X710Y62D01*
X728Y62D02*
X741Y62D01*
X785Y62D02*
X796Y62D01*
X842Y62D02*
X853Y62D01*
X915Y62D02*
X925Y62D01*
X982Y62D02*
X992Y62D01*
X1003Y62D02*
X1012Y62D01*
X1023Y62D02*
X1032Y62D01*
X1056Y62D02*
X1068Y62D01*
X1092Y62D02*
X1103Y62D01*
X1128Y62D02*
X1137Y62D01*
X1167Y62D02*
X1176Y62D01*
X1200Y62D02*
X1209Y62D01*
X1228Y62D02*
X1242Y62D01*
X1274Y62D02*
X1280Y62D01*
X1311Y62D02*
X1321Y62D01*
X1364Y62D02*
X1374Y62D01*
X1420Y62D02*
X1435Y62D01*
X1490Y62D02*
X1502Y62D01*
X1525Y62D02*
X1537Y62D01*
X3063Y62D02*
X3070Y62D01*
X0Y61D02*
X7Y61D01*
X477Y61D02*
X486Y61D01*
X517Y61D02*
X526Y61D01*
X560Y61D02*
X570Y61D01*
X588Y61D02*
X598Y61D01*
X632Y61D02*
X642Y61D01*
X660Y61D02*
X670Y61D01*
X694Y61D02*
X711Y61D01*
X727Y61D02*
X740Y61D01*
X842Y61D02*
X853Y61D01*
X914Y61D02*
X925Y61D01*
X982Y61D02*
X992Y61D01*
X1003Y61D02*
X1012Y61D01*
X1023Y61D02*
X1032Y61D01*
X1057Y61D02*
X1069Y61D01*
X1091Y61D02*
X1103Y61D01*
X1128Y61D02*
X1137Y61D01*
X1167Y61D02*
X1176Y61D01*
X1200Y61D02*
X1209Y61D01*
X1229Y61D02*
X1244Y61D01*
X1273Y61D02*
X1282Y61D01*
X1310Y61D02*
X1321Y61D01*
X1421Y61D02*
X1436Y61D01*
X1491Y61D02*
X1503Y61D01*
X1524Y61D02*
X1537Y61D01*
X3063Y61D02*
X3070Y61D01*
X0Y60D02*
X7Y60D01*
X477Y60D02*
X486Y60D01*
X517Y60D02*
X526Y60D01*
X560Y60D02*
X571Y60D01*
X587Y60D02*
X598Y60D01*
X632Y60D02*
X643Y60D01*
X659Y60D02*
X670Y60D01*
X694Y60D02*
X712Y60D01*
X725Y60D02*
X739Y60D01*
X841Y60D02*
X852Y60D01*
X913Y60D02*
X924Y60D01*
X982Y60D02*
X992Y60D01*
X1003Y60D02*
X1012Y60D01*
X1023Y60D02*
X1033Y60D01*
X1057Y60D02*
X1071Y60D01*
X1089Y60D02*
X1102Y60D01*
X1128Y60D02*
X1137Y60D01*
X1167Y60D02*
X1176Y60D01*
X1200Y60D02*
X1209Y60D01*
X1230Y60D02*
X1245Y60D01*
X1273Y60D02*
X1283Y60D01*
X1309Y60D02*
X1320Y60D01*
X1422Y60D02*
X1437Y60D01*
X1491Y60D02*
X1504Y60D01*
X1523Y60D02*
X1536Y60D01*
X3063Y60D02*
X3070Y60D01*
X0Y59D02*
X7Y59D01*
X477Y59D02*
X486Y59D01*
X517Y59D02*
X526Y59D01*
X560Y59D02*
X597Y59D01*
X633Y59D02*
X670Y59D01*
X694Y59D02*
X713Y59D01*
X724Y59D02*
X739Y59D01*
X841Y59D02*
X851Y59D01*
X913Y59D02*
X924Y59D01*
X982Y59D02*
X992Y59D01*
X1003Y59D02*
X1012Y59D01*
X1023Y59D02*
X1033Y59D01*
X1058Y59D02*
X1102Y59D01*
X1128Y59D02*
X1137Y59D01*
X1167Y59D02*
X1176Y59D01*
X1200Y59D02*
X1209Y59D01*
X1231Y59D02*
X1246Y59D01*
X1272Y59D02*
X1320Y59D01*
X1423Y59D02*
X1462Y59D01*
X1492Y59D02*
X1535Y59D01*
X3063Y59D02*
X3070Y59D01*
X0Y58D02*
X7Y58D01*
X477Y58D02*
X486Y58D01*
X517Y58D02*
X526Y58D01*
X561Y58D02*
X597Y58D01*
X633Y58D02*
X669Y58D01*
X694Y58D02*
X714Y58D01*
X723Y58D02*
X738Y58D01*
X840Y58D02*
X851Y58D01*
X912Y58D02*
X923Y58D01*
X982Y58D02*
X992Y58D01*
X1003Y58D02*
X1012Y58D01*
X1024Y58D02*
X1033Y58D01*
X1059Y58D02*
X1101Y58D01*
X1128Y58D02*
X1137Y58D01*
X1167Y58D02*
X1176Y58D01*
X1200Y58D02*
X1209Y58D01*
X1233Y58D02*
X1247Y58D01*
X1272Y58D02*
X1320Y58D01*
X1425Y58D02*
X1464Y58D01*
X1492Y58D02*
X1535Y58D01*
X3063Y58D02*
X3070Y58D01*
X0Y57D02*
X7Y57D01*
X477Y57D02*
X486Y57D01*
X517Y57D02*
X526Y57D01*
X561Y57D02*
X597Y57D01*
X634Y57D02*
X669Y57D01*
X694Y57D02*
X736Y57D01*
X839Y57D02*
X850Y57D01*
X912Y57D02*
X923Y57D01*
X982Y57D02*
X992Y57D01*
X1003Y57D02*
X1012Y57D01*
X1024Y57D02*
X1033Y57D01*
X1060Y57D02*
X1100Y57D01*
X1128Y57D02*
X1137Y57D01*
X1167Y57D02*
X1176Y57D01*
X1200Y57D02*
X1209Y57D01*
X1234Y57D02*
X1248Y57D01*
X1273Y57D02*
X1319Y57D01*
X1426Y57D02*
X1465Y57D01*
X1493Y57D02*
X1534Y57D01*
X3063Y57D02*
X3070Y57D01*
X0Y56D02*
X7Y56D01*
X477Y56D02*
X486Y56D01*
X517Y56D02*
X526Y56D01*
X562Y56D02*
X596Y56D01*
X634Y56D02*
X668Y56D01*
X694Y56D02*
X735Y56D01*
X839Y56D02*
X850Y56D01*
X911Y56D02*
X922Y56D01*
X982Y56D02*
X992Y56D01*
X1003Y56D02*
X1012Y56D01*
X1024Y56D02*
X1033Y56D01*
X1061Y56D02*
X1099Y56D01*
X1128Y56D02*
X1137Y56D01*
X1167Y56D02*
X1176Y56D01*
X1200Y56D02*
X1209Y56D01*
X1235Y56D02*
X1249Y56D01*
X1273Y56D02*
X1318Y56D01*
X1427Y56D02*
X1465Y56D01*
X1494Y56D02*
X1533Y56D01*
X3063Y56D02*
X3070Y56D01*
X0Y55D02*
X7Y55D01*
X477Y55D02*
X486Y55D01*
X517Y55D02*
X526Y55D01*
X563Y55D02*
X595Y55D01*
X635Y55D02*
X667Y55D01*
X694Y55D02*
X734Y55D01*
X839Y55D02*
X849Y55D01*
X911Y55D02*
X921Y55D01*
X982Y55D02*
X992Y55D01*
X1003Y55D02*
X1012Y55D01*
X1024Y55D02*
X1033Y55D01*
X1062Y55D02*
X1098Y55D01*
X1128Y55D02*
X1137Y55D01*
X1167Y55D02*
X1176Y55D01*
X1200Y55D02*
X1209Y55D01*
X1236Y55D02*
X1249Y55D01*
X1274Y55D02*
X1318Y55D01*
X1428Y55D02*
X1466Y55D01*
X1495Y55D02*
X1532Y55D01*
X3063Y55D02*
X3070Y55D01*
X0Y54D02*
X7Y54D01*
X477Y54D02*
X486Y54D01*
X517Y54D02*
X526Y54D01*
X564Y54D02*
X594Y54D01*
X636Y54D02*
X666Y54D01*
X694Y54D02*
X703Y54D01*
X705Y54D02*
X733Y54D01*
X839Y54D02*
X848Y54D01*
X911Y54D02*
X921Y54D01*
X983Y54D02*
X992Y54D01*
X1003Y54D02*
X1012Y54D01*
X1024Y54D02*
X1033Y54D01*
X1063Y54D02*
X1097Y54D01*
X1128Y54D02*
X1137Y54D01*
X1168Y54D02*
X1176Y54D01*
X1200Y54D02*
X1209Y54D01*
X1237Y54D02*
X1249Y54D01*
X1275Y54D02*
X1317Y54D01*
X1429Y54D02*
X1466Y54D01*
X1497Y54D02*
X1531Y54D01*
X3063Y54D02*
X3070Y54D01*
X0Y53D02*
X7Y53D01*
X478Y53D02*
X486Y53D01*
X517Y53D02*
X526Y53D01*
X565Y53D02*
X593Y53D01*
X637Y53D02*
X665Y53D01*
X694Y53D02*
X703Y53D01*
X706Y53D02*
X732Y53D01*
X839Y53D02*
X848Y53D01*
X911Y53D02*
X920Y53D01*
X983Y53D02*
X991Y53D01*
X1003Y53D02*
X1012Y53D01*
X1024Y53D02*
X1033Y53D01*
X1064Y53D02*
X1096Y53D01*
X1128Y53D02*
X1137Y53D01*
X1168Y53D02*
X1176Y53D01*
X1200Y53D02*
X1209Y53D01*
X1238Y53D02*
X1249Y53D01*
X1276Y53D02*
X1316Y53D01*
X1430Y53D02*
X1466Y53D01*
X1498Y53D02*
X1529Y53D01*
X3063Y53D02*
X3070Y53D01*
X0Y52D02*
X7Y52D01*
X478Y52D02*
X486Y52D01*
X517Y52D02*
X525Y52D01*
X566Y52D02*
X592Y52D01*
X638Y52D02*
X664Y52D01*
X694Y52D02*
X703Y52D01*
X707Y52D02*
X731Y52D01*
X839Y52D02*
X847Y52D01*
X912Y52D02*
X920Y52D01*
X983Y52D02*
X991Y52D01*
X1004Y52D02*
X1012Y52D01*
X1024Y52D02*
X1032Y52D01*
X1065Y52D02*
X1094Y52D01*
X1128Y52D02*
X1136Y52D01*
X1168Y52D02*
X1176Y52D01*
X1201Y52D02*
X1209Y52D01*
X1240Y52D02*
X1248Y52D01*
X1278Y52D02*
X1315Y52D01*
X1432Y52D02*
X1465Y52D01*
X1499Y52D02*
X1528Y52D01*
X3063Y52D02*
X3070Y52D01*
X0Y51D02*
X7Y51D01*
X478Y51D02*
X485Y51D01*
X518Y51D02*
X525Y51D01*
X567Y51D02*
X590Y51D01*
X640Y51D02*
X663Y51D01*
X694Y51D02*
X703Y51D01*
X708Y51D02*
X729Y51D01*
X840Y51D02*
X847Y51D01*
X912Y51D02*
X919Y51D01*
X984Y51D02*
X990Y51D01*
X1004Y51D02*
X1011Y51D01*
X1025Y51D02*
X1032Y51D01*
X1067Y51D02*
X1093Y51D01*
X1129Y51D02*
X1136Y51D01*
X1169Y51D02*
X1175Y51D01*
X1201Y51D02*
X1208Y51D01*
X1241Y51D02*
X1248Y51D01*
X1280Y51D02*
X1313Y51D01*
X1433Y51D02*
X1464Y51D01*
X1501Y51D02*
X1527Y51D01*
X3063Y51D02*
X3070Y51D01*
X0Y50D02*
X7Y50D01*
X480Y50D02*
X484Y50D01*
X519Y50D02*
X524Y50D01*
X570Y50D02*
X588Y50D01*
X642Y50D02*
X661Y50D01*
X694Y50D02*
X703Y50D01*
X709Y50D02*
X728Y50D01*
X841Y50D02*
X846Y50D01*
X913Y50D02*
X918Y50D01*
X985Y50D02*
X989Y50D01*
X1005Y50D02*
X1010Y50D01*
X1026Y50D02*
X1030Y50D01*
X1069Y50D02*
X1091Y50D01*
X1130Y50D02*
X1134Y50D01*
X1170Y50D02*
X1174Y50D01*
X1202Y50D02*
X1207Y50D01*
X1242Y50D02*
X1247Y50D01*
X1282Y50D02*
X1311Y50D01*
X1435Y50D02*
X1463Y50D01*
X1503Y50D02*
X1524Y50D01*
X3063Y50D02*
X3070Y50D01*
X0Y49D02*
X7Y49D01*
X694Y49D02*
X703Y49D01*
X711Y49D02*
X727Y49D01*
X3063Y49D02*
X3070Y49D01*
X0Y48D02*
X7Y48D01*
X694Y48D02*
X703Y48D01*
X713Y48D02*
X725Y48D01*
X3063Y48D02*
X3070Y48D01*
X0Y47D02*
X7Y47D01*
X694Y47D02*
X703Y47D01*
X3063Y47D02*
X3070Y47D01*
X0Y46D02*
X7Y46D01*
X694Y46D02*
X703Y46D01*
X3063Y46D02*
X3070Y46D01*
X0Y45D02*
X7Y45D01*
X694Y45D02*
X703Y45D01*
X3063Y45D02*
X3070Y45D01*
X0Y44D02*
X7Y44D01*
X694Y44D02*
X703Y44D01*
X3063Y44D02*
X3070Y44D01*
X0Y43D02*
X7Y43D01*
X694Y43D02*
X703Y43D01*
X3063Y43D02*
X3070Y43D01*
X0Y42D02*
X7Y42D01*
X694Y42D02*
X703Y42D01*
X3063Y42D02*
X3070Y42D01*
X0Y41D02*
X7Y41D01*
X694Y41D02*
X703Y41D01*
X3063Y41D02*
X3070Y41D01*
X0Y40D02*
X7Y40D01*
X694Y40D02*
X703Y40D01*
X3063Y40D02*
X3070Y40D01*
X0Y39D02*
X7Y39D01*
X694Y39D02*
X703Y39D01*
X3063Y39D02*
X3070Y39D01*
X0Y38D02*
X7Y38D01*
X694Y38D02*
X703Y38D01*
X3063Y38D02*
X3070Y38D01*
X0Y37D02*
X7Y37D01*
X694Y37D02*
X703Y37D01*
X3063Y37D02*
X3070Y37D01*
X0Y36D02*
X7Y36D01*
X694Y36D02*
X703Y36D01*
X3063Y36D02*
X3070Y36D01*
X0Y35D02*
X7Y35D01*
X694Y35D02*
X703Y35D01*
X3063Y35D02*
X3070Y35D01*
X0Y34D02*
X7Y34D01*
X694Y34D02*
X703Y34D01*
X3063Y34D02*
X3070Y34D01*
X0Y33D02*
X7Y33D01*
X694Y33D02*
X703Y33D01*
X3063Y33D02*
X3070Y33D01*
X0Y32D02*
X7Y32D01*
X694Y32D02*
X703Y32D01*
X3063Y32D02*
X3070Y32D01*
X0Y31D02*
X7Y31D01*
X695Y31D02*
X703Y31D01*
X3063Y31D02*
X3070Y31D01*
X0Y30D02*
X7Y30D01*
X695Y30D02*
X702Y30D01*
X3063Y30D02*
X3070Y30D01*
X0Y29D02*
X7Y29D01*
X696Y29D02*
X701Y29D01*
X3063Y29D02*
X3070Y29D01*
X0Y28D02*
X7Y28D01*
X3063Y28D02*
X3070Y28D01*
X0Y27D02*
X7Y27D01*
X3063Y27D02*
X3070Y27D01*
X0Y26D02*
X7Y26D01*
X3063Y26D02*
X3070Y26D01*
X0Y25D02*
X7Y25D01*
X3063Y25D02*
X3070Y25D01*
X0Y24D02*
X7Y24D01*
X3063Y24D02*
X3070Y24D01*
X0Y23D02*
X7Y23D01*
X3063Y23D02*
X3070Y23D01*
X0Y22D02*
X7Y22D01*
X3063Y22D02*
X3070Y22D01*
X0Y21D02*
X7Y21D01*
X3063Y21D02*
X3070Y21D01*
X0Y20D02*
X7Y20D01*
X3063Y20D02*
X3070Y20D01*
X0Y19D02*
X7Y19D01*
X3063Y19D02*
X3070Y19D01*
X0Y18D02*
X7Y18D01*
X3063Y18D02*
X3070Y18D01*
X0Y17D02*
X7Y17D01*
X3063Y17D02*
X3070Y17D01*
X0Y16D02*
X7Y16D01*
X3063Y16D02*
X3070Y16D01*
X0Y15D02*
X7Y15D01*
X3063Y15D02*
X3070Y15D01*
X0Y14D02*
X7Y14D01*
X3063Y14D02*
X3070Y14D01*
X0Y13D02*
X7Y13D01*
X3063Y13D02*
X3070Y13D01*
X0Y12D02*
X7Y12D01*
X3063Y12D02*
X3070Y12D01*
X0Y11D02*
X7Y11D01*
X3063Y11D02*
X3070Y11D01*
X0Y10D02*
X7Y10D01*
X3063Y10D02*
X3070Y10D01*
X0Y9D02*
X3070Y9D01*
X0Y8D02*
X3070Y8D01*
X0Y7D02*
X3070Y7D01*
X0Y6D02*
X3070Y6D01*
X0Y5D02*
X3070Y5D01*
X0Y4D02*
X3070Y4D01*
X0Y3D02*
X3070Y3D01*
X0Y2D02*
X3070Y2D01*
D02*
G04 End of Silk1*
M02*