G04 MADE WITH FRITZING*
G04 WWW.FRITZING.ORG*
G04 DOUBLE SIDED*
G04 HOLES PLATED*
G04 CONTOUR ON CENTER OF CONTOUR VECTOR*
%ASAXBY*%
%FSLAX23Y23*%
%MOIN*%
%OFA0B0*%
%SFA1.0B1.0*%
%ADD10C,0.078000*%
%ADD11C,0.092000*%
%ADD12C,0.093000*%
%ADD13R,0.092000X0.092000*%
%ADD14C,0.024000*%
%LNCOPPER1*%
G90*
G70*
G54D10*
X2919Y659D03*
X2849Y588D03*
X2778Y517D03*
X2707Y447D03*
X2919Y659D03*
X2849Y588D03*
X2778Y517D03*
X2707Y447D03*
X2778Y376D03*
X2849Y447D03*
X2919Y517D03*
X2990Y588D03*
G54D11*
X2619Y659D03*
X2319Y659D03*
G54D12*
X2099Y659D03*
X1819Y659D03*
X119Y659D03*
X399Y659D03*
X2099Y659D03*
X1819Y659D03*
X119Y659D03*
X399Y659D03*
X2099Y259D03*
X1819Y259D03*
X119Y259D03*
X399Y259D03*
X2099Y259D03*
X1819Y259D03*
X119Y259D03*
X399Y259D03*
G54D10*
X2319Y459D03*
X2319Y359D03*
X2319Y259D03*
X2319Y159D03*
G54D11*
X2419Y259D03*
X2719Y259D03*
G54D13*
X2619Y659D03*
X2419Y259D03*
G54D14*
X119Y306D02*
X119Y611D01*
D02*
X2553Y559D02*
X2683Y464D01*
D02*
X2319Y559D02*
X2553Y559D01*
D02*
X2319Y622D02*
X2319Y559D01*
D02*
X2649Y788D02*
X2319Y788D01*
D02*
X2319Y788D02*
X2319Y696D01*
D02*
X2827Y609D02*
X2649Y788D01*
D02*
X2282Y659D02*
X2147Y659D01*
D02*
X2647Y634D02*
X2756Y537D01*
D02*
X2289Y159D02*
X2019Y159D01*
D02*
X2719Y859D02*
X2898Y680D01*
D02*
X2019Y859D02*
X2719Y859D01*
D02*
X2019Y159D02*
X2019Y859D01*
D02*
X2619Y376D02*
X2748Y376D01*
D02*
X2519Y459D02*
X2619Y376D01*
D02*
X2350Y459D02*
X2519Y459D01*
D02*
X2619Y259D02*
X2619Y159D01*
D02*
X2519Y359D02*
X2619Y259D01*
D02*
X2619Y159D02*
X2919Y159D01*
D02*
X2919Y159D02*
X2919Y487D01*
D02*
X2350Y359D02*
X2519Y359D01*
D02*
X2382Y259D02*
X2350Y259D01*
D02*
X2849Y417D02*
X2849Y259D01*
D02*
X2849Y259D02*
X2757Y259D01*
D02*
X2147Y259D02*
X2289Y259D01*
D02*
X2519Y159D02*
X2519Y59D01*
D02*
X2519Y59D02*
X2990Y59D01*
D02*
X2446Y233D02*
X2519Y159D01*
D02*
X2990Y59D02*
X2990Y558D01*
G04 End of Copper1*
M02*