; NON-PLATED HOLES START AT T1
; THROUGH (PLATED) HOLES START AT T100
M48
INCH
T100C0.073000
T101C0.052000
T102C0.038000
%
T100
X003994Y002587
X001194Y002587
X018194Y002587
X020994Y006587
X003994Y006587
X001194Y006587
X020994Y002587
X018194Y006587
T101
X024194Y002587
X026194Y006587
X027194Y002587
X023194Y006587
T102
X029194Y005173
X029194Y006587
X029901Y005880
X023194Y001587
X028486Y005880
X023194Y002587
X023194Y003587
X027779Y003759
X027779Y005173
X027072Y004466
X023194Y004587
X028486Y004466
T00
M30
